<svg xmlns="http://www.w3.org/2000/svg" viewBox="0 0 206.1 188.34"><defs><style>.cls-1{fill:#007f35;}.cls-2{fill:none;stroke:#fff;stroke-linecap:round;stroke-linejoin:round;stroke-width:2.63px;}.cls-3{fill:#ebb225;}.cls-4{fill:#fff;}.cls-5{fill:#97b900;}.cls-6,.cls-7{fill:#383838;}.cls-7{font-size:5.68px;font-family:Avenir-Black, Avenir;font-weight:800;letter-spacing:0.2em;}</style></defs><g id="Layer_2" data-name="Layer 2"><g id="Layer_1-2" data-name="Layer 1"><path class="cls-1" d="M143.09,7.51,143,7.39a3.43,3.43,0,0,1-.65-.26h0s-6-1.58-11.53-3.27A88.49,88.49,0,0,0,104.66,0c-.11,0-.21.06-.32.06H104A88.36,88.36,0,0,0,77.89,3.91C72.37,5.6,66.36,7.18,66.36,7.18v0l-.65.33h-.13a77.6,77.6,0,0,0-1.21,11.63h79.93A78.52,78.52,0,0,0,143.09,7.51Z" transform="translate(-2.07)"/><path class="cls-1" d="M104.14,107l.2-.54.2.52c23.19-17.06,33.25-39.16,37.33-58.25H66.81C70.89,67.82,81,89.93,104.14,107Z" transform="translate(-2.07)"/><path class="cls-2" d="M139.36,11.52l-.11-.23-.59-.3v0s-5.43-1.44-10.42-3a79.81,79.81,0,0,0-23.62-3.53h-.58A79.81,79.81,0,0,0,80.43,8C75.44,9.51,70,11,70,11v0l-.59.3-.11.23S58.15,67.4,104.16,101.25l.18-.51.18.51C150.54,67.4,139.36,11.52,139.36,11.52Z" transform="translate(-2.07)"/><polygon class="cls-3" points="151.58 46.58 52.96 46.58 55.8 34.1 52.96 21.63 151.58 21.63 148.15 34.1 151.58 46.58"/><path class="cls-3" d="M104.3,67.61a3.36,3.36,0,0,0-.67-.76,9.55,9.55,0,0,0-5-2.12,5.75,5.75,0,0,1,11.45,0,9.48,9.48,0,0,0-5.3,2.35A2.22,2.22,0,0,0,104.3,67.61Z" transform="translate(-2.07)"/><path class="cls-3" d="M94.83,59.82a.47.47,0,0,1,.24,0l3.6,1.44c.16.06.2.13.1.27a5.51,5.51,0,0,0-.46.78c-.06.11-.11.15-.23.06l-3.24-2.57Z" transform="translate(-2.07)"/><path class="cls-3" d="M109.87,55.75a2.15,2.15,0,0,1-.2.59c-.43,1.09-.87,2.18-1.31,3.27-.1.23-.1.23-.3.09a6.65,6.65,0,0,0-.74-.41c-.16-.07-.16-.15-.06-.28.71-.88,1.4-1.77,2.1-2.65A5.32,5.32,0,0,1,109.87,55.75Z" transform="translate(-2.07)"/><path class="cls-3" d="M98.88,55.78l.72.91L101.43,59c.12.15.08.2-.07.28s-.52.3-.78.45c-.09.06-.16.08-.21-.05-.5-1.27-1-2.53-1.51-3.79,0,0,0-.06,0-.1Z" transform="translate(-2.07)"/><path class="cls-3" d="M113.85,59.84a7.15,7.15,0,0,1-.73.61c-.8.64-1.61,1.27-2.42,1.9-.22.18-.22.18-.35-.07s-.27-.48-.42-.72-.06-.18.07-.24l2.75-1.09,1.07-.43Z" transform="translate(-2.07)"/><path class="cls-3" d="M104.38,54.32c.05.33.09.63.13.92.15,1,.31,2.1.46,3.15,0,.22,0,.23-.22.21a4.28,4.28,0,0,0-.8,0c-.21,0-.25,0-.22-.23.18-1.28.37-2.55.55-3.83A.33.33,0,0,1,104.38,54.32Z" transform="translate(-2.07)"/><path class="cls-4" d="M71.24,28.89h2.13V40.17H71.24Zm1.07,9.23H75a2.4,2.4,0,0,0,1.62-.5,1.82,1.82,0,0,0,.57-1.43V32.87a1.79,1.79,0,0,0-.57-1.42A2.35,2.35,0,0,0,75,30.94H72.31V28.89H75a5.51,5.51,0,0,1,2.41.48,3.34,3.34,0,0,1,1.52,1.38,4.37,4.37,0,0,1,.52,2.18v3.2a4.34,4.34,0,0,1-.5,2.12,3.42,3.42,0,0,1-1.5,1.41,5.38,5.38,0,0,1-2.45.51H72.31Z" transform="translate(-2.07)"/><path class="cls-4" d="M84.18,39.77a3.61,3.61,0,0,1-1.44-1.46,4.5,4.5,0,0,1-.51-2.18v-3.2a4.53,4.53,0,0,1,.51-2.18,3.61,3.61,0,0,1,1.44-1.46,4.48,4.48,0,0,1,2.16-.51,4.42,4.42,0,0,1,2.16.51A3.64,3.64,0,0,1,90,30.75a4.53,4.53,0,0,1,.51,2.18v3.2A4.5,4.5,0,0,1,90,38.31a3.64,3.64,0,0,1-1.45,1.46,4.42,4.42,0,0,1-2.16.51A4.48,4.48,0,0,1,84.18,39.77Zm3.17-1.85a1.74,1.74,0,0,0,.67-.7,2.16,2.16,0,0,0,.24-1v-3.3a2.19,2.19,0,0,0-.24-1,1.65,1.65,0,0,0-.67-.69,1.94,1.94,0,0,0-1-.25,2,2,0,0,0-1,.25,1.65,1.65,0,0,0-.67.69,2.31,2.31,0,0,0-.23,1v3.3a2.28,2.28,0,0,0,.23,1,1.74,1.74,0,0,0,.67.7,2.07,2.07,0,0,0,1,.24A2,2,0,0,0,87.35,37.92Z" transform="translate(-2.07)"/><path class="cls-4" d="M95.15,39.79a3.33,3.33,0,0,1-1.4-1.43,5,5,0,0,1-.48-2.28V33a5,5,0,0,1,.48-2.28,3.3,3.3,0,0,1,1.4-1.44,4.55,4.55,0,0,1,2.2-.49,3.84,3.84,0,0,1,1.9.46,3.66,3.66,0,0,1,1.38,1.33,5.62,5.62,0,0,1,.76,2.1H99.18a2.82,2.82,0,0,0-.38-1,1.75,1.75,0,0,0-.63-.61,1.61,1.61,0,0,0-.82-.21,1.93,1.93,0,0,0-1,.25,1.58,1.58,0,0,0-.64.71A2.59,2.59,0,0,0,95.47,33v3.09a2.59,2.59,0,0,0,.22,1.13,1.64,1.64,0,0,0,.64.71,2,2,0,0,0,1,.24,1.7,1.7,0,0,0,1.46-.81,2.6,2.6,0,0,0,.37-1h2.21a5.86,5.86,0,0,1-.77,2.11,3.74,3.74,0,0,1-1.38,1.33,3.88,3.88,0,0,1-1.89.45A4.55,4.55,0,0,1,95.15,39.79Z" transform="translate(-2.07)"/><path class="cls-4" d="M104.12,28.89h2.12V40.17h-2.12Zm.77,0h6.78v2.05h-6.78Zm0,4.66h5.93v2h-5.93Zm0,4.57h6.78v2.05h-6.78Z" transform="translate(-2.07)"/><path class="cls-4" d="M114.4,28.89H117l4.19,8.64-.18.2V28.89h2V40.16h-2.61l-4.18-8.51.18-.2v8.71h-2Z" transform="translate(-2.07)"/><path class="cls-4" d="M124.76,28.89H133v2.05h-8.27Zm3.07.93H130V40.17h-2.13Z" transform="translate(-2.07)"/><path class="cls-4" d="M136.8,40.17h-2.2V28.89h2.2Z" transform="translate(-2.07)"/><g id="hfb8mP"><path class="cls-5" d="M93.35,68.64c0,3.39,0,6.79,0,10.18,0-.18,0-.39,0-.63V68.1A2.33,2.33,0,0,1,93.35,68.64Z" transform="translate(-2.07)"/><path class="cls-5" d="M99.1,80.48a18.58,18.58,0,0,0-3.76-.37H95l-.39,0A17,17,0,0,1,99.1,80.48Z" transform="translate(-2.07)"/><path class="cls-5" d="M104.27,82a0,0,0,0,0,0,0h0Z" transform="translate(-2.07)"/><path class="cls-5" d="M104,80.78a2.15,2.15,0,0,1,0,.48h0c-.08.3-.28.36-.79.07a15.67,15.67,0,0,0-8-1.87c-1.25,0-1.25,0-1.25-1.27V67c0-1.14,0-1.27.94-1.44h0l.33-.06a11.52,11.52,0,0,1,2.39-.2,7.75,7.75,0,0,1,1,.07,8.77,8.77,0,0,1,4.62,2,2.08,2.08,0,0,1,.77,1.2h0a1.81,1.81,0,0,1,0,.53c0,.66,0,1.31,0,2v1c0,.73,0,1.45,0,2.17v.66C104,76.83,104,78.81,104,80.78Z" transform="translate(-2.07)"/><path class="cls-5" d="M104.27,82a0,0,0,0,0,0,0h0Z" transform="translate(-2.07)"/><path class="cls-5" d="M115.3,68.11V78.7a1.67,1.67,0,0,1,0,.32c0-3.48,0-7,0-10.44A2.29,2.29,0,0,1,115.3,68.11Z" transform="translate(-2.07)"/><path class="cls-5" d="M114.65,66.47V78.7c0,.56-.24.78-.79.76a16.17,16.17,0,0,0-8.66,2c-.42.23-.54.08-.57-.15h0a2.55,2.55,0,0,1,0-.39V71.05c0-.71,0-1.41,0-2.12a2.5,2.5,0,0,1,0-.4,1.64,1.64,0,0,1,.56-1,8.73,8.73,0,0,1,4.91-2.19c.32,0,.64,0,1,0a11.58,11.58,0,0,1,2.65.27l.32.06A.75.75,0,0,1,114.65,66.47Z" transform="translate(-2.07)"/><path class="cls-5" d="M116.7,69.09c0,4.07,0,8.15,0,12.23,0,1.25,0,1.28-1.27,1.28-2.61,0-5.23,0-7.86,0a2,2,0,0,0-1.36.42,3.3,3.3,0,0,1-3.77,0A2.13,2.13,0,0,0,101,82.6c-2.66,0-5.31,0-8,0-.79,0-1.08-.24-1.07-1.05,0-2.16,0-4.31,0-6.47V68.64c0-.48,0-1,.67-1,.43,0,.58.18.64.42h0a2.33,2.33,0,0,1,0,.54c0,3.39,0,6.79,0,10.18v.39c0,.72.16.94.92.9l.32,0h0a17,17,0,0,1,4.51.39c.21,0,.42.09.62.15l.59.17a12.91,12.91,0,0,1,2.55,1.1,1.84,1.84,0,0,0,.84.27.89.89,0,0,0,.56-.2h0a0,0,0,0,0,0,0,.84.84,0,0,0,.59.23,1.31,1.31,0,0,0,.67-.2,15.25,15.25,0,0,1,7.77-1.9h.61l.27,0h.16c.82,0,1-.21,1-1V79c0-3.48,0-7,0-10.44a2.29,2.29,0,0,1,0-.47h0c.07-.27.24-.45.69-.43s.62.15.66.55A8.46,8.46,0,0,1,116.7,69.09Z" transform="translate(-2.07)"/></g><path class="cls-1" d="M2.07,137.71H5.61v18.8H2.07ZM3.85,153.1H8.37a4,4,0,0,0,2.7-.84,3,3,0,0,0,1-2.38v-5.54a3,3,0,0,0-1-2.38,4,4,0,0,0-2.7-.84H3.85v-3.41H8.29a9.27,9.27,0,0,1,4,.79,5.55,5.55,0,0,1,2.53,2.3,7.3,7.3,0,0,1,.86,3.65v5.33a7.18,7.18,0,0,1-.83,3.54,5.7,5.7,0,0,1-2.5,2.35,9.06,9.06,0,0,1-4.09.84H3.85Z" transform="translate(-2.07)"/><path class="cls-1" d="M22.33,155.85a5.94,5.94,0,0,1-2.41-2.43,7.5,7.5,0,0,1-.85-3.64v-5.33a7.54,7.54,0,0,1,.85-3.65,6.06,6.06,0,0,1,2.41-2.43,7.38,7.38,0,0,1,3.61-.86,7.37,7.37,0,0,1,3.6.86A6.06,6.06,0,0,1,32,140.8a7.54,7.54,0,0,1,.85,3.65v5.33a7.5,7.5,0,0,1-.85,3.64,5.94,5.94,0,0,1-2.41,2.43,7.37,7.37,0,0,1-3.6.86A7.38,7.38,0,0,1,22.33,155.85Zm5.29-3.09a2.85,2.85,0,0,0,1.12-1.16,3.71,3.71,0,0,0,.39-1.73v-5.51a3.72,3.72,0,0,0-.39-1.74,2.82,2.82,0,0,0-1.12-1.15,3.67,3.67,0,0,0-3.37,0,2.82,2.82,0,0,0-1.12,1.15,3.72,3.72,0,0,0-.39,1.74v5.51a3.71,3.71,0,0,0,.39,1.73,2.85,2.85,0,0,0,1.12,1.16,3.75,3.75,0,0,0,3.37,0Z" transform="translate(-2.07)"/><path class="cls-1" d="M39.3,155.89a5.46,5.46,0,0,1-2.33-2.4,8.16,8.16,0,0,1-.8-3.79v-5.16a8.21,8.21,0,0,1,.8-3.8,5.46,5.46,0,0,1,2.33-2.4,7.6,7.6,0,0,1,3.67-.83,6.5,6.5,0,0,1,3.17.77,6.26,6.26,0,0,1,2.31,2.21A9.59,9.59,0,0,1,49.71,144H46a5,5,0,0,0-.64-1.59,3.06,3.06,0,0,0-1-1,2.67,2.67,0,0,0-1.38-.35,3.21,3.21,0,0,0-1.69.41,2.56,2.56,0,0,0-1.07,1.18,4.37,4.37,0,0,0-.37,1.89v5.16a4.24,4.24,0,0,0,.37,1.87,2.59,2.59,0,0,0,1.07,1.19,3.3,3.3,0,0,0,1.69.4,2.84,2.84,0,0,0,1.4-.34,3,3,0,0,0,1.05-1,4.73,4.73,0,0,0,.62-1.6h3.67a9.85,9.85,0,0,1-1.27,3.51A6.28,6.28,0,0,1,46.13,156a6.53,6.53,0,0,1-3.16.76A7.71,7.71,0,0,1,39.3,155.89Z" transform="translate(-2.07)"/><path class="cls-1" d="M52.94,137.71h3.55v18.8H52.94Zm1.28,0H65.54v3.41H54.22Zm0,7.76h9.9v3.41h-9.9Zm0,7.63H65.54v3.41H54.22Z" transform="translate(-2.07)"/><path class="cls-1" d="M68.78,137.71h4.33l7,14.41-.31.33V137.71h3.39V156.5H78.83l-7-14.19.32-.33V156.5H68.78Z" transform="translate(-2.07)"/><path class="cls-1" d="M84.74,137.71H98.53v3.41H84.74Zm5.12,1.54H93.4v17.26H89.86Z" transform="translate(-2.07)"/><path class="cls-1" d="M103.49,156.51H99.82v-18.8h3.67Z" transform="translate(-2.07)"/><path class="cls-1" d="M125.28,146v3.67a7.86,7.86,0,0,1-.85,3.7,6.14,6.14,0,0,1-2.4,2.47,7.21,7.21,0,0,1-3.6.87,7.76,7.76,0,0,1-3.62-.82,5.94,5.94,0,0,1-2.44-2.32,6.91,6.91,0,0,1-.86-3.48v-5.55a7.79,7.79,0,0,1,.85-3.69,6,6,0,0,1,2.4-2.46,7.11,7.11,0,0,1,3.6-.88,6.88,6.88,0,0,1,3.1.7,6.34,6.34,0,0,1,2.37,2,7,7,0,0,1,1.29,2.93h-3.83a2.46,2.46,0,0,0-.64-1,2.93,2.93,0,0,0-1.05-.66,3.49,3.49,0,0,0-1.24-.22,3.26,3.26,0,0,0-1.67.41,2.87,2.87,0,0,0-1.11,1.18,3.8,3.8,0,0,0-.39,1.76v5.55a3,3,0,0,0,.4,1.55,2.6,2.6,0,0,0,1.14,1,3.83,3.83,0,0,0,1.7.37,3.48,3.48,0,0,0,1.68-.4,2.58,2.58,0,0,0,1.1-1.14,3.8,3.8,0,0,0,.39-1.78v-.31h-2.84V146Z" transform="translate(-2.07)"/><path class="cls-1" d="M129,137.71h3.54v18.8H129Zm1.58,15.39h11v3.41h-11Z" transform="translate(-2.07)"/><path class="cls-1" d="M147.09,155.85a5.94,5.94,0,0,1-2.41-2.43,7.5,7.5,0,0,1-.85-3.64v-5.33a7.54,7.54,0,0,1,.85-3.65,6.06,6.06,0,0,1,2.41-2.43,8,8,0,0,1,7.21,0,6.06,6.06,0,0,1,2.41,2.43,7.54,7.54,0,0,1,.85,3.65v5.33a7.5,7.5,0,0,1-.85,3.64,5.94,5.94,0,0,1-2.41,2.43,8,8,0,0,1-7.21,0Zm5.29-3.09a2.76,2.76,0,0,0,1.11-1.16,3.59,3.59,0,0,0,.4-1.73v-5.51a3.6,3.6,0,0,0-.4-1.74,2.74,2.74,0,0,0-1.11-1.15,3.67,3.67,0,0,0-3.37,0,2.82,2.82,0,0,0-1.12,1.15,3.72,3.72,0,0,0-.39,1.74v5.51a3.71,3.71,0,0,0,.39,1.73,2.85,2.85,0,0,0,1.12,1.16,3.75,3.75,0,0,0,3.37,0Z" transform="translate(-2.07)"/><path class="cls-1" d="M161.31,137.71h3.55v18.8h-3.55Zm1.56,15.39h6a2.75,2.75,0,0,0,1.88-.59,2.1,2.1,0,0,0,.67-1.65v0a2.31,2.31,0,0,0-.3-1.21,1.87,1.87,0,0,0-.87-.77,3.27,3.27,0,0,0-1.38-.27h-6v-3.41h6a2.42,2.42,0,0,0,1.7-.56,2,2,0,0,0,.6-1.56,1.72,1.72,0,0,0-.6-1.41,2.56,2.56,0,0,0-1.7-.51h-6v-3.41H169a7.36,7.36,0,0,1,3.12.6,4.35,4.35,0,0,1,2,1.74,5.34,5.34,0,0,1,.67,2.75,4.18,4.18,0,0,1-.43,1.95,3.58,3.58,0,0,1-1.26,1.39,5.24,5.24,0,0,1-2,.74,4.88,4.88,0,0,1,2.13.76,3.83,3.83,0,0,1,1.35,1.53,5,5,0,0,1,.46,2.18v0a5.39,5.39,0,0,1-.68,2.77,4.39,4.39,0,0,1-2,1.75,7.44,7.44,0,0,1-3.13.6h-6.33Z" transform="translate(-2.07)"/><path class="cls-1" d="M183.79,137.71h2.26l7.19,18.8h-3.82l-4.5-12.84-4.5,12.84H176.6Zm-3.73,12.38H190v3.41h-9.89Z" transform="translate(-2.07)"/><path class="cls-1" d="M195.57,137.71h3.54v18.8h-3.54Zm1.57,15.39h11v3.41h-11Z" transform="translate(-2.07)"/><path class="cls-6" d="M15.42,170.48a2.51,2.51,0,0,1-.3,1.27,2.36,2.36,0,0,1-.78.82,3.69,3.69,0,0,1-1.12.44,6.14,6.14,0,0,1-1.29.14H8.28V164h3.65a5.93,5.93,0,0,1,1.09.11,3.23,3.23,0,0,1,1,.37,2,2,0,0,1,1,1.87,1.88,1.88,0,0,1-.42,1.26,2.2,2.2,0,0,1-1.08.72v0a2.32,2.32,0,0,1,.73.24,2,2,0,0,1,.59.44,2.23,2.23,0,0,1,.4.64A2.09,2.09,0,0,1,15.42,170.48Zm-2.51-3.84a.74.74,0,0,0-.35-.68,2.13,2.13,0,0,0-1.06-.21H10.42v1.89h1.19a1.66,1.66,0,0,0,1-.25A.87.87,0,0,0,12.91,166.64Zm.3,3.64a.8.8,0,0,0-.43-.79,2.43,2.43,0,0,0-1.14-.22H10.42v2.09h1.24a3.23,3.23,0,0,0,.53,0,1.91,1.91,0,0,0,.51-.16,1.06,1.06,0,0,0,.37-.33A1,1,0,0,0,13.21,170.28Z" transform="translate(-2.07)"/><path class="cls-6" d="M29.54,171.2a3.36,3.36,0,0,1-.79,1.17,3.72,3.72,0,0,1-1.25.75,4.67,4.67,0,0,1-1.62.27,4.6,4.6,0,0,1-1.63-.27,3.45,3.45,0,0,1-1.23-.75,3.34,3.34,0,0,1-.78-1.17,4,4,0,0,1-.27-1.51V164h2.2v5.52a2.34,2.34,0,0,0,.1.71,1.81,1.81,0,0,0,.29.61,1.59,1.59,0,0,0,.53.42,1.94,1.94,0,0,0,.8.15,1.89,1.89,0,0,0,.79-.15,1.63,1.63,0,0,0,.54-.42,1.66,1.66,0,0,0,.3-.61,2.71,2.71,0,0,0,.09-.71V164h2.21v5.7A3.83,3.83,0,0,1,29.54,171.2Z" transform="translate(-2.07)"/><path class="cls-6" d="M41.62,166.37a2.15,2.15,0,0,0-.74-.58,2.17,2.17,0,0,0-.89-.21,2.28,2.28,0,0,0-.45,0,.92.92,0,0,0-.4.15,1,1,0,0,0-.31.28.79.79,0,0,0-.12.45.71.71,0,0,0,.1.39.91.91,0,0,0,.28.27,2.09,2.09,0,0,0,.45.21c.17.07.36.13.58.2l1,.35a3.68,3.68,0,0,1,.92.49,2.79,2.79,0,0,1,.68.77,2.15,2.15,0,0,1,.28,1.15,2.9,2.9,0,0,1-.3,1.36,2.59,2.59,0,0,1-.78.95,3.37,3.37,0,0,1-1.12.56,4.82,4.82,0,0,1-1.31.18,5.32,5.32,0,0,1-1.9-.34,4.16,4.16,0,0,1-1.53-1l1.45-1.47a2.75,2.75,0,0,0,.89.69,2.33,2.33,0,0,0,1.09.28,2.61,2.61,0,0,0,.48-.05,1.36,1.36,0,0,0,.41-.17.81.81,0,0,0,.27-.31,1,1,0,0,0,.11-.47.79.79,0,0,0-.13-.44,1.34,1.34,0,0,0-.37-.33,2.82,2.82,0,0,0-.6-.27l-.8-.27a6.36,6.36,0,0,1-.86-.33,3,3,0,0,1-.75-.5,2.4,2.4,0,0,1-.54-.74,2.55,2.55,0,0,1-.2-1.05,2.52,2.52,0,0,1,1.13-2.2,3.68,3.68,0,0,1,1.14-.51,5,5,0,0,1,1.28-.16,4.71,4.71,0,0,1,1.58.28,4.14,4.14,0,0,1,1.42.84Z" transform="translate(-2.07)"/><path class="cls-6" d="M49.6,173.15V164h2.23v9.16Z" transform="translate(-2.07)"/><path class="cls-6" d="M64.71,173.15l-3.68-6h0l0,6H58.89V164h2.53l3.67,6h0l0-6h2.14v9.16Z" transform="translate(-2.07)"/><path class="cls-6" d="M74.29,173.15V164h6.16v1.86h-4v1.74h3.81v1.77H76.42v1.9h4.26v1.89Z" transform="translate(-2.07)"/><path class="cls-6" d="M92.15,166.37a2.06,2.06,0,0,0-.74-.58,2.14,2.14,0,0,0-.89-.21,2.25,2.25,0,0,0-.44,0,1,1,0,0,0-.41.15,1,1,0,0,0-.3.28.73.73,0,0,0-.13.45.81.81,0,0,0,.1.39.91.91,0,0,0,.28.27,2.35,2.35,0,0,0,.45.21c.17.07.37.13.58.2s.64.22,1,.35a3.52,3.52,0,0,1,.92.49,2.67,2.67,0,0,1,.69.77,2.25,2.25,0,0,1,.27,1.15,3,3,0,0,1-.29,1.36,2.81,2.81,0,0,1-.78.95,3.42,3.42,0,0,1-1.13.56,4.76,4.76,0,0,1-1.31.18,5.36,5.36,0,0,1-1.9-.34,4.16,4.16,0,0,1-1.53-1L88,170.59a2.86,2.86,0,0,0,.89.69,2.36,2.36,0,0,0,1.09.28,2.44,2.44,0,0,0,.48-.05,1.26,1.26,0,0,0,.41-.17.84.84,0,0,0,.28-.31,1,1,0,0,0,.1-.47.72.72,0,0,0-.13-.44,1.21,1.21,0,0,0-.37-.33,2.72,2.72,0,0,0-.59-.27l-.81-.27a6.92,6.92,0,0,1-.86-.33,3,3,0,0,1-.75-.5,2.22,2.22,0,0,1-.53-.74,2.4,2.4,0,0,1-.2-1.05,2.57,2.57,0,0,1,.31-1.31,2.77,2.77,0,0,1,.81-.89,3.68,3.68,0,0,1,1.14-.51,5,5,0,0,1,1.28-.16,4.76,4.76,0,0,1,1.59.28,4,4,0,0,1,1.41.84Z" transform="translate(-2.07)"/><path class="cls-6" d="M105,166.37a2.1,2.1,0,0,0-.75-.58,2.14,2.14,0,0,0-.89-.21,2.25,2.25,0,0,0-.44,0,1,1,0,0,0-.41.15,1,1,0,0,0-.3.28.73.73,0,0,0-.13.45.81.81,0,0,0,.1.39,1,1,0,0,0,.29.27,2,2,0,0,0,.44.21c.17.07.37.13.58.2s.64.22,1,.35a3.52,3.52,0,0,1,.92.49,2.67,2.67,0,0,1,.69.77,2.25,2.25,0,0,1,.27,1.15,3,3,0,0,1-.29,1.36,2.7,2.7,0,0,1-.78.95,3.42,3.42,0,0,1-1.13.56,4.76,4.76,0,0,1-1.31.18,5.36,5.36,0,0,1-1.9-.34,4,4,0,0,1-1.52-1l1.44-1.47a2.86,2.86,0,0,0,.89.69,2.36,2.36,0,0,0,1.09.28,2.44,2.44,0,0,0,.48-.05,1.26,1.26,0,0,0,.41-.17A.84.84,0,0,0,104,171a1,1,0,0,0,.1-.47.72.72,0,0,0-.13-.44,1.21,1.21,0,0,0-.37-.33,2.72,2.72,0,0,0-.59-.27l-.81-.27a6.92,6.92,0,0,1-.86-.33,3,3,0,0,1-.75-.5,2.22,2.22,0,0,1-.53-.74,2.89,2.89,0,0,1,.11-2.36,2.77,2.77,0,0,1,.81-.89,3.68,3.68,0,0,1,1.14-.51,5.1,5.1,0,0,1,1.28-.16A4.76,4.76,0,0,1,105,164a4.14,4.14,0,0,1,1.42.84Z" transform="translate(-2.07)"/><path class="cls-6" d="M126.21,166.37a2.2,2.2,0,0,0-1.63-.79,2.28,2.28,0,0,0-.45,0,1,1,0,0,0-.41.15,1,1,0,0,0-.3.28.83.83,0,0,0,0,.84,1,1,0,0,0,.29.27,2,2,0,0,0,.44.21c.17.07.37.13.58.2s.64.22,1,.35a3.52,3.52,0,0,1,.92.49,2.67,2.67,0,0,1,.69.77,2.25,2.25,0,0,1,.27,1.15,3,3,0,0,1-.29,1.36,2.7,2.7,0,0,1-.78.95,3.42,3.42,0,0,1-1.13.56,4.76,4.76,0,0,1-1.31.18,5.4,5.4,0,0,1-1.9-.34,4,4,0,0,1-1.52-1l1.45-1.47a2.7,2.7,0,0,0,.88.69,2.36,2.36,0,0,0,1.09.28,2.44,2.44,0,0,0,.48-.05,1.26,1.26,0,0,0,.41-.17.84.84,0,0,0,.28-.31,1,1,0,0,0,.1-.47.72.72,0,0,0-.13-.44,1.21,1.21,0,0,0-.37-.33,2.72,2.72,0,0,0-.59-.27l-.81-.27a6.92,6.92,0,0,1-.86-.33,3,3,0,0,1-.75-.5,2.22,2.22,0,0,1-.53-.74,2.89,2.89,0,0,1,.11-2.36,2.77,2.77,0,0,1,.81-.89,3.68,3.68,0,0,1,1.14-.51,5.1,5.1,0,0,1,1.28-.16,4.76,4.76,0,0,1,1.59.28,4.14,4.14,0,0,1,1.42.84Z" transform="translate(-2.07)"/><path class="cls-6" d="M140.75,173a5,5,0,0,1-2.06.4,5.42,5.42,0,0,1-2-.34,4.83,4.83,0,0,1-1.56-1,4.58,4.58,0,0,1-1-1.54,5,5,0,0,1-.38-2,5.13,5.13,0,0,1,.38-2A4.57,4.57,0,0,1,135.2,165a4.74,4.74,0,0,1,1.57-1,5.72,5.72,0,0,1,2-.34,5.51,5.51,0,0,1,1.91.35,3.61,3.61,0,0,1,1.52,1l-1.5,1.5a1.77,1.77,0,0,0-.82-.63,2.73,2.73,0,0,0-2.1,0,2.61,2.61,0,0,0-.84.59,2.76,2.76,0,0,0-.54.89,3.1,3.1,0,0,0-.19,1.12,3.15,3.15,0,0,0,.19,1.13,2.56,2.56,0,0,0,.54.89,2.4,2.4,0,0,0,.82.58,2.77,2.77,0,0,0,1.05.2,2.35,2.35,0,0,0,1.15-.26,2.16,2.16,0,0,0,.79-.67l1.54,1.45A4.38,4.38,0,0,1,140.75,173Z" transform="translate(-2.07)"/><path class="cls-6" d="M154.15,173.15v-3.83h-3.57v3.83h-2.21V164h2.21v3.47h3.57V164h2.21v9.16Z" transform="translate(-2.07)"/><path class="cls-6" d="M173,168.53a5.15,5.15,0,0,1-.37,2,4.6,4.6,0,0,1-1,1.54,5,5,0,0,1-1.59,1,6,6,0,0,1-4,0,4.88,4.88,0,0,1-1.57-1,4.49,4.49,0,0,1-1-1.54,5.54,5.54,0,0,1,0-4,4.23,4.23,0,0,1,1-1.5,4.49,4.49,0,0,1,1.57-1,6,6,0,0,1,4,0,4.58,4.58,0,0,1,1.59,1,4.34,4.34,0,0,1,1,1.5A5.11,5.11,0,0,1,173,168.53Zm-2.36,0a3.08,3.08,0,0,0-.2-1.11,2.81,2.81,0,0,0-.53-.89,2.58,2.58,0,0,0-.83-.58,2.69,2.69,0,0,0-1.07-.21,2.54,2.54,0,0,0-1.89.79,2.65,2.65,0,0,0-.54.89,3.54,3.54,0,0,0,0,2.26,2.76,2.76,0,0,0,.54.89,2.42,2.42,0,0,0,.82.59,2.66,2.66,0,0,0,2.12,0,2.46,2.46,0,0,0,.83-.59,2.76,2.76,0,0,0,.54-.89A3.31,3.31,0,0,0,170.61,168.53Z" transform="translate(-2.07)"/><path class="cls-6" d="M189.16,168.53a5.15,5.15,0,0,1-.38,2,4.46,4.46,0,0,1-1,1.54,4.82,4.82,0,0,1-1.58,1,6,6,0,0,1-4,0,4.92,4.92,0,0,1-1.58-1,4.6,4.6,0,0,1-1-1.54,5.4,5.4,0,0,1,0-4,4.34,4.34,0,0,1,1-1.5,4.53,4.53,0,0,1,1.58-1,6,6,0,0,1,4,0,4.44,4.44,0,0,1,1.58,1,4.21,4.21,0,0,1,1,1.5A5.11,5.11,0,0,1,189.16,168.53Zm-2.37,0a3.08,3.08,0,0,0-.19-1.11,2.65,2.65,0,0,0-.54-.89,2.48,2.48,0,0,0-.83-.58,2.6,2.6,0,0,0-2.95.58,2.37,2.37,0,0,0-.54.89,3.08,3.08,0,0,0-.19,1.11,3.31,3.31,0,0,0,.2,1.15,2.73,2.73,0,0,0,.53.89,2.53,2.53,0,0,0,.82.59,2.69,2.69,0,0,0,2.13,0,2.42,2.42,0,0,0,.82-.59,2.62,2.62,0,0,0,.55-.89A3.3,3.3,0,0,0,186.79,168.53Z" transform="translate(-2.07)"/><path class="cls-6" d="M195.8,173.15V164H198v7.23h3.55v1.93Z" transform="translate(-2.07)"/><path class="cls-1" d="M146.37,70.46a9.7,9.7,0,0,0,4.14,4,9.74,9.74,0,0,0-.62-5.74,9.64,9.64,0,0,0-4.14-4A9.71,9.71,0,0,0,146.37,70.46Z" transform="translate(-2.07)"/><path class="cls-1" d="M155.43,69.28a9.72,9.72,0,0,1-3,5,9.72,9.72,0,0,1-.87-5.71,9.67,9.67,0,0,1,3-4.94A9.7,9.7,0,0,1,155.43,69.28Z" transform="translate(-2.07)"/><path class="cls-1" d="M145.5,82.4a9.71,9.71,0,0,0,3,4.92,9.66,9.66,0,0,0,.84-5.71,9.69,9.69,0,0,0-3-4.92A9.69,9.69,0,0,0,145.5,82.4Z" transform="translate(-2.07)"/><path class="cls-1" d="M154.57,83.52a9.69,9.69,0,0,1-4.11,4,8.46,8.46,0,0,1,4.69-9.78A9.74,9.74,0,0,1,154.57,83.52Z" transform="translate(-2.07)"/><path class="cls-1" d="M141.26,95.53a9.69,9.69,0,0,0,1.65,5.53,8.5,8.5,0,0,0,.61-10.84A9.72,9.72,0,0,0,141.26,95.53Z" transform="translate(-2.07)"/><path class="cls-1" d="M149.75,98.92a9.74,9.74,0,0,1-5,2.87,8.48,8.48,0,0,1,7-8.27A9.67,9.67,0,0,1,149.75,98.92Z" transform="translate(-2.07)"/><path class="cls-1" d="M133,104.22a9.64,9.64,0,0,0-.88,5.7,8.48,8.48,0,0,0,5.2-9.52A9.69,9.69,0,0,0,133,104.22Z" transform="translate(-2.07)"/><path class="cls-1" d="M139.19,110.93a9.66,9.66,0,0,1-5.76.43,8.49,8.49,0,0,1,9.9-4.44A9.68,9.68,0,0,1,139.19,110.93Z" transform="translate(-2.07)"/><path class="cls-1" d="M122.26,110a9.67,9.67,0,0,0-2.93,5,8.49,8.49,0,0,0,8.36-6.92A9.69,9.69,0,0,0,122.26,110Z" transform="translate(-2.07)"/><path class="cls-1" d="M125.54,118.55a9.68,9.68,0,0,1-5.5-1.72,8.46,8.46,0,0,1,10.84-.47A9.69,9.69,0,0,1,125.54,118.55Z" transform="translate(-2.07)"/><path class="cls-1" d="M112.37,113a9.63,9.63,0,0,0-4,4.13,8.48,8.48,0,0,0,9.75-4.75A9.62,9.62,0,0,0,112.37,113Z" transform="translate(-2.07)"/><path class="cls-1" d="M113.54,122a9.65,9.65,0,0,1-4.94-3,8.48,8.48,0,0,1,10.64,2.11A9.68,9.68,0,0,1,113.54,122Z" transform="translate(-2.07)"/><path class="cls-1" d="M62.31,70.46a9.7,9.7,0,0,1-4.13,4,9.7,9.7,0,0,1,.61-5.74,9.64,9.64,0,0,1,4.14-4A9.62,9.62,0,0,1,62.31,70.46Z" transform="translate(-2.07)"/><path class="cls-1" d="M53.25,69.28a9.7,9.7,0,0,0,3,5,9.72,9.72,0,0,0,.87-5.71,9.72,9.72,0,0,0-3-4.94A9.7,9.7,0,0,0,53.25,69.28Z" transform="translate(-2.07)"/><path class="cls-1" d="M63.19,82.4a9.69,9.69,0,0,1-3,4.92,9.69,9.69,0,0,1-.83-5.71,9.71,9.71,0,0,1,3-4.92A9.75,9.75,0,0,1,63.19,82.4Z" transform="translate(-2.07)"/><path class="cls-1" d="M54.12,83.52a9.64,9.64,0,0,0,4.11,4,8.49,8.49,0,0,0-4.69-9.78A9.65,9.65,0,0,0,54.12,83.52Z" transform="translate(-2.07)"/><path class="cls-1" d="M67.42,95.53a9.69,9.69,0,0,1-1.65,5.53,8.5,8.5,0,0,1-.61-10.84A9.72,9.72,0,0,1,67.42,95.53Z" transform="translate(-2.07)"/><path class="cls-1" d="M58.94,98.92a9.73,9.73,0,0,0,5,2.87,9.71,9.71,0,0,0-2-5.41,9.68,9.68,0,0,0-5-2.86A9.64,9.64,0,0,0,58.94,98.92Z" transform="translate(-2.07)"/><path class="cls-1" d="M75.7,104.22a9.69,9.69,0,0,1,.89,5.7,8.48,8.48,0,0,1-5.21-9.52A9.64,9.64,0,0,1,75.7,104.22Z" transform="translate(-2.07)"/><path class="cls-1" d="M69.5,110.93a9.63,9.63,0,0,0,5.75.43,9.67,9.67,0,0,0-4.15-4,9.72,9.72,0,0,0-5.75-.43A9.67,9.67,0,0,0,69.5,110.93Z" transform="translate(-2.07)"/><path class="cls-1" d="M86.42,110a9.67,9.67,0,0,1,2.93,5A8.47,8.47,0,0,1,81,108.07,9.65,9.65,0,0,1,86.42,110Z" transform="translate(-2.07)"/><path class="cls-1" d="M83.14,118.55a9.73,9.73,0,0,0,5.51-1.72,9.7,9.7,0,0,0-5.34-2.2,9.7,9.7,0,0,0-5.51,1.73A9.73,9.73,0,0,0,83.14,118.55Z" transform="translate(-2.07)"/><path class="cls-1" d="M96.32,113a9.7,9.7,0,0,1,4,4.13,8.48,8.48,0,0,1-9.76-4.75A9.65,9.65,0,0,1,96.32,113Z" transform="translate(-2.07)"/><path class="cls-1" d="M95.14,122a9.7,9.7,0,0,0,5-3,8.49,8.49,0,0,0-10.65,2.11A9.68,9.68,0,0,0,95.14,122Z" transform="translate(-2.07)"/><text class="cls-7" transform="translate(23.86 185.74)">DEVELOPING GLOBAL BUSINESS LEADERS</text></g></g></svg>