<svg xmlns="http://www.w3.org/2000/svg" viewBox="0 0 230.42 64.86"><defs><style>.cls-1{fill:#007f35;}.cls-2,.cls-7{fill:#191919;}.cls-3{fill:none;stroke:#fff;stroke-linecap:round;stroke-linejoin:round;stroke-width:1.4px;}.cls-4{fill:#ebb225;}.cls-5{fill:#fff;}.cls-6{fill:#97b900;}.cls-7{font-size:4.43px;font-family:Avenir-Heavy, Avenir;font-weight:800;letter-spacing:0.2em;}</style></defs><g id="Layer_2" data-name="Layer 2"><g id="Layer_1-2" data-name="Layer 1"><path class="cls-1" d="M69.86,13.86h2.76V28.51H69.86Zm1.39,12h3.52a3.1,3.1,0,0,0,2.1-.65,2.35,2.35,0,0,0,.75-1.86V19a2.31,2.31,0,0,0-.75-1.85,3.06,3.06,0,0,0-2.1-.66H71.25V13.86h3.46a7.28,7.28,0,0,1,3.13.62,4.29,4.29,0,0,1,2,1.79,5.6,5.6,0,0,1,.67,2.84v4.15A5.52,5.52,0,0,1,79.83,26a4.41,4.41,0,0,1-2,1.84,7.09,7.09,0,0,1-3.18.65H71.25Z"/><path class="cls-1" d="M85.65,28a4.63,4.63,0,0,1-1.88-1.89,5.79,5.79,0,0,1-.67-2.84V19.11a5.81,5.81,0,0,1,.67-2.84,4.69,4.69,0,0,1,1.88-1.89,6.21,6.21,0,0,1,5.61,0,4.75,4.75,0,0,1,1.88,1.89,5.92,5.92,0,0,1,.66,2.84v4.15a5.9,5.9,0,0,1-.66,2.84A4.69,4.69,0,0,1,91.26,28a6.21,6.21,0,0,1-5.61,0Zm4.11-2.41a2.1,2.1,0,0,0,.87-.9,2.8,2.8,0,0,0,.31-1.35V19a2.8,2.8,0,0,0-.31-1.35,2.1,2.1,0,0,0-.87-.9,2.62,2.62,0,0,0-1.31-.32,2.65,2.65,0,0,0-1.31.32,2.22,2.22,0,0,0-.87.9A2.92,2.92,0,0,0,86,19v4.29a2.92,2.92,0,0,0,.31,1.35,2.22,2.22,0,0,0,.87.9,2.84,2.84,0,0,0,2.62,0Z"/><path class="cls-1" d="M98.86,28a4.18,4.18,0,0,1-1.81-1.86,6.41,6.41,0,0,1-.63-3v-4a6.44,6.44,0,0,1,.63-3,4.3,4.3,0,0,1,1.81-1.87,5.92,5.92,0,0,1,2.86-.64,5.12,5.12,0,0,1,2.47.59A4.88,4.88,0,0,1,106,16a7.35,7.35,0,0,1,1,2.74h-2.86a3.58,3.58,0,0,0-.5-1.24,2.35,2.35,0,0,0-.81-.79,2.16,2.16,0,0,0-1.08-.27,2.63,2.63,0,0,0-1.32.32,2.07,2.07,0,0,0-.83.92,3.47,3.47,0,0,0-.28,1.47v4a3.4,3.4,0,0,0,.28,1.46,2,2,0,0,0,.83.92,2.53,2.53,0,0,0,1.32.32,2.15,2.15,0,0,0,1.91-1,3.57,3.57,0,0,0,.48-1.24H107a7.55,7.55,0,0,1-1,2.73,4.85,4.85,0,0,1-1.79,1.73,5,5,0,0,1-2.47.59A5.92,5.92,0,0,1,98.86,28Z"/><path class="cls-1" d="M109.49,13.86h2.76V28.51h-2.76Zm1,0h8.82v2.66h-8.82Zm0,6.05h7.71v2.66h-7.71Zm0,5.94h8.82v2.66h-8.82Z"/><path class="cls-1" d="M121.83,13.86h3.37l5.46,11.23-.25.26V13.86h2.64V28.5h-3.39l-5.43-11,.24-.26V28.5h-2.64Z"/><path class="cls-1" d="M134.26,13.86H145v2.66H134.26Zm4,1.2H141V28.51h-2.76Z"/><path class="cls-1" d="M148.87,28.51H146V13.86h2.86Z"/><path class="cls-1" d="M165.84,20.32v2.86a6.06,6.06,0,0,1-.66,2.88A4.62,4.62,0,0,1,163.31,28a5.51,5.51,0,0,1-2.8.68,6,6,0,0,1-2.82-.64,4.55,4.55,0,0,1-1.9-1.81,5.39,5.39,0,0,1-.67-2.71V19.18a6,6,0,0,1,.66-2.87,4.68,4.68,0,0,1,1.87-1.92,5.66,5.66,0,0,1,2.8-.68,5.44,5.44,0,0,1,2.42.54,5,5,0,0,1,1.85,1.53,5.54,5.54,0,0,1,1,2.28h-3a2,2,0,0,0-.5-.8,2.28,2.28,0,0,0-.81-.51,2.74,2.74,0,0,0-1-.18,2.57,2.57,0,0,0-1.29.32,2.27,2.27,0,0,0-.87.92,3,3,0,0,0-.31,1.37V23.5a2.3,2.3,0,0,0,.32,1.21,2,2,0,0,0,.88.81,3,3,0,0,0,1.33.28,2.62,2.62,0,0,0,1.31-.31,2.06,2.06,0,0,0,.86-.89,3,3,0,0,0,.3-1.38V23h-2.21V20.32Z"/><path class="cls-1" d="M168.77,13.86h2.76V28.51h-2.76Zm1.23,12h8.58v2.66H170Z"/><path class="cls-1" d="M182.84,28A4.63,4.63,0,0,1,181,26.1a5.9,5.9,0,0,1-.67-2.84V19.11a5.93,5.93,0,0,1,.67-2.84,4.69,4.69,0,0,1,1.88-1.89,6.21,6.21,0,0,1,5.61,0,4.69,4.69,0,0,1,1.88,1.89,5.93,5.93,0,0,1,.67,2.84v4.15a5.9,5.9,0,0,1-.67,2.84A4.63,4.63,0,0,1,188.45,28a6.21,6.21,0,0,1-5.61,0ZM187,25.58a2.22,2.22,0,0,0,.87-.9,2.92,2.92,0,0,0,.3-1.35V19a2.92,2.92,0,0,0-.3-1.35,2.22,2.22,0,0,0-.87-.9,2.67,2.67,0,0,0-1.31-.32,2.62,2.62,0,0,0-1.31.32,2.18,2.18,0,0,0-.88.9,2.92,2.92,0,0,0-.3,1.35v4.29a2.92,2.92,0,0,0,.3,1.35,2.18,2.18,0,0,0,.88.9,2.52,2.52,0,0,0,1.31.32A2.57,2.57,0,0,0,187,25.58Z"/><path class="cls-1" d="M193.92,13.86h2.76V28.51h-2.76Zm1.21,12h4.67a2.12,2.12,0,0,0,1.47-.46,1.6,1.6,0,0,0,.52-1.28v0a1.88,1.88,0,0,0-.23-.95,1.53,1.53,0,0,0-.68-.6,2.54,2.54,0,0,0-1.08-.21h-4.67V19.66h4.67a1.88,1.88,0,0,0,1.33-.43A1.58,1.58,0,0,0,201.6,18a1.38,1.38,0,0,0-.47-1.1,2,2,0,0,0-1.33-.39h-4.67V13.86h4.76a5.75,5.75,0,0,1,2.43.47,3.24,3.24,0,0,1,1.53,1.36,4.14,4.14,0,0,1,.53,2.14,3.24,3.24,0,0,1-.34,1.52,2.74,2.74,0,0,1-1,1.08,4,4,0,0,1-1.55.57,4,4,0,0,1,1.65.59,3,3,0,0,1,1.05,1.2,3.83,3.83,0,0,1,.36,1.7v0a4.22,4.22,0,0,1-.53,2.16A3.36,3.36,0,0,1,202.5,28a5.67,5.67,0,0,1-2.43.47h-4.94Z"/><path class="cls-1" d="M211.43,13.86h1.76l5.6,14.65h-3l-3.51-10-3.51,10h-3Zm-2.91,9.64h7.71v2.66h-7.71Z"/><path class="cls-1" d="M220.6,13.86h2.76V28.51H220.6Zm1.23,12h8.59v2.66h-8.59Z"/><path class="cls-2" d="M74.55,39.4a2,2,0,0,1-.23,1,1.9,1.9,0,0,1-.62.64,2.94,2.94,0,0,1-.87.35,4.78,4.78,0,0,1-1,.1H69V34.34h2.85a4.11,4.11,0,0,1,.84.08,2.86,2.86,0,0,1,.79.29,1.7,1.7,0,0,1,.57.56,1.67,1.67,0,0,1,.22.9,1.45,1.45,0,0,1-.32,1,1.76,1.76,0,0,1-.84.56v0a2.25,2.25,0,0,1,.57.19,1.56,1.56,0,0,1,.46.35,1.63,1.63,0,0,1,.43,1.13Zm-2-3a.57.57,0,0,0-.28-.53,1.6,1.6,0,0,0-.82-.16h-.84v1.47h.92a1.27,1.27,0,0,0,.76-.2A.68.68,0,0,0,72.59,36.4Zm.23,2.83a.63.63,0,0,0-.33-.61,1.88,1.88,0,0,0-.89-.17h-.95v1.63h1a3,3,0,0,0,.42,0,1.57,1.57,0,0,0,.4-.13.77.77,0,0,0,.28-.26A.71.71,0,0,0,72.82,39.23Z"/><path class="cls-2" d="M85.55,40a2.54,2.54,0,0,1-.62.91,2.87,2.87,0,0,1-1,.59,3.68,3.68,0,0,1-1.27.21,3.64,3.64,0,0,1-1.27-.21,2.82,2.82,0,0,1-1-.59,2.49,2.49,0,0,1-.6-.91,3.13,3.13,0,0,1-.21-1.17V34.34h1.71v4.3a2,2,0,0,0,.08.55,1.29,1.29,0,0,0,.23.47,1,1,0,0,0,.41.33,1.66,1.66,0,0,0,1.24,0,1.14,1.14,0,0,0,.42-.33,1.29,1.29,0,0,0,.23-.47,2,2,0,0,0,.07-.55v-4.3h1.73v4.44A3.13,3.13,0,0,1,85.55,40Z"/><path class="cls-2" d="M95,36.19a1.54,1.54,0,0,0-.58-.45,1.67,1.67,0,0,0-.69-.17,2.09,2.09,0,0,0-.35,0,.87.87,0,0,0-.32.11.8.8,0,0,0-.23.22.67.67,0,0,0,0,.65.67.67,0,0,0,.23.21,1.79,1.79,0,0,0,.34.17l.46.16.75.26a2.93,2.93,0,0,1,.72.39,2,2,0,0,1,.53.6,1.75,1.75,0,0,1,.22.89,2.38,2.38,0,0,1-.23,1.07,2.2,2.2,0,0,1-.61.74,2.67,2.67,0,0,1-.88.43,3.49,3.49,0,0,1-1,.14,4.39,4.39,0,0,1-1.48-.26,3.18,3.18,0,0,1-1.19-.77l1.13-1.14a2.37,2.37,0,0,0,.69.54,1.94,1.94,0,0,0,.85.21,1.58,1.58,0,0,0,.38,0,1,1,0,0,0,.31-.13.64.64,0,0,0,.22-.24.8.8,0,0,0,.08-.36.58.58,0,0,0-.1-.35.91.91,0,0,0-.29-.25,2.48,2.48,0,0,0-.46-.22l-.63-.2c-.23-.08-.45-.16-.67-.26a2.63,2.63,0,0,1-.59-.39,1.9,1.9,0,0,1-.41-.58,2,2,0,0,1-.15-.82,2.05,2.05,0,0,1,.24-1,2.09,2.09,0,0,1,.63-.69,2.67,2.67,0,0,1,.89-.4,4.22,4.22,0,0,1,1-.13,3.65,3.65,0,0,1,1.23.23,3.1,3.1,0,0,1,1.11.65Z"/><path class="cls-2" d="M101.18,41.47V34.34h1.73v7.13Z"/><path class="cls-2" d="M113,41.47l-2.87-4.67h0l0,4.67h-1.68V34.34h2L113.24,39h0l0-4.65h1.67v7.13Z"/><path class="cls-2" d="M120.41,41.47V34.34h4.79v1.45h-3.13v1.35h3v1.38h-3V40h3.32v1.47Z"/><path class="cls-2" d="M134.33,36.19a1.62,1.62,0,0,0-.58-.45,1.67,1.67,0,0,0-.69-.17,2,2,0,0,0-.35,0,.81.81,0,0,0-.32.11,1,1,0,0,0-.24.22.63.63,0,0,0-.09.35.56.56,0,0,0,.07.3.74.74,0,0,0,.22.21,2.28,2.28,0,0,0,.35.17l.46.16.75.26a3.13,3.13,0,0,1,.72.39,2,2,0,0,1,.53.6,1.75,1.75,0,0,1,.21.89,2.38,2.38,0,0,1-.22,1.07,2.2,2.2,0,0,1-.61.74,2.67,2.67,0,0,1-.88.43,3.49,3.49,0,0,1-1,.14,4.39,4.39,0,0,1-1.48-.26,3.18,3.18,0,0,1-1.19-.77l1.13-1.14a2.13,2.13,0,0,0,.69.54,1.94,1.94,0,0,0,.85.21,1.5,1.5,0,0,0,.37,0,.93.93,0,0,0,.32-.13.64.64,0,0,0,.22-.24.8.8,0,0,0,.08-.36.58.58,0,0,0-.1-.35.91.91,0,0,0-.29-.25,2.48,2.48,0,0,0-.46-.22l-.63-.2c-.23-.08-.45-.16-.67-.26a2.42,2.42,0,0,1-.59-.39,1.74,1.74,0,0,1-.41-.58,2,2,0,0,1-.16-.82,2,2,0,0,1,.25-1,2.09,2.09,0,0,1,.63-.69,2.67,2.67,0,0,1,.89-.4,4.22,4.22,0,0,1,1-.13,3.65,3.65,0,0,1,1.23.23,3,3,0,0,1,1.1.65Z"/><path class="cls-2" d="M144.31,36.19a1.46,1.46,0,0,0-.58-.45,1.59,1.59,0,0,0-.69-.17,2,2,0,0,0-.34,0,.81.81,0,0,0-.32.11.73.73,0,0,0-.24.22.63.63,0,0,0-.09.35.56.56,0,0,0,.07.3.74.74,0,0,0,.22.21,2.28,2.28,0,0,0,.35.17l.45.16.76.26a3.13,3.13,0,0,1,.72.39,2,2,0,0,1,.53.6,1.75,1.75,0,0,1,.21.89,2.25,2.25,0,0,1-.23,1.07,2.09,2.09,0,0,1-.61.74,2.53,2.53,0,0,1-.87.43,3.49,3.49,0,0,1-1,.14,4.39,4.39,0,0,1-1.48-.26,3.11,3.11,0,0,1-1.19-.77l1.13-1.14a2.13,2.13,0,0,0,.69.54,1.9,1.9,0,0,0,.85.21,1.5,1.5,0,0,0,.37,0,1,1,0,0,0,.32-.13.73.73,0,0,0,.22-.24.8.8,0,0,0,.08-.36.65.65,0,0,0-.1-.35,1,1,0,0,0-.29-.25,2.48,2.48,0,0,0-.46-.22l-.63-.2a6.66,6.66,0,0,1-.67-.26,2.42,2.42,0,0,1-.59-.39,1.74,1.74,0,0,1-.41-.58,1.85,1.85,0,0,1-.16-.82,2.05,2.05,0,0,1,.24-1,2.23,2.23,0,0,1,.64-.69,2.67,2.67,0,0,1,.89-.4,4.14,4.14,0,0,1,1-.13,3.67,3.67,0,0,1,1.24.23,3,3,0,0,1,1.1.65Z"/><path class="cls-2" d="M160.85,36.19a1.54,1.54,0,0,0-.58-.45,1.67,1.67,0,0,0-.69-.17,2.21,2.21,0,0,0-.35,0,.82.82,0,0,0-.31.11.73.73,0,0,0-.24.22.63.63,0,0,0-.1.35.56.56,0,0,0,.08.3.64.64,0,0,0,.22.21,2.28,2.28,0,0,0,.35.17l.45.16.76.26a2.87,2.87,0,0,1,.71.39,1.94,1.94,0,0,1,.54.6,1.75,1.75,0,0,1,.21.89,2.25,2.25,0,0,1-.23,1.07,2.09,2.09,0,0,1-.61.74,2.53,2.53,0,0,1-.87.43,3.49,3.49,0,0,1-1,.14,4.35,4.35,0,0,1-1.48-.26,3.11,3.11,0,0,1-1.19-.77l1.13-1.14a2.13,2.13,0,0,0,.69.54,1.9,1.9,0,0,0,.85.21,1.5,1.5,0,0,0,.37,0,1,1,0,0,0,.32-.13.73.73,0,0,0,.22-.24.8.8,0,0,0,.08-.36.65.65,0,0,0-.1-.35,1,1,0,0,0-.29-.25,2.83,2.83,0,0,0-.46-.22l-.63-.2a6.66,6.66,0,0,1-.67-.26,2.42,2.42,0,0,1-.59-.39,1.74,1.74,0,0,1-.41-.58,1.85,1.85,0,0,1-.16-.82,2.05,2.05,0,0,1,.24-1,2.12,2.12,0,0,1,.64-.69,2.71,2.71,0,0,1,.88-.4,4.29,4.29,0,0,1,1-.13,3.67,3.67,0,0,1,1.24.23A3,3,0,0,1,162,35Z"/><path class="cls-2" d="M172.18,41.35a3.84,3.84,0,0,1-1.6.31,4.24,4.24,0,0,1-1.53-.27,3.56,3.56,0,0,1-2-2,4.06,4.06,0,0,1-.29-1.54,3.86,3.86,0,0,1,.3-1.55,3.3,3.3,0,0,1,.82-1.18,3.51,3.51,0,0,1,1.23-.75,4.19,4.19,0,0,1,1.52-.27,4.31,4.31,0,0,1,1.49.27,2.91,2.91,0,0,1,1.18.78l-1.17,1.17a1.46,1.46,0,0,0-.63-.49,2.13,2.13,0,0,0-.81-.16,2,2,0,0,0-.83.16,2,2,0,0,0-.65.46,2.43,2.43,0,0,0-.43.69,2.49,2.49,0,0,0-.15.87,2.52,2.52,0,0,0,.15.89,2.16,2.16,0,0,0,.42.69,2,2,0,0,0,.64.45,2.15,2.15,0,0,0,1.72,0,1.83,1.83,0,0,0,.61-.52l1.2,1.12A3.51,3.51,0,0,1,172.18,41.35Z"/><path class="cls-2" d="M182.62,41.47v-3h-2.78v3h-1.72V34.34h1.72V37h2.78v-2.7h1.73v7.13Z"/><path class="cls-2" d="M197.29,37.87a4.08,4.08,0,0,1-.29,1.55,3.55,3.55,0,0,1-2.05,2,4.39,4.39,0,0,1-1.55.27,4.31,4.31,0,0,1-1.55-.27,3.71,3.71,0,0,1-1.23-.77,3.35,3.35,0,0,1-.81-1.2,3.89,3.89,0,0,1-.29-1.55,3.81,3.81,0,0,1,.29-1.54,3.27,3.27,0,0,1,.81-1.18,3.64,3.64,0,0,1,1.23-.74,4.31,4.31,0,0,1,1.55-.27,4.39,4.39,0,0,1,1.55.27A3.43,3.43,0,0,1,197,36.33,4,4,0,0,1,197.29,37.87Zm-1.85,0a2.43,2.43,0,0,0-.15-.86,2,2,0,0,0-.42-.69,1.75,1.75,0,0,0-.64-.46,2,2,0,0,0-.83-.16,2,2,0,0,0-.83.16,1.84,1.84,0,0,0-.64.46,1.74,1.74,0,0,0-.42.69,2.43,2.43,0,0,0-.15.86,2.62,2.62,0,0,0,.15.9,2.14,2.14,0,0,0,.42.7,2,2,0,0,0,.64.45,2.09,2.09,0,0,0,1.65,0,2,2,0,0,0,.65-.45,2.14,2.14,0,0,0,.42-.7A2.62,2.62,0,0,0,195.44,37.87Z"/><path class="cls-2" d="M209.9,37.87a3.9,3.9,0,0,1-.3,1.55,3.35,3.35,0,0,1-.81,1.2,3.52,3.52,0,0,1-1.23.77,4.39,4.39,0,0,1-1.55.27,4.31,4.31,0,0,1-1.55-.27,3.71,3.71,0,0,1-1.23-.77,3.35,3.35,0,0,1-.81-1.2,3.89,3.89,0,0,1-.29-1.55,3.81,3.81,0,0,1,.29-1.54,3.27,3.27,0,0,1,.81-1.18,3.64,3.64,0,0,1,1.23-.74,4.31,4.31,0,0,1,1.55-.27,4.39,4.39,0,0,1,1.55.27,3.46,3.46,0,0,1,1.23.74,3.27,3.27,0,0,1,.81,1.18A3.81,3.81,0,0,1,209.9,37.87Zm-1.85,0a2.43,2.43,0,0,0-.15-.86,2,2,0,0,0-.42-.69,1.84,1.84,0,0,0-.64-.46,2,2,0,0,0-.83-.16,2,2,0,0,0-.83.16,2,2,0,0,0-.65.46,1.84,1.84,0,0,0-.41.69,2.43,2.43,0,0,0-.15.86,2.62,2.62,0,0,0,.15.9,2.14,2.14,0,0,0,.42.7,2,2,0,0,0,.64.45,2.09,2.09,0,0,0,1.65,0,2,2,0,0,0,.65-.45,2.14,2.14,0,0,0,.42-.7A2.62,2.62,0,0,0,208.05,37.87Z"/><path class="cls-2" d="M215.07,41.47V34.34h1.73V40h2.76v1.5Z"/><path class="cls-1" d="M47.77,4l-.07-.07a1.89,1.89,0,0,1-.34-.14h0S44.17,2.94,41.24,2A47.08,47.08,0,0,0,27.37,0c-.06,0-.12,0-.17,0H27A46.78,46.78,0,0,0,13.15,2.08C10.22,3,7,3.81,7,3.81H7L6.69,4H6.63A39.7,39.7,0,0,0,6,10.17H48.41A40.69,40.69,0,0,0,47.77,4Z"/><path class="cls-1" d="M27.09,56.8l.11-.28.1.28A50.54,50.54,0,0,0,47.12,25.87H7.27A50.61,50.61,0,0,0,27.09,56.8Z"/><path class="cls-3" d="M45.79,6.11,45.73,6l-.31-.16v0s-2.88-.76-5.53-1.57A42.13,42.13,0,0,0,27.35,2.36H27A42.19,42.19,0,0,0,14.5,4.24C11.85,5.05,9,5.81,9,5.81v0L8.66,6l-.06.12S2.67,35.78,27.1,53.75l.1-.27.09.27C51.72,35.78,45.79,6.11,45.79,6.11Z"/><polygon class="cls-4" points="53.38 24.73 1.02 24.73 2.52 18.11 1.02 11.48 53.38 11.48 51.55 18.11 53.38 24.73"/><path class="cls-4" d="M27.17,35.89a1.6,1.6,0,0,0-.35-.4,5.15,5.15,0,0,0-2.66-1.13,3.06,3.06,0,0,1,6.08,0,5,5,0,0,0-2.82,1.24A1.68,1.68,0,0,0,27.17,35.89Z"/><path class="cls-4" d="M22.15,31.76a.17.17,0,0,1,.12,0l1.92.76c.08,0,.1.07,0,.14a3.45,3.45,0,0,0-.25.41c0,.06,0,.09-.12,0l-1.72-1.36Z"/><path class="cls-4" d="M30.13,29.6a1.13,1.13,0,0,1-.1.31l-.7,1.74c0,.12,0,.12-.16.05a2.16,2.16,0,0,0-.39-.22c-.09,0-.09-.08,0-.15l1.11-1.41A2.42,2.42,0,0,1,30.13,29.6Z"/><path class="cls-4" d="M24.3,29.61l.38.49,1,1.23c.06.08,0,.11,0,.15a3.5,3.5,0,0,0-.42.24c-.05,0-.08,0-.11,0-.27-.67-.54-1.34-.8-2a.11.11,0,0,1,0-.05Z"/><path class="cls-4" d="M32.25,31.77a3.89,3.89,0,0,1-.39.32l-1.29,1c-.12.1-.11.1-.18,0s-.15-.26-.23-.39,0-.09,0-.12L31.66,32l.57-.22Z"/><path class="cls-4" d="M27.21,28.84c0,.18.05.33.08.49L27.53,31c0,.12,0,.12-.12.11a2,2,0,0,0-.42,0c-.11,0-.14,0-.12-.12.1-.68.2-1.36.29-2A.24.24,0,0,1,27.21,28.84Z"/><path class="cls-5" d="M9.63,15.34h1.12v6H9.63Zm.56,4.9h1.44a1.25,1.25,0,0,0,.86-.27,1,1,0,0,0,.31-.76V17.45a1,1,0,0,0-.31-.76,1.3,1.3,0,0,0-.86-.26H10.19V15.34h1.42a2.91,2.91,0,0,1,1.27.25,1.8,1.8,0,0,1,.81.73A2.38,2.38,0,0,1,14,17.49v1.69a2.27,2.27,0,0,1-.26,1.13,1.82,1.82,0,0,1-.8.75,2.84,2.84,0,0,1-1.3.26H10.19Z"/><path class="cls-5" d="M16.5,21.11a1.84,1.84,0,0,1-.77-.77,2.39,2.39,0,0,1-.27-1.16V17.49a2.39,2.39,0,0,1,.27-1.16,1.87,1.87,0,0,1,.77-.78,2.56,2.56,0,0,1,2.29,0,2,2,0,0,1,.77.78,2.39,2.39,0,0,1,.27,1.16v1.69a2.39,2.39,0,0,1-.27,1.16,2,2,0,0,1-.77.77,2.48,2.48,0,0,1-2.29,0Zm1.68-1a.89.89,0,0,0,.35-.37,1.09,1.09,0,0,0,.13-.55V17.46a1.13,1.13,0,0,0-.13-.56.81.81,0,0,0-.35-.36,1.08,1.08,0,0,0-.54-.13,1,1,0,0,0-.53.13.78.78,0,0,0-.36.36,1.25,1.25,0,0,0-.13.56v1.75a1.21,1.21,0,0,0,.13.55.86.86,0,0,0,.36.37,1,1,0,0,0,.53.13A1.08,1.08,0,0,0,18.18,20.13Z"/><path class="cls-5" d="M22.31,21.13a1.78,1.78,0,0,1-.74-.77,2.6,2.6,0,0,1-.25-1.2V17.51a2.6,2.6,0,0,1,.25-1.2,1.78,1.78,0,0,1,.74-.77,2.52,2.52,0,0,1,1.17-.26,2.07,2.07,0,0,1,1,.24,2,2,0,0,1,.74.71,3.24,3.24,0,0,1,.4,1.11H24.46a1.5,1.5,0,0,0-.2-.5,1,1,0,0,0-.34-.32.8.8,0,0,0-.44-.11,1,1,0,0,0-.54.13.87.87,0,0,0-.34.37,1.57,1.57,0,0,0-.11.6v1.65a1.48,1.48,0,0,0,.11.59.9.9,0,0,0,.34.38,1,1,0,0,0,.54.13.94.94,0,0,0,.45-.11.92.92,0,0,0,.33-.32,1.47,1.47,0,0,0,.2-.51h1.17a3,3,0,0,1-.41,1.12,1.88,1.88,0,0,1-.73.7,2,2,0,0,1-1,.25A2.52,2.52,0,0,1,22.31,21.13Z"/><path class="cls-5" d="M27.08,15.34h1.13v6H27.08Zm.41,0h3.6v1.09h-3.6Zm0,2.47h3.14V18.9H27.49Zm0,2.43h3.6v1.08h-3.6Z"/><path class="cls-5" d="M32.54,15.34h1.38l2.22,4.59L36,20V15.34h1.08v6H35.74l-2.22-4.51.1-.11v4.62H32.54Z"/><path class="cls-5" d="M38,15.34h4.39v1.09H38Zm1.63.49H40.8v5.49H39.67Z"/><path class="cls-5" d="M44.43,21.32H43.26v-6h1.17Z"/><g id="hfb8mP"><path class="cls-6" d="M21.36,36.44c0,1.8,0,3.6,0,5.41,0-.1,0-.21,0-.34V36.15A1.37,1.37,0,0,1,21.36,36.44Z"/><path class="cls-6" d="M24.42,42.73a9.75,9.75,0,0,0-2-.2H22A8.77,8.77,0,0,1,24.42,42.73Z"/><polygon class="cls-6" points="27.16 43.52 27.15 43.52 27.15 43.52 27.16 43.52"/><path class="cls-6" d="M27,42.89a.94.94,0,0,1,0,.25h0c0,.16-.15.19-.42,0a8.41,8.41,0,0,0-4.23-1c-.66,0-.66,0-.66-.67,0-2,0-4,0-5.93,0-.61,0-.68.49-.77h0l.17,0a6.23,6.23,0,0,1,1.27-.11,4.38,4.38,0,0,1,.51,0,4.57,4.57,0,0,1,2.45,1,1,1,0,0,1,.41.63h0a1.27,1.27,0,0,1,0,.28c0,.35,0,.7,0,1v.51c0,.38,0,.77,0,1.15v.35C27,40.79,27,41.84,27,42.89Z"/><polygon class="cls-6" points="27.16 43.52 27.15 43.52 27.15 43.52 27.16 43.52"/><path class="cls-6" d="M33,36.16c0,1.87,0,3.75,0,5.62,0,.06,0,.12,0,.17,0-1.85,0-3.69,0-5.54A1,1,0,0,1,33,36.16Z"/><path class="cls-6" d="M32.67,35.29v6.49c0,.3-.13.42-.42.41a8.59,8.59,0,0,0-4.6,1.05c-.22.12-.29,0-.3-.08h0a1.48,1.48,0,0,1,0-.21V37.72c0-.38,0-.75,0-1.13a1.49,1.49,0,0,1,0-.21.9.9,0,0,1,.3-.52,4.6,4.6,0,0,1,2.61-1.16,4.12,4.12,0,0,1,.51,0,6.27,6.27,0,0,1,1.41.15l.17,0A.39.39,0,0,1,32.67,35.29Z"/><path class="cls-6" d="M33.76,36.68v6.49c0,.66,0,.68-.68.68H28.91a1.06,1.06,0,0,0-.72.23,1.74,1.74,0,0,1-2,0,1.16,1.16,0,0,0-.77-.24c-1.41,0-2.81,0-4.22,0-.42,0-.57-.12-.57-.55,0-1.15,0-2.29,0-3.44V36.44c0-.25,0-.51.36-.51s.31.09.34.22h0a1.37,1.37,0,0,1,0,.29c0,1.8,0,3.6,0,5.41v.2c0,.39.09.5.49.48H22a8.77,8.77,0,0,1,2.4.21l.32.08.32.09a6.78,6.78,0,0,1,1.35.58.92.92,0,0,0,.44.14.45.45,0,0,0,.3-.1h0a.46.46,0,0,0,.32.13.74.74,0,0,0,.35-.11,8.09,8.09,0,0,1,4.12-1h.33l.14,0h.09c.43,0,.51-.11.51-.51V42c0-1.85,0-3.69,0-5.54a1,1,0,0,1,0-.25h0c0-.15.12-.24.36-.23s.33.08.35.29S33.76,36.53,33.76,36.68Z"/></g><path class="cls-1" d="M49.51,37.41a5.08,5.08,0,0,0,2.19,2.13,5.16,5.16,0,0,0-.32-3,5.19,5.19,0,0,0-2.2-2.14A5.14,5.14,0,0,0,49.51,37.41Z"/><path class="cls-1" d="M54.32,36.78a5.19,5.19,0,0,1-1.58,2.63,5.15,5.15,0,0,1-.46-3,5.13,5.13,0,0,1,1.58-2.62A5.1,5.1,0,0,1,54.32,36.78Z"/><path class="cls-1" d="M49.05,43.74a5.12,5.12,0,0,0,1.59,2.62,4.53,4.53,0,0,0-1.15-5.65A5.15,5.15,0,0,0,49.05,43.74Z"/><path class="cls-1" d="M53.86,44.34a5.2,5.2,0,0,1-2.18,2.15,4.52,4.52,0,0,1,2.49-5.2A5.14,5.14,0,0,1,53.86,44.34Z"/><path class="cls-1" d="M46.8,50.72a5.16,5.16,0,0,0,.87,2.93A4.52,4.52,0,0,0,48,47.9,5.15,5.15,0,0,0,46.8,50.72Z"/><path class="cls-1" d="M51.3,52.52A5.15,5.15,0,0,1,48.64,54a4.52,4.52,0,0,1,3.74-4.39A5.18,5.18,0,0,1,51.3,52.52Z"/><path class="cls-1" d="M42.4,55.33a5.19,5.19,0,0,0-.47,3,5.23,5.23,0,0,0,2.3-2,5.14,5.14,0,0,0,.46-3A5.1,5.1,0,0,0,42.4,55.33Z"/><path class="cls-1" d="M45.69,58.89a5.14,5.14,0,0,1-3,.23,4.51,4.51,0,0,1,5.26-2.36A5.12,5.12,0,0,1,45.69,58.89Z"/><path class="cls-1" d="M36.71,58.41a5.11,5.11,0,0,0-1.56,2.64A5.14,5.14,0,0,0,38,60a5.14,5.14,0,0,0,1.55-2.64A5.1,5.1,0,0,0,36.71,58.41Z"/><path class="cls-1" d="M38.45,62.94A5.1,5.1,0,0,1,35.53,62a5.14,5.14,0,0,1,2.83-1.16,5.13,5.13,0,0,1,2.92.91A5.12,5.12,0,0,1,38.45,62.94Z"/><path class="cls-1" d="M31.46,60a5.14,5.14,0,0,0-2.14,2.19,5.19,5.19,0,0,0,3-.32,5.14,5.14,0,0,0,2.13-2.2A5.11,5.11,0,0,0,31.46,60Z"/><path class="cls-1" d="M32.08,64.79a5.13,5.13,0,0,1-2.62-1.58,5.1,5.1,0,0,1,3-.46,5.19,5.19,0,0,1,2.63,1.58A5.15,5.15,0,0,1,32.08,64.79Z"/><path class="cls-1" d="M4.88,37.41a5.08,5.08,0,0,1-2.19,2.13,5.16,5.16,0,0,1,.32-3,5.19,5.19,0,0,1,2.2-2.14A5.14,5.14,0,0,1,4.88,37.41Z"/><path class="cls-1" d="M.07,36.78a5.19,5.19,0,0,0,1.58,2.63,5.15,5.15,0,0,0,.46-3A5.06,5.06,0,0,0,.53,33.76,5.1,5.1,0,0,0,.07,36.78Z"/><path class="cls-1" d="M5.35,43.74a5.17,5.17,0,0,1-1.6,2.62,5.13,5.13,0,0,1-.44-3A5.19,5.19,0,0,1,4.9,40.71,5.21,5.21,0,0,1,5.35,43.74Z"/><path class="cls-1" d="M.53,44.34a5.2,5.2,0,0,0,2.18,2.15,5.19,5.19,0,0,0-.3-3.05A5.2,5.2,0,0,0,.22,41.29,5.14,5.14,0,0,0,.53,44.34Z"/><path class="cls-1" d="M7.6,50.72a5.13,5.13,0,0,1-.88,2.93,5.15,5.15,0,0,1-1.2-2.82A5.1,5.1,0,0,1,6.4,47.9,5.15,5.15,0,0,1,7.6,50.72Z"/><path class="cls-1" d="M3.09,52.52A5.15,5.15,0,0,0,5.75,54a5.13,5.13,0,0,0-1.07-2.87A5.19,5.19,0,0,0,2,49.65,5.13,5.13,0,0,0,3.09,52.52Z"/><path class="cls-1" d="M12,55.33a5.1,5.1,0,0,1,.47,3,5.18,5.18,0,0,1-2.29-2,5.1,5.1,0,0,1-.47-3A5.1,5.1,0,0,1,12,55.33Z"/><path class="cls-1" d="M8.7,58.89a5.14,5.14,0,0,0,3.05.23A5.19,5.19,0,0,0,9.55,57a5.14,5.14,0,0,0-3.05-.23A5.13,5.13,0,0,0,8.7,58.89Z"/><path class="cls-1" d="M17.68,58.41a5.11,5.11,0,0,1,1.56,2.64,5.1,5.1,0,0,1-2.88-1,5.11,5.11,0,0,1-1.56-2.64A5.1,5.1,0,0,1,17.68,58.41Z"/><path class="cls-1" d="M15.94,62.94A5.1,5.1,0,0,0,18.86,62,5.14,5.14,0,0,0,16,60.86a5.13,5.13,0,0,0-2.92.91A5.12,5.12,0,0,0,15.94,62.94Z"/><path class="cls-1" d="M22.94,60a5.08,5.08,0,0,1,2.13,2.19,5.16,5.16,0,0,1-3-.32,5.19,5.19,0,0,1-2.14-2.2A5.14,5.14,0,0,1,22.94,60Z"/><path class="cls-1" d="M22.31,64.79a5.19,5.19,0,0,0,2.63-1.58,5.15,5.15,0,0,0-3-.46,5.13,5.13,0,0,0-2.62,1.58A5.1,5.1,0,0,0,22.31,64.79Z"/><text class="cls-7" transform="translate(68.25 51.28)">DEVELOPING GLOBAL BUSINESS LEADERS</text></g></g></svg>