<svg xmlns="http://www.w3.org/2000/svg" viewBox="0 0 231.66 211.7"><defs><style>.cls-1{fill:#97b900;}.cls-2{fill:none;stroke:#fff;stroke-linecap:round;stroke-linejoin:round;stroke-width:2.96px;}.cls-3{fill:#ebb225;}.cls-4,.cls-5{fill:#fff;}.cls-5{font-size:6.39px;font-family:Avenir-Black, Avenir;font-weight:800;letter-spacing:0.2em;}</style></defs><g id="Layer_2" data-name="Layer 2"><g id="Layer_1-2" data-name="Layer 1"><path class="cls-1" d="M160.84,8.45l-.14-.14A3.91,3.91,0,0,1,160,8h0s-6.75-1.77-13-3.67A99.31,99.31,0,0,0,117.64,0c-.12,0-.23.06-.35.06h-.36A99.27,99.27,0,0,0,87.55,4.4c-6.21,1.9-13,3.67-13,3.67v0l-.73.36h-.14a86.59,86.59,0,0,0-1.37,13.08h89.85A86.59,86.59,0,0,0,160.84,8.45Z" transform="translate(-2.33)"/><path class="cls-1" d="M117.06,120.27l.23-.6.22.58c26.07-19.18,37.38-44,42-65.48H75.1C79.68,76.24,91,101.09,117.06,120.27Z" transform="translate(-2.33)"/><path class="cls-2" d="M156.65,13l-.12-.26s-.23-.13-.67-.34l0,0S149.77,10.69,144.16,9a89.54,89.54,0,0,0-26.55-4H117A89.54,89.54,0,0,0,90.41,9c-5.61,1.72-11.72,3.34-11.72,3.34l0,0c-.44.21-.67.34-.67.34l-.12.26S65.36,75.76,117.08,113.81l.21-.57.2.57C169.21,75.76,156.65,13,156.65,13Z" transform="translate(-2.33)"/><polygon class="cls-3" points="170.39 52.35 59.53 52.35 62.72 38.33 59.53 24.31 170.39 24.31 166.53 38.33 170.39 52.35"/><path class="cls-4" d="M117.24,76a3.35,3.35,0,0,0-.76-.85,10.67,10.67,0,0,0-5.62-2.39,6.43,6.43,0,0,1,6.45-5.82,6.5,6.5,0,0,1,6.42,5.8,10.63,10.63,0,0,0-6,2.64A2.35,2.35,0,0,0,117.24,76Z" transform="translate(-2.33)"/><path class="cls-4" d="M106.59,67.24a.57.57,0,0,1,.27.06l4,1.61c.18.08.23.15.11.31a5.83,5.83,0,0,0-.51.87c-.07.13-.13.18-.26.08l-3.64-2.89S106.6,67.27,106.59,67.24Z" transform="translate(-2.33)"/><path class="cls-4" d="M123.5,62.67a2.69,2.69,0,0,1-.22.66c-.49,1.23-1,2.45-1.48,3.67-.11.27-.11.26-.34.11a6,6,0,0,0-.82-.46c-.18-.09-.19-.17-.07-.32l2.36-3A4.78,4.78,0,0,1,123.5,62.67Z" transform="translate(-2.33)"/><path class="cls-4" d="M111.15,62.7l.8,1c.69.87,1.37,1.75,2.06,2.61.13.16.09.23-.07.32s-.59.33-.88.5c-.11.07-.18.09-.24-.06-.56-1.42-1.13-2.84-1.7-4.26,0,0,0-.07,0-.1Z" transform="translate(-2.33)"/><path class="cls-4" d="M128,67.27c-.25.25-.55.45-.83.68l-2.72,2.14c-.25.2-.24.2-.39-.08s-.31-.55-.48-.81-.06-.21.09-.27l3.09-1.23,1.2-.48Z" transform="translate(-2.33)"/><path class="cls-4" d="M117.32,61.05l.16,1,.51,3.54c0,.25,0,.26-.25.24a5.28,5.28,0,0,0-.89,0c-.24,0-.29,0-.26-.25l.63-4.32A.43.43,0,0,1,117.32,61.05Z" transform="translate(-2.33)"/><path class="cls-4" d="M80.08,32.48h2.39V45.15H80.08Zm1.21,10.37h3a2.66,2.66,0,0,0,1.82-.57,2,2,0,0,0,.64-1.6V37a2,2,0,0,0-.64-1.6,2.66,2.66,0,0,0-1.82-.57h-3v-2.3h3A6.36,6.36,0,0,1,87,33a3.72,3.72,0,0,1,1.7,1.55A4.87,4.87,0,0,1,89.27,37v3.59A4.94,4.94,0,0,1,88.71,43,3.87,3.87,0,0,1,87,44.58a6,6,0,0,1-2.75.57h-3Z" transform="translate(-2.33)"/><path class="cls-4" d="M94.63,44.7A4,4,0,0,1,93,43.06a5.07,5.07,0,0,1-.57-2.45V37A5.07,5.07,0,0,1,93,34.57a4,4,0,0,1,1.63-1.64,5.36,5.36,0,0,1,4.85,0,4,4,0,0,1,1.63,1.64,5.07,5.07,0,0,1,.57,2.45v3.59a5.07,5.07,0,0,1-.57,2.45,4.08,4.08,0,0,1-1.63,1.64,5.36,5.36,0,0,1-4.85,0Zm3.56-2.08a2,2,0,0,0,.75-.78,2.46,2.46,0,0,0,.27-1.17V37a2.46,2.46,0,0,0-.27-1.17,1.88,1.88,0,0,0-.75-.78,2.34,2.34,0,0,0-1.14-.27,2.3,2.3,0,0,0-1.13.27,1.82,1.82,0,0,0-.75.78A2.46,2.46,0,0,0,94.9,37v3.71a2.46,2.46,0,0,0,.27,1.17,1.94,1.94,0,0,0,.75.78,2.3,2.3,0,0,0,1.13.27A2.34,2.34,0,0,0,98.19,42.62Z" transform="translate(-2.33)"/><path class="cls-4" d="M107,44.73a3.67,3.67,0,0,1-1.57-1.62,5.52,5.52,0,0,1-.54-2.55V37.08a5.59,5.59,0,0,1,.54-2.56A3.7,3.7,0,0,1,107,32.91a5,5,0,0,1,2.47-.56,4.42,4.42,0,0,1,2.14.51,4.12,4.12,0,0,1,1.55,1.5,6.29,6.29,0,0,1,.85,2.36h-2.47a3.24,3.24,0,0,0-.43-1.07,2.09,2.09,0,0,0-.71-.68,1.78,1.78,0,0,0-.93-.23,2.29,2.29,0,0,0-1.14.27,1.81,1.81,0,0,0-.72.8,3.06,3.06,0,0,0-.25,1.27v3.48a3,3,0,0,0,.25,1.26,1.87,1.87,0,0,0,.72.8,2.29,2.29,0,0,0,1.14.27,1.82,1.82,0,0,0,.94-.23,2,2,0,0,0,.71-.67,3.29,3.29,0,0,0,.42-1.08H114a6.46,6.46,0,0,1-.85,2.36,4.3,4.3,0,0,1-1.56,1.5,4.36,4.36,0,0,1-2.13.51A5.12,5.12,0,0,1,107,44.73Z" transform="translate(-2.33)"/><path class="cls-4" d="M117,32.48h2.39V45.15H117Zm.87,0h7.62v2.3H117.9Zm0,5.23h6.66V40H117.9Zm0,5.14h7.62v2.3H117.9Z" transform="translate(-2.33)"/><path class="cls-4" d="M128.59,32.48h2.92l4.72,9.71-.21.22V32.48h2.28V45.14h-2.93l-4.7-9.56.21-.23v9.79h-2.29Z" transform="translate(-2.33)"/><path class="cls-4" d="M140.24,32.48h9.29v2.3h-9.29Zm3.45,1h2.39V45.15h-2.39Z" transform="translate(-2.33)"/><path class="cls-4" d="M153.77,45.15h-2.48V32.48h2.48Z" transform="translate(-2.33)"/><g id="hfb8mP"><path class="cls-4" d="M104.93,77.15c0,3.82,0,7.64,0,11.45,0-.21,0-.44,0-.71q0-5.67,0-11.35A3,3,0,0,1,104.93,77.15Z" transform="translate(-2.33)"/><path class="cls-4" d="M111.4,90.46a21.76,21.76,0,0,0-4.24-.42h-.4a3,3,0,0,1-.44,0A20,20,0,0,1,111.4,90.46Z" transform="translate(-2.33)"/><path class="cls-4" d="M117.2,92.14h0Z" transform="translate(-2.33)"/><path class="cls-4" d="M116.91,90.8a2.7,2.7,0,0,1,0,.54h0c-.09.32-.32.39-.89.07a17.69,17.69,0,0,0-9-2.11c-1.4,0-1.4,0-1.4-1.42q0-6.28,0-12.57c0-1.28,0-1.42,1-1.62h0l.37-.07a13.82,13.82,0,0,1,2.69-.22,7.85,7.85,0,0,1,1.08.08A9.85,9.85,0,0,1,116,75.71a2.27,2.27,0,0,1,.86,1.34h0a2.23,2.23,0,0,1,.06.59c0,.74,0,1.47,0,2.21V81c0,.81,0,1.62,0,2.43v.75C116.9,86.36,116.89,88.58,116.91,90.8Z" transform="translate(-2.33)"/><path class="cls-4" d="M117.2,92.14h0Z" transform="translate(-2.33)"/><path class="cls-4" d="M129.61,76.56q0,5.94,0,11.9a2,2,0,0,1,0,.36c0-3.91,0-7.82,0-11.73A2.17,2.17,0,0,1,129.61,76.56Z" transform="translate(-2.33)"/><path class="cls-4" d="M128.88,74.72c0,4.57,0,9.16,0,13.74,0,.63-.28.88-.9.86a18.25,18.25,0,0,0-9.73,2.23c-.48.26-.61.1-.64-.17h0a2.16,2.16,0,0,1,0-.44c0-2.29,0-4.59,0-6.88V84c0-1,0-2,0-3V79.86c0-.79,0-1.58,0-2.38a2.17,2.17,0,0,1,0-.45,1.83,1.83,0,0,1,.63-1.1,9.81,9.81,0,0,1,5.52-2.46c.35,0,.72-.06,1.09-.06a13.4,13.4,0,0,1,3,.3l.36.08A.82.82,0,0,1,128.88,74.72Z" transform="translate(-2.33)"/><path class="cls-4" d="M131.18,77.66c0,4.58,0,9.17,0,13.75,0,1.4-.05,1.44-1.43,1.44-2.94,0-5.88,0-8.83,0a2.31,2.31,0,0,0-1.54.47,3.68,3.68,0,0,1-4.23,0,2.44,2.44,0,0,0-1.62-.5c-3,0-6,0-8.94,0-.89,0-1.22-.27-1.2-1.18,0-2.43,0-4.85,0-7.27V77.15c0-.53,0-1.08.75-1.08.49,0,.66.2.73.47h0a3,3,0,0,1,0,.61c0,3.82,0,7.64,0,11.45V89c0,.82.18,1.07,1,1l.36,0h0a20,20,0,0,1,5.08.44c.23.06.47.11.69.18s.45.11.67.19a14.26,14.26,0,0,1,2.86,1.23,2,2,0,0,0,.94.3,1,1,0,0,0,.63-.22h0a.91.91,0,0,0,.66.26,1.47,1.47,0,0,0,.75-.23A17.2,17.2,0,0,1,127.34,90l.69,0,.3,0h.18c.92.06,1.08-.23,1.07-1.06v-.16c0-3.91,0-7.82,0-11.73a2.17,2.17,0,0,1,.05-.53h0c.07-.31.27-.5.77-.48s.7.17.74.61S131.18,77.33,131.18,77.66Z" transform="translate(-2.33)"/></g><path class="cls-1" d="M2.33,154.79h4v21.14h-4Zm2,17.3H9.41a4.46,4.46,0,0,0,3-.94,3.41,3.41,0,0,0,1.07-2.68v-6.22a3.41,3.41,0,0,0-1.07-2.68,4.46,4.46,0,0,0-3-.94H4.33v-3.84h5a10.45,10.45,0,0,1,4.51.89,6.28,6.28,0,0,1,2.85,2.58,8.16,8.16,0,0,1,1,4.1v6a8.08,8.08,0,0,1-.94,4A6.39,6.39,0,0,1,13.9,175a10.12,10.12,0,0,1-4.59.94h-5Z" transform="translate(-2.33)"/><path class="cls-1" d="M25.1,175.18a6.66,6.66,0,0,1-2.71-2.73,8.44,8.44,0,0,1-1-4.09v-6a8.44,8.44,0,0,1,1-4.09,6.66,6.66,0,0,1,2.71-2.73,8.2,8.2,0,0,1,4-1,8.2,8.2,0,0,1,4.05,1,6.66,6.66,0,0,1,2.71,2.73,8.44,8.44,0,0,1,1,4.09v6a8.44,8.44,0,0,1-1,4.09,6.66,6.66,0,0,1-2.71,2.73,8.2,8.2,0,0,1-4.05,1A8.2,8.2,0,0,1,25.1,175.18ZM31,171.71a3.16,3.16,0,0,0,1.26-1.3,4.12,4.12,0,0,0,.44-1.95v-6.2a4.12,4.12,0,0,0-.44-1.95A3.16,3.16,0,0,0,31,159a4.19,4.19,0,0,0-3.78,0,3.22,3.22,0,0,0-1.26,1.3,4.24,4.24,0,0,0-.44,1.95v6.2a4.24,4.24,0,0,0,.44,1.95,3.22,3.22,0,0,0,1.26,1.3,4.19,4.19,0,0,0,3.78,0Z" transform="translate(-2.33)"/><path class="cls-1" d="M44.17,175.23a6.27,6.27,0,0,1-2.62-2.7,9.25,9.25,0,0,1-.9-4.26v-5.8a9.32,9.32,0,0,1,.9-4.27,6.27,6.27,0,0,1,2.62-2.7,8.57,8.57,0,0,1,4.13-.93,7.3,7.3,0,0,1,3.56.86,7,7,0,0,1,2.6,2.49,11,11,0,0,1,1.42,4H51.75a5.59,5.59,0,0,0-.72-1.79A3.52,3.52,0,0,0,49.85,159a3.1,3.1,0,0,0-1.55-.39,3.74,3.74,0,0,0-1.9.45,2.91,2.91,0,0,0-1.2,1.34,4.89,4.89,0,0,0-.42,2.12v5.8a4.87,4.87,0,0,0,.42,2.11,2.93,2.93,0,0,0,1.2,1.33,3.74,3.74,0,0,0,1.9.45,3.15,3.15,0,0,0,1.57-.38,3.26,3.26,0,0,0,1.18-1.13,5.25,5.25,0,0,0,.7-1.8h4.13a11,11,0,0,1-1.44,4,7,7,0,0,1-2.58,2.49,7.32,7.32,0,0,1-3.56.86A8.69,8.69,0,0,1,44.17,175.23Z" transform="translate(-2.33)"/><path class="cls-1" d="M59.51,154.79h4v21.14h-4Zm1.44,0H73.67v3.84H61Zm0,8.72H72.07v3.84H61Zm0,8.58H73.67v3.84H61Z" transform="translate(-2.33)"/><path class="cls-1" d="M77.31,154.79h4.87L90.05,171l-.35.37V154.79h3.81v21.13h-4.9L80.77,160l.35-.38v16.33H77.31Z" transform="translate(-2.33)"/><path class="cls-1" d="M95.25,154.79h15.5v3.84H95.25Zm5.76,1.73h4v19.41h-4Z" transform="translate(-2.33)"/><path class="cls-1" d="M116.33,175.93H112.2V154.79h4.13Z" transform="translate(-2.33)"/><path class="cls-1" d="M140.82,164.11v4.13a8.79,8.79,0,0,1-.95,4.15,6.82,6.82,0,0,1-2.7,2.78,8.14,8.14,0,0,1-4,1,8.76,8.76,0,0,1-4.08-.92,6.66,6.66,0,0,1-2.74-2.62,7.73,7.73,0,0,1-1-3.91v-6.23a8.79,8.79,0,0,1,1-4.15,6.73,6.73,0,0,1,2.7-2.77,8.14,8.14,0,0,1,4-1,7.87,7.87,0,0,1,3.49.78,7.3,7.3,0,0,1,2.67,2.2,8.08,8.08,0,0,1,1.44,3.3h-4.3a2.88,2.88,0,0,0-.72-1.15,3.31,3.31,0,0,0-1.18-.75,4.17,4.17,0,0,0-1.4-.25,3.68,3.68,0,0,0-1.87.47,3.19,3.19,0,0,0-1.25,1.32,4.19,4.19,0,0,0-.44,2v6.23a3.35,3.35,0,0,0,.45,1.75,3,3,0,0,0,1.28,1.16,4.31,4.31,0,0,0,1.92.41,3.92,3.92,0,0,0,1.88-.44,3,3,0,0,0,1.24-1.29,4.29,4.29,0,0,0,.44-2V168h-3.2v-3.84Z" transform="translate(-2.33)"/><path class="cls-1" d="M145,154.79h4v21.14h-4Zm1.78,17.3H159.2v3.84H146.81Z" transform="translate(-2.33)"/><path class="cls-1" d="M165.34,175.18a6.66,6.66,0,0,1-2.71-2.73,8.44,8.44,0,0,1-1-4.09v-6a8.44,8.44,0,0,1,1-4.09,6.66,6.66,0,0,1,2.71-2.73,8.94,8.94,0,0,1,8.1,0,6.66,6.66,0,0,1,2.71,2.73,8.44,8.44,0,0,1,1,4.09v6a8.44,8.44,0,0,1-1,4.09,6.66,6.66,0,0,1-2.71,2.73,8.94,8.94,0,0,1-8.1,0Zm5.94-3.47a3.22,3.22,0,0,0,1.26-1.3,4.24,4.24,0,0,0,.44-1.95v-6.2a4.24,4.24,0,0,0-.44-1.95,3.22,3.22,0,0,0-1.26-1.3,4.19,4.19,0,0,0-3.78,0,3.22,3.22,0,0,0-1.26,1.3,4.12,4.12,0,0,0-.44,1.95v6.2a4.12,4.12,0,0,0,.44,1.95,3.22,3.22,0,0,0,1.26,1.3,4.19,4.19,0,0,0,3.78,0Z" transform="translate(-2.33)"/><path class="cls-1" d="M181.33,154.79h4v21.14h-4Zm1.74,17.3h6.75a3.08,3.08,0,0,0,2.11-.66,2.34,2.34,0,0,0,.75-1.85v-.05a2.63,2.63,0,0,0-.33-1.36,2.19,2.19,0,0,0-1-.87,3.7,3.7,0,0,0-1.55-.3h-6.75v-3.84h6.75a2.7,2.7,0,0,0,1.91-.62,2.28,2.28,0,0,0,.68-1.76,1.94,1.94,0,0,0-.68-1.58,2.88,2.88,0,0,0-1.91-.57h-6.75v-3.84H190a8.28,8.28,0,0,1,3.5.68,4.82,4.82,0,0,1,2.21,2,6,6,0,0,1,.76,3.09,4.71,4.71,0,0,1-.49,2.19,4.08,4.08,0,0,1-1.42,1.56,5.74,5.74,0,0,1-2.24.83,5.58,5.58,0,0,1,2.4.85,4.32,4.32,0,0,1,1.51,1.72,5.63,5.63,0,0,1,.51,2.46v0a6,6,0,0,1-.76,3.11,4.86,4.86,0,0,1-2.22,2,8.36,8.36,0,0,1-3.51.68h-7.13Z" transform="translate(-2.33)"/><path class="cls-1" d="M206.6,154.79h2.53l8.08,21.14h-4.29l-5.06-14.44-5.06,14.44h-4.29Zm-4.21,13.91h11.13v3.84H202.39Z" transform="translate(-2.33)"/><path class="cls-1" d="M219.83,154.79h4v21.14h-4Zm1.77,17.3H234v3.84H221.6Z" transform="translate(-2.33)"/><path class="cls-4" d="M17.33,191.63a2.81,2.81,0,0,1-.33,1.42,2.61,2.61,0,0,1-.89.92,3.78,3.78,0,0,1-1.25.51,7,7,0,0,1-1.45.15H9.31v-10.3h4.1a6.46,6.46,0,0,1,1.22.12,3.64,3.64,0,0,1,1.13.43,2.24,2.24,0,0,1,1.15,2.1,2.16,2.16,0,0,1-.46,1.42,2.59,2.59,0,0,1-1.22.8v0a2.93,2.93,0,0,1,.82.27,2.55,2.55,0,0,1,.67.5,2.31,2.31,0,0,1,.45.72A2.38,2.38,0,0,1,17.33,191.63Zm-2.82-4.32a.81.81,0,0,0-.4-.76,2.31,2.31,0,0,0-1.18-.24H11.71v2.12H13a1.81,1.81,0,0,0,1.09-.28A1,1,0,0,0,14.51,187.31Zm.34,4.09a.92.92,0,0,0-.48-.89,2.89,2.89,0,0,0-1.28-.24H11.71v2.35H13.1a4.3,4.3,0,0,0,.61-.05,1.67,1.67,0,0,0,.56-.18,1.15,1.15,0,0,0,.42-.37A1.16,1.16,0,0,0,14.85,191.4Z" transform="translate(-2.33)"/><path class="cls-4" d="M33.21,192.44a3.74,3.74,0,0,1-.9,1.31,4,4,0,0,1-1.4.85,5.73,5.73,0,0,1-3.66,0,4,4,0,0,1-1.38-.85,3.67,3.67,0,0,1-.87-1.31,4.63,4.63,0,0,1-.31-1.7v-6.41h2.48v6.21a3,3,0,0,0,.1.8,2.28,2.28,0,0,0,.34.68,1.58,1.58,0,0,0,.6.47,2.41,2.41,0,0,0,1.78,0,1.69,1.69,0,0,0,.61-.47,2,2,0,0,0,.33-.68,3,3,0,0,0,.1-.8v-6.21h2.49v6.41A4.44,4.44,0,0,1,33.21,192.44Z" transform="translate(-2.33)"/><path class="cls-4" d="M46.78,187a2.25,2.25,0,0,0-.83-.65,2.4,2.4,0,0,0-1-.24,2.89,2.89,0,0,0-.5,0,1.41,1.41,0,0,0-.46.17,1.15,1.15,0,0,0-.34.32.87.87,0,0,0-.14.5.79.79,0,0,0,.43.74,2.59,2.59,0,0,0,.5.24c.2.08.41.15.66.23l1.09.38a4.12,4.12,0,0,1,1,.57,2.89,2.89,0,0,1,.77.86,2.51,2.51,0,0,1,.31,1.29A3.32,3.32,0,0,1,48,193a3.07,3.07,0,0,1-.88,1.07,3.87,3.87,0,0,1-1.27.63,5.49,5.49,0,0,1-1.47.2,6,6,0,0,1-2.13-.39,4.53,4.53,0,0,1-1.72-1.09l1.63-1.66a3,3,0,0,0,1,.78,2.66,2.66,0,0,0,1.22.31,2.35,2.35,0,0,0,.54-.06,1.27,1.27,0,0,0,.46-.19.88.88,0,0,0,.31-.35,1.05,1.05,0,0,0,.12-.52.84.84,0,0,0-.15-.5,1.5,1.5,0,0,0-.41-.37,3.26,3.26,0,0,0-.67-.3l-.91-.3a8,8,0,0,1-1-.38,3.06,3.06,0,0,1-.85-.56,2.5,2.5,0,0,1-.59-.83A2.79,2.79,0,0,1,41,187.3a2.84,2.84,0,0,1,1.27-2.47,3.65,3.65,0,0,1,1.28-.58,5.8,5.8,0,0,1,1.44-.18,5.45,5.45,0,0,1,1.78.32,4.72,4.72,0,0,1,1.59.94Z" transform="translate(-2.33)"/><path class="cls-4" d="M55.76,194.63v-10.3h2.5v10.3Z" transform="translate(-2.33)"/><path class="cls-4" d="M72.74,194.63l-4.14-6.74h0l.06,6.74H66.2v-10.3H69l4.13,6.72h0l-.06-6.72h2.41v10.3Z" transform="translate(-2.33)"/><path class="cls-4" d="M83.5,194.63v-10.3h6.93v2.1H85.9v1.94h4.28v2H85.9v2.13h4.79v2.13Z" transform="translate(-2.33)"/><path class="cls-4" d="M103.59,187a2.49,2.49,0,0,0-1.84-.89,2.89,2.89,0,0,0-.5,0,1.41,1.41,0,0,0-.46.17,1.15,1.15,0,0,0-.34.32.87.87,0,0,0-.14.5.84.84,0,0,0,.11.44.93.93,0,0,0,.32.3,2.59,2.59,0,0,0,.5.24c.2.08.42.15.66.23l1.09.38a4.12,4.12,0,0,1,1,.57,2.89,2.89,0,0,1,.77.86,2.42,2.42,0,0,1,.31,1.29,3.32,3.32,0,0,1-.33,1.53,3.07,3.07,0,0,1-.88,1.07,3.92,3.92,0,0,1-1.26.63,5.6,5.6,0,0,1-1.47.2A6,6,0,0,1,99,194.5a4.53,4.53,0,0,1-1.72-1.09l1.63-1.66a3.05,3.05,0,0,0,1,.78,2.67,2.67,0,0,0,1.23.31,2.48,2.48,0,0,0,.54-.06,1.3,1.3,0,0,0,.45-.19,1,1,0,0,0,.32-.35,1.17,1.17,0,0,0,.11-.52.92.92,0,0,0-.14-.5,1.73,1.73,0,0,0-.42-.37,3.26,3.26,0,0,0-.67-.3l-.91-.3a8.7,8.7,0,0,1-1-.38,3.06,3.06,0,0,1-.85-.56,2.66,2.66,0,0,1-.59-.83,2.79,2.79,0,0,1-.23-1.18,2.84,2.84,0,0,1,1.27-2.47,3.73,3.73,0,0,1,1.28-.58,5.8,5.8,0,0,1,1.44-.18,5.45,5.45,0,0,1,1.78.32,4.62,4.62,0,0,1,1.59.94Z" transform="translate(-2.33)"/><path class="cls-4" d="M118,187a2.29,2.29,0,0,0-.84-.65,2.32,2.32,0,0,0-1-.24,2.92,2.92,0,0,0-.51,0,1.28,1.28,0,0,0-.45.17,1.19,1.19,0,0,0-.35.32.87.87,0,0,0-.13.5.84.84,0,0,0,.1.44.93.93,0,0,0,.32.3,2.43,2.43,0,0,0,.51.24c.19.08.41.15.65.23l1.09.38a4.12,4.12,0,0,1,1,.57,2.89,2.89,0,0,1,.77.86,2.42,2.42,0,0,1,.31,1.29,3.32,3.32,0,0,1-.33,1.53,3.07,3.07,0,0,1-.88,1.07,3.92,3.92,0,0,1-1.26.63,5.6,5.6,0,0,1-1.47.2,6,6,0,0,1-2.14-.39,4.41,4.41,0,0,1-1.71-1.09l1.62-1.66a3.16,3.16,0,0,0,1,.78,2.67,2.67,0,0,0,1.23.31,2.48,2.48,0,0,0,.54-.06,1.3,1.3,0,0,0,.45-.19.9.9,0,0,0,.32-.35,1.05,1.05,0,0,0,.11-.52.84.84,0,0,0-.14-.5,1.73,1.73,0,0,0-.42-.37,3.41,3.41,0,0,0-.66-.3l-.91-.3a8.13,8.13,0,0,1-1-.38,2.87,2.87,0,0,1-.84-.56,2.53,2.53,0,0,1-.6-.83,2.79,2.79,0,0,1-.23-1.18,3,3,0,0,1,.35-1.47,3,3,0,0,1,.92-1,3.73,3.73,0,0,1,1.28-.58,5.8,5.8,0,0,1,1.44-.18,5.45,5.45,0,0,1,1.78.32,4.53,4.53,0,0,1,1.59.94Z" transform="translate(-2.33)"/><path class="cls-4" d="M141.86,187a2.21,2.21,0,0,0-.84-.65,2.32,2.32,0,0,0-1-.24,2.81,2.81,0,0,0-.5,0,1.33,1.33,0,0,0-.46.17,1,1,0,0,0-.34.32.87.87,0,0,0-.14.5.79.79,0,0,0,.43.74,2.59,2.59,0,0,0,.5.24c.19.08.41.15.65.23l1.1.38a4.31,4.31,0,0,1,1,.57,3,3,0,0,1,.77.86,2.51,2.51,0,0,1,.3,1.29,3.45,3.45,0,0,1-.32,1.53,3.07,3.07,0,0,1-.88,1.07,3.87,3.87,0,0,1-1.27.63,5.49,5.49,0,0,1-1.47.2,6,6,0,0,1-2.14-.39,4.49,4.49,0,0,1-1.71-1.09l1.63-1.66a3,3,0,0,0,1,.78,2.73,2.73,0,0,0,1.23.31,2.35,2.35,0,0,0,.54-.06,1.27,1.27,0,0,0,.46-.19,1,1,0,0,0,.31-.35,1.05,1.05,0,0,0,.12-.52.84.84,0,0,0-.15-.5,1.5,1.5,0,0,0-.41-.37,3.26,3.26,0,0,0-.67-.3l-.91-.3a8.85,8.85,0,0,1-1-.38,3.16,3.16,0,0,1-.84-.56,2.53,2.53,0,0,1-.6-.83,2.79,2.79,0,0,1-.22-1.18,2.86,2.86,0,0,1,.35-1.47,3,3,0,0,1,.91-1,3.82,3.82,0,0,1,1.28-.58,5.92,5.92,0,0,1,1.44-.18,5.4,5.4,0,0,1,1.78.32,4.67,4.67,0,0,1,1.6.94Z" transform="translate(-2.33)"/><path class="cls-4" d="M158.21,194.45a5.6,5.6,0,0,1-2.31.45,6.11,6.11,0,0,1-2.21-.39,5.07,5.07,0,0,1-2.91-2.83,5.51,5.51,0,0,1-.43-2.21,5.7,5.7,0,0,1,.43-2.24,5,5,0,0,1,1.19-1.71,5.32,5.32,0,0,1,1.77-1.09,6.31,6.31,0,0,1,2.2-.37,6.08,6.08,0,0,1,2.14.38,4,4,0,0,1,1.71,1.13l-1.68,1.68a2.16,2.16,0,0,0-.92-.71,3.15,3.15,0,0,0-1.16-.23,2.92,2.92,0,0,0-1.2.24,2.75,2.75,0,0,0-.94.66,2.89,2.89,0,0,0-.61,1,3.4,3.4,0,0,0-.22,1.26,3.46,3.46,0,0,0,.22,1.27,2.78,2.78,0,0,0,1.52,1.65,3.06,3.06,0,0,0,1.18.23,2.8,2.8,0,0,0,1.3-.29,2.51,2.51,0,0,0,.88-.76l1.73,1.63A4.8,4.8,0,0,1,158.21,194.45Z" transform="translate(-2.33)"/><path class="cls-4" d="M173.27,194.63v-4.31h-4v4.31h-2.49v-10.3h2.49v3.9h4v-3.9h2.49v10.3Z" transform="translate(-2.33)"/><path class="cls-4" d="M194.43,189.44a5.79,5.79,0,0,1-.42,2.23,5.09,5.09,0,0,1-1.17,1.73,5.16,5.16,0,0,1-1.78,1.11,6.31,6.31,0,0,1-2.24.39,6.18,6.18,0,0,1-2.23-.39,5.16,5.16,0,0,1-1.78-1.11,5.09,5.09,0,0,1-1.17-1.73,6.16,6.16,0,0,1,0-4.47,4.93,4.93,0,0,1,1.17-1.69,5.25,5.25,0,0,1,1.78-1.08,6.4,6.4,0,0,1,2.23-.37,6.54,6.54,0,0,1,2.24.37,5.25,5.25,0,0,1,1.78,1.08A4.93,4.93,0,0,1,194,187.2,5.73,5.73,0,0,1,194.43,189.44Zm-2.66,0a3.39,3.39,0,0,0-.22-1.25,2.87,2.87,0,0,0-.6-1,2.84,2.84,0,0,0-2.13-.9,2.84,2.84,0,0,0-1.19.24,3,3,0,0,0-.93.66,2.75,2.75,0,0,0-.61,1,3.6,3.6,0,0,0-.21,1.25,3.55,3.55,0,0,0,.22,1.28,3,3,0,0,0,.6,1,2.7,2.7,0,0,0,.93.67,2.84,2.84,0,0,0,1.19.24,2.91,2.91,0,0,0,1.19-.24,2.7,2.7,0,0,0,.93-.67,2.85,2.85,0,0,0,.61-1A3.55,3.55,0,0,0,191.77,189.44Z" transform="translate(-2.33)"/><path class="cls-4" d="M212.62,189.44a5.79,5.79,0,0,1-.42,2.23A5.09,5.09,0,0,1,211,193.4a5.16,5.16,0,0,1-1.78,1.11,6.6,6.6,0,0,1-4.47,0A5.12,5.12,0,0,1,203,193.4a5.26,5.26,0,0,1-1.18-1.73,6.16,6.16,0,0,1,0-4.47,5.09,5.09,0,0,1,1.18-1.69,5.2,5.2,0,0,1,1.77-1.08,6.94,6.94,0,0,1,4.47,0,5.25,5.25,0,0,1,1.78,1.08,4.93,4.93,0,0,1,1.17,1.69A5.73,5.73,0,0,1,212.62,189.44Zm-2.66,0a3.6,3.6,0,0,0-.21-1.25,3.05,3.05,0,0,0-.61-1,2.85,2.85,0,0,0-.93-.66,3.1,3.1,0,0,0-2.39,0,3,3,0,0,0-.93.66,3.05,3.05,0,0,0-.61,1,3.6,3.6,0,0,0-.21,1.25,3.78,3.78,0,0,0,.22,1.28,3,3,0,0,0,.61,1,2.57,2.57,0,0,0,.92.67,2.91,2.91,0,0,0,1.19.24,2.84,2.84,0,0,0,1.19-.24,2.7,2.7,0,0,0,.93-.67,2.87,2.87,0,0,0,.62-1A3.78,3.78,0,0,0,210,189.44Z" transform="translate(-2.33)"/><path class="cls-4" d="M220.08,194.63v-10.3h2.51v8.13h4v2.17Z" transform="translate(-2.33)"/><path class="cls-1" d="M164.53,79.2a10.85,10.85,0,0,0,4.65,4.52,10.89,10.89,0,0,0-.7-6.45,10.92,10.92,0,0,0-4.65-4.52A10.89,10.89,0,0,0,164.53,79.2Z" transform="translate(-2.33)"/><path class="cls-1" d="M174.71,77.88a10.86,10.86,0,0,1-3.34,5.55,10.89,10.89,0,0,1-1-6.41,10.92,10.92,0,0,1,3.35-5.55A10.86,10.86,0,0,1,174.71,77.88Z" transform="translate(-2.33)"/><path class="cls-1" d="M163.55,92.62a10.85,10.85,0,0,0,3.37,5.53,9.54,9.54,0,0,0-2.44-12A10.88,10.88,0,0,0,163.55,92.62Z" transform="translate(-2.33)"/><path class="cls-1" d="M173.74,93.88a10.86,10.86,0,0,1-4.62,4.54,9.53,9.53,0,0,1,5.27-11A10.84,10.84,0,0,1,173.74,93.88Z" transform="translate(-2.33)"/><path class="cls-1" d="M158.79,107.38a10.89,10.89,0,0,0,1.85,6.21,9.55,9.55,0,0,0,.69-12.17A10.8,10.8,0,0,0,158.79,107.38Z" transform="translate(-2.33)"/><path class="cls-1" d="M168.32,111.19a10.84,10.84,0,0,1-5.62,3.22,9.54,9.54,0,0,1,7.9-9.29A10.83,10.83,0,0,1,168.32,111.19Z" transform="translate(-2.33)"/><path class="cls-1" d="M149.48,117.15a10.88,10.88,0,0,0-1,6.41,9.55,9.55,0,0,0,5.85-10.71A10.85,10.85,0,0,0,149.48,117.15Z" transform="translate(-2.33)"/><path class="cls-1" d="M156.45,124.69a10.87,10.87,0,0,1-6.46.49,9.54,9.54,0,0,1,11.12-5A10.9,10.9,0,0,1,156.45,124.69Z" transform="translate(-2.33)"/><path class="cls-1" d="M137.43,123.67a10.84,10.84,0,0,0-3.3,5.58,9.53,9.53,0,0,0,9.4-7.78A10.89,10.89,0,0,0,137.43,123.67Z" transform="translate(-2.33)"/><path class="cls-1" d="M141.12,133.26a10.91,10.91,0,0,1-6.19-1.94,9.56,9.56,0,0,1,12.18-.53A10.89,10.89,0,0,1,141.12,133.26Z" transform="translate(-2.33)"/><path class="cls-1" d="M126.31,127a10.91,10.91,0,0,0-4.52,4.65,9.54,9.54,0,0,0,11-5.34A10.9,10.9,0,0,0,126.31,127Z" transform="translate(-2.33)"/><path class="cls-1" d="M127.62,137.18a10.92,10.92,0,0,1-5.55-3.35,9.55,9.55,0,0,1,12,2.37A10.89,10.89,0,0,1,127.62,137.18Z" transform="translate(-2.33)"/><path class="cls-1" d="M70.05,79.2a10.91,10.91,0,0,1-4.65,4.52,10.85,10.85,0,0,1,.69-6.45,10.92,10.92,0,0,1,4.65-4.52A10.94,10.94,0,0,1,70.05,79.2Z" transform="translate(-2.33)"/><path class="cls-1" d="M59.86,77.88a10.86,10.86,0,0,0,3.34,5.55,10.89,10.89,0,0,0,1-6.41,10.84,10.84,0,0,0-3.35-5.55A10.86,10.86,0,0,0,59.86,77.88Z" transform="translate(-2.33)"/><path class="cls-1" d="M71,92.62a10.85,10.85,0,0,1-3.37,5.53,10.88,10.88,0,0,1-.94-6.41,10.88,10.88,0,0,1,3.38-5.54A10.88,10.88,0,0,1,71,92.62Z" transform="translate(-2.33)"/><path class="cls-1" d="M60.83,93.88a10.86,10.86,0,0,0,4.62,4.54,9.53,9.53,0,0,0-5.27-11A10.84,10.84,0,0,0,60.83,93.88Z" transform="translate(-2.33)"/><path class="cls-1" d="M75.79,107.38a11,11,0,0,1-1.86,6.21,9.55,9.55,0,0,1-.69-12.17A10.86,10.86,0,0,1,75.79,107.38Z" transform="translate(-2.33)"/><path class="cls-1" d="M66.25,111.19a10.85,10.85,0,0,0,5.63,3.22,10.94,10.94,0,0,0-2.28-6.07A10.93,10.93,0,0,0,64,105.12,10.92,10.92,0,0,0,66.25,111.19Z" transform="translate(-2.33)"/><path class="cls-1" d="M85.09,117.15a10.88,10.88,0,0,1,1,6.41,9.55,9.55,0,0,1-5.85-10.71A10.85,10.85,0,0,1,85.09,117.15Z" transform="translate(-2.33)"/><path class="cls-1" d="M78.12,124.69a10.87,10.87,0,0,0,6.46.49,10.9,10.9,0,0,0-4.66-4.51,10.87,10.87,0,0,0-6.46-.49A10.9,10.9,0,0,0,78.12,124.69Z" transform="translate(-2.33)"/><path class="cls-1" d="M97.14,123.67a10.84,10.84,0,0,1,3.3,5.58,9.55,9.55,0,0,1-9.4-7.78A10.89,10.89,0,0,1,97.14,123.67Z" transform="translate(-2.33)"/><path class="cls-1" d="M93.46,133.26a10.9,10.9,0,0,0,6.18-1.94,9.55,9.55,0,0,0-12.18-.53A10.89,10.89,0,0,0,93.46,133.26Z" transform="translate(-2.33)"/><path class="cls-1" d="M108.27,127a10.92,10.92,0,0,1,4.51,4.65,9.54,9.54,0,0,1-11-5.34A10.94,10.94,0,0,1,108.27,127Z" transform="translate(-2.33)"/><path class="cls-1" d="M107,137.18a10.92,10.92,0,0,0,5.55-3.35,9.55,9.55,0,0,0-12,2.37A10.89,10.89,0,0,0,107,137.18Z" transform="translate(-2.33)"/><text class="cls-5" transform="translate(26.82 208.78)">DEVELOPING GLOBAL BUSINESS LEADERS</text></g></g></svg>