<svg xmlns="http://www.w3.org/2000/svg" viewBox="0 0 174.77 147.04"><defs><style>.cls-1{fill:#007f35;}.cls-2{fill:none;stroke:#fff;stroke-linecap:round;stroke-linejoin:round;stroke-width:2.23px;}.cls-3{fill:#ebb225;}.cls-4{fill:#fff;}</style></defs><g id="Layer_2" data-name="Layer 2"><g id="Layer_1-2" data-name="Layer 1"><path class="cls-1" d="M121.34,6.37l-.1-.1a3.5,3.5,0,0,1-.56-.23h0s-5.1-1.34-9.78-2.78A75.29,75.29,0,0,0,88.75,0c-.09,0-.18.05-.27.05h-.27A74.84,74.84,0,0,0,66.05,3.32c-4.68,1.43-9.78,2.77-9.78,2.77v0l-.55.27h-.11a66.74,66.74,0,0,0-1,9.87h67.78A65.06,65.06,0,0,0,121.34,6.37Z" transform="translate(-1.75)"/><path class="cls-1" d="M88.31,90.74l.17-.46.17.44c19.67-14.47,28.2-33.2,31.66-49.4H56.65C60.12,57.52,68.65,76.27,88.31,90.74Z" transform="translate(-1.75)"/><path class="cls-2" d="M118.18,9.77l-.09-.2-.5-.25v0S113,8.06,108.76,6.77a67.53,67.53,0,0,0-20-3h-.49a67.48,67.48,0,0,0-20,3C64,8.06,59.37,9.29,59.37,9.29v0l-.5.25-.1.2S49.31,57.15,88.33,85.86l.15-.43.16.43C127.66,57.15,118.18,9.77,118.18,9.77Z" transform="translate(-1.75)"/><polygon class="cls-3" points="128.54 39.5 44.91 39.5 47.31 28.92 44.91 18.34 128.54 18.34 125.63 28.92 128.54 39.5"/><path class="cls-4" d="M88.45,57.33a2.6,2.6,0,0,0-.57-.64,8.12,8.12,0,0,0-4.25-1.8,4.88,4.88,0,0,1,9.71,0,8,8,0,0,0-4.5,2A1.87,1.87,0,0,0,88.45,57.33Z" transform="translate(-1.75)"/><path class="cls-4" d="M80.42,50.73a.42.42,0,0,1,.2,0L83.68,52c.13,0,.17.11.07.23a4.34,4.34,0,0,0-.38.66c-.05.09-.1.13-.19.06l-2.75-2.18Z" transform="translate(-1.75)"/><path class="cls-4" d="M93.17,47.28a1.63,1.63,0,0,1-.17.5c-.36.92-.74,1.85-1.11,2.77-.08.2-.08.2-.26.08a4.71,4.71,0,0,0-.62-.35c-.13-.06-.14-.13-.05-.24l1.78-2.25A3.76,3.76,0,0,1,93.17,47.28Z" transform="translate(-1.75)"/><path class="cls-4" d="M83.85,47.3l.61.77c.52.66,1,1.32,1.56,2,.09.13.06.18-.06.24s-.45.25-.66.38-.14.07-.18,0L83.83,47.4a.19.19,0,0,1,0-.08Z" transform="translate(-1.75)"/><path class="cls-4" d="M96.55,50.75a7.64,7.64,0,0,1-.62.51l-2.05,1.62c-.19.15-.19.15-.3-.06s-.23-.42-.36-.62,0-.15.06-.2c.78-.3,1.56-.62,2.33-.93l.92-.36Z" transform="translate(-1.75)"/><path class="cls-4" d="M88.51,46.06c0,.29.08.54.12.79.13.88.26,1.77.38,2.66,0,.19,0,.2-.18.19a3.86,3.86,0,0,0-.68,0c-.18,0-.21,0-.19-.19.16-1.08.31-2.17.47-3.25A.32.32,0,0,1,88.51,46.06Z" transform="translate(-1.75)"/><path class="cls-4" d="M60.42,24.5h1.8v9.56h-1.8Zm.9,7.83h2.3A2,2,0,0,0,65,31.9a1.5,1.5,0,0,0,.49-1.21V27.88A1.5,1.5,0,0,0,65,26.67a2,2,0,0,0-1.37-.43h-2.3V24.5h2.26a4.66,4.66,0,0,1,2,.41,2.82,2.82,0,0,1,1.29,1.17,3.7,3.7,0,0,1,.44,1.85v2.71a3.58,3.58,0,0,1-.43,1.8,2.9,2.9,0,0,1-1.27,1.2,4.67,4.67,0,0,1-2.08.42H61.32Z" transform="translate(-1.75)"/><path class="cls-4" d="M71.39,33.73a3.12,3.12,0,0,1-1.23-1.24,3.8,3.8,0,0,1-.43-1.85V27.93a3.8,3.8,0,0,1,.43-1.85,3.06,3.06,0,0,1,1.23-1.24,4.11,4.11,0,0,1,3.66,0,3.06,3.06,0,0,1,1.23,1.24,3.8,3.8,0,0,1,.43,1.85v2.71a3.8,3.8,0,0,1-.43,1.85,3.12,3.12,0,0,1-1.23,1.24,4.11,4.11,0,0,1-3.66,0Zm2.69-1.58a1.36,1.36,0,0,0,.56-.58,1.81,1.81,0,0,0,.2-.88V27.88a1.81,1.81,0,0,0-.2-.88,1.45,1.45,0,0,0-.56-.59,1.85,1.85,0,0,0-.86-.2,1.78,1.78,0,0,0-.85.2,1.41,1.41,0,0,0-.57.59,1.81,1.81,0,0,0-.2.88v2.81a1.81,1.81,0,0,0,.2.88,1.33,1.33,0,0,0,.57.58,1.67,1.67,0,0,0,.85.21A1.74,1.74,0,0,0,74.08,32.15Z" transform="translate(-1.75)"/><path class="cls-4" d="M80.69,33.74a2.73,2.73,0,0,1-1.19-1.21,4.23,4.23,0,0,1-.41-1.93V28a4.2,4.2,0,0,1,.41-1.93,2.75,2.75,0,0,1,1.19-1.22,3.82,3.82,0,0,1,1.86-.42,3.27,3.27,0,0,1,1.61.38,3.19,3.19,0,0,1,1.18,1.13A4.86,4.86,0,0,1,86,27.71H84.11a2.49,2.49,0,0,0-.32-.81,1.45,1.45,0,0,0-.54-.51,1.38,1.38,0,0,0-.7-.18,1.76,1.76,0,0,0-.86.2,1.29,1.29,0,0,0-.54.61A2.13,2.13,0,0,0,81,28V30.6a2.12,2.12,0,0,0,.19.95,1.22,1.22,0,0,0,.54.6,1.66,1.66,0,0,0,.86.21,1.49,1.49,0,0,0,.71-.17,1.52,1.52,0,0,0,.53-.51,2.42,2.42,0,0,0,.32-.82H86a5.12,5.12,0,0,1-.65,1.79,3.24,3.24,0,0,1-1.17,1.13,3.39,3.39,0,0,1-1.61.38A3.82,3.82,0,0,1,80.69,33.74Z" transform="translate(-1.75)"/><path class="cls-4" d="M88.29,24.5H90.1v9.56H88.29Zm.66,0H94.7v1.74H89Zm0,3.95h5v1.74H89Zm0,3.88H94.7v1.73H89Z" transform="translate(-1.75)"/><path class="cls-4" d="M97,24.5h2.2l3.55,7.33-.15.17V24.5h1.72v9.56h-2.22l-3.54-7.21.16-.18v7.39H97Z" transform="translate(-1.75)"/><path class="cls-4" d="M105.8,24.5h7v1.74h-7Zm2.61.79h1.8v8.77h-1.8Z" transform="translate(-1.75)"/><path class="cls-4" d="M116,34.06h-1.87V24.5H116Z" transform="translate(-1.75)"/><g id="hfb8mP"><path class="cls-4" d="M79.16,58.21c0,2.87,0,5.75,0,8.63,0-.16,0-.33,0-.53V57.75A2.27,2.27,0,0,1,79.16,58.21Z" transform="translate(-1.75)"/><path class="cls-4" d="M84,68.25a16.11,16.11,0,0,0-3.19-.32h-.64A14.39,14.39,0,0,1,84,68.25Z" transform="translate(-1.75)"/><path class="cls-4" d="M88.42,69.51h0Z" transform="translate(-1.75)"/><path class="cls-4" d="M88.2,68.51a1.59,1.59,0,0,1,0,.4h0c-.07.25-.24.3-.67.06a13.38,13.38,0,0,0-6.76-1.59c-1.06,0-1.06,0-1.06-1.08V56.83c0-1,0-1.08.8-1.23h0l.28-.05a10.1,10.1,0,0,1,2-.16,7.67,7.67,0,0,1,.82,0,7.47,7.47,0,0,1,3.91,1.68,1.68,1.68,0,0,1,.65,1h0a1.33,1.33,0,0,1,0,.45l0,1.67v.82c0,.61,0,1.22,0,1.84v.56C88.2,65.15,88.18,66.83,88.2,68.51Z" transform="translate(-1.75)"/><path class="cls-4" d="M88.42,69.51h0Z" transform="translate(-1.75)"/><path class="cls-4" d="M97.78,57.76q0,4.49,0,9a2.28,2.28,0,0,1,0,.27c0-3,0-5.9,0-8.85A1.63,1.63,0,0,1,97.78,57.76Z" transform="translate(-1.75)"/><path class="cls-4" d="M97.23,56.37q0,5.18,0,10.37c0,.47-.21.66-.68.65a13.65,13.65,0,0,0-7.34,1.68c-.36.2-.46.07-.49-.13h0c0-.11,0-.23,0-.34V60.25c0-.6,0-1.2,0-1.8a1.87,1.87,0,0,1,0-.34,1.37,1.37,0,0,1,.48-.83,7.32,7.32,0,0,1,4.16-1.85c.27,0,.54,0,.82,0a10.36,10.36,0,0,1,2.25.23l.27.06A.63.63,0,0,1,97.23,56.37Z" transform="translate(-1.75)"/><path class="cls-4" d="M99,58.59c0,3.46,0,6.91,0,10.37,0,1.06,0,1.09-1.07,1.09-2.22,0-4.44,0-6.67,0a1.73,1.73,0,0,0-1.15.36,2.8,2.8,0,0,1-3.2,0A1.79,1.79,0,0,0,85.65,70c-2.25,0-4.5,0-6.75,0-.66,0-.91-.2-.9-.89,0-1.83,0-3.65,0-5.48V58.21c0-.41,0-.82.56-.82.37,0,.5.15.55.35h0a2.27,2.27,0,0,1,0,.46c0,2.87,0,5.75,0,8.63v.33c0,.61.14.8.78.76h.28a14.39,14.39,0,0,1,3.83.33l.53.13.5.14a11.54,11.54,0,0,1,2.16.93,1.43,1.43,0,0,0,.71.23.72.72,0,0,0,.47-.16h0a.69.69,0,0,0,.5.2,1.11,1.11,0,0,0,.56-.18,13,13,0,0,1,6.59-1.61H97c.7,0,.82-.17.81-.8V67c0-3,0-5.9,0-8.85a1.63,1.63,0,0,1,0-.4h0c0-.23.2-.38.58-.36s.53.13.56.46S99,58.34,99,58.59Z" transform="translate(-1.75)"/></g><path class="cls-1" d="M1.75,116.78h3v15.95h-3Zm1.52,13.05H7.1a3.34,3.34,0,0,0,2.29-.71,2.54,2.54,0,0,0,.81-2v-4.69a2.54,2.54,0,0,0-.81-2,3.34,3.34,0,0,0-2.29-.71H3.27v-2.9H7a7.86,7.86,0,0,1,3.41.67,4.78,4.78,0,0,1,2.14,2,6.14,6.14,0,0,1,.74,3.09V127a6.17,6.17,0,0,1-.71,3,4.84,4.84,0,0,1-2.12,2,7.75,7.75,0,0,1-3.47.71H3.27Z" transform="translate(-1.75)"/><path class="cls-1" d="M18.94,132.16a5.08,5.08,0,0,1-2.05-2.06,6.41,6.41,0,0,1-.72-3.09v-4.52a6.37,6.37,0,0,1,.72-3.08,5.17,5.17,0,0,1,2.05-2.07,6.28,6.28,0,0,1,3-.73,6.29,6.29,0,0,1,3.06.73,5.08,5.08,0,0,1,2,2.07,6.26,6.26,0,0,1,.73,3.08V127a6.3,6.3,0,0,1-.73,3.09,5,5,0,0,1-2,2.06,6.18,6.18,0,0,1-3.06.73A6.17,6.17,0,0,1,18.94,132.16Zm4.48-2.62a2.36,2.36,0,0,0,.95-1,3.12,3.12,0,0,0,.33-1.47v-4.67a3.12,3.12,0,0,0-.33-1.47,2.3,2.3,0,0,0-.95-1,2.88,2.88,0,0,0-1.43-.35,2.85,2.85,0,0,0-1.42.35,2.3,2.3,0,0,0-.95,1,3.13,3.13,0,0,0-.34,1.47v4.67a3.13,3.13,0,0,0,.34,1.47,2.36,2.36,0,0,0,.95,1,2.85,2.85,0,0,0,1.42.35A2.88,2.88,0,0,0,23.42,129.54Z" transform="translate(-1.75)"/><path class="cls-1" d="M33.32,132.2a4.66,4.66,0,0,1-2-2,7.06,7.06,0,0,1-.68-3.22v-4.38a7.06,7.06,0,0,1,.68-3.22,4.66,4.66,0,0,1,2-2,6.48,6.48,0,0,1,3.12-.71,5.55,5.55,0,0,1,2.69.65,5.34,5.34,0,0,1,2,1.88,8.15,8.15,0,0,1,1.06,3H39a4.33,4.33,0,0,0-.54-1.35,2.57,2.57,0,0,0-.89-.85,2.32,2.32,0,0,0-1.17-.3A2.84,2.84,0,0,0,35,120a2.22,2.22,0,0,0-.9,1,3.67,3.67,0,0,0-.31,1.59V127a3.67,3.67,0,0,0,.31,1.59,2.25,2.25,0,0,0,.9,1,2.84,2.84,0,0,0,1.44.35,2.43,2.43,0,0,0,1.18-.29,2.49,2.49,0,0,0,.89-.85,4.07,4.07,0,0,0,.53-1.36h3.11a8,8,0,0,1-1.08,3,5.19,5.19,0,0,1-2,1.89,5.47,5.47,0,0,1-2.68.64A6.59,6.59,0,0,1,33.32,132.2Z" transform="translate(-1.75)"/><path class="cls-1" d="M44.9,116.78h3v15.95h-3Zm1.08,0h9.6v2.9H46Zm0,6.58h8.39v2.9H46Zm0,6.47h9.6v2.9H46Z" transform="translate(-1.75)"/><path class="cls-1" d="M58.32,116.78H62L67.93,129l-.26.28v-12.5h2.87v15.94H66.85l-5.92-12,.27-.29v12.32H58.32Z" transform="translate(-1.75)"/><path class="cls-1" d="M71.86,116.78H83.55v2.9H71.86Zm4.34,1.31h3v14.64h-3Z" transform="translate(-1.75)"/><path class="cls-1" d="M87.76,132.73H84.65V116.78h3.11Z" transform="translate(-1.75)"/><path class="cls-1" d="M106.24,123.81v3.12a6.6,6.6,0,0,1-.72,3.13,5.07,5.07,0,0,1-2,2.09,6,6,0,0,1-3,.74,6.58,6.58,0,0,1-3.07-.69,5,5,0,0,1-2.07-2,5.89,5.89,0,0,1-.72-2.95v-4.71a6.72,6.72,0,0,1,.71-3.13,5.11,5.11,0,0,1,2-2.08,6,6,0,0,1,3.05-.75,5.93,5.93,0,0,1,2.63.59,5.41,5.41,0,0,1,2,1.66,6.11,6.11,0,0,1,1.1,2.49h-3.25a2.2,2.2,0,0,0-.54-.87,2.74,2.74,0,0,0-.89-.56,3,3,0,0,0-1.06-.19,2.78,2.78,0,0,0-1.41.35,2.39,2.39,0,0,0-.94,1,3.12,3.12,0,0,0-.34,1.49v4.71a2.46,2.46,0,0,0,.34,1.31,2.24,2.24,0,0,0,1,.88,3.15,3.15,0,0,0,1.44.31,2.79,2.79,0,0,0,1.42-.34,2.2,2.2,0,0,0,.94-1,3.19,3.19,0,0,0,.33-1.5v-.26h-2.41v-2.9Z" transform="translate(-1.75)"/><path class="cls-1" d="M109.42,116.78h3v15.95h-3Zm1.34,13.05h9.34v2.9h-9.34Z" transform="translate(-1.75)"/><path class="cls-1" d="M124.74,132.16a5,5,0,0,1-2-2.06A6.41,6.41,0,0,1,122,127v-4.52a6.37,6.37,0,0,1,.72-3.08,5.11,5.11,0,0,1,2-2.07,6.76,6.76,0,0,1,6.11,0,5.08,5.08,0,0,1,2,2.07,6.26,6.26,0,0,1,.73,3.08V127a6.3,6.3,0,0,1-.73,3.09,5,5,0,0,1-2,2.06,6.76,6.76,0,0,1-6.11,0Zm4.48-2.62a2.42,2.42,0,0,0,.95-1,3.12,3.12,0,0,0,.33-1.47v-4.67a3.12,3.12,0,0,0-.33-1.47,2.36,2.36,0,0,0-.95-1,2.88,2.88,0,0,0-1.43-.35,2.82,2.82,0,0,0-1.42.35,2.3,2.3,0,0,0-1,1,3,3,0,0,0-.34,1.47v4.67a3,3,0,0,0,.34,1.47,2.36,2.36,0,0,0,1,1,2.82,2.82,0,0,0,1.42.35A2.88,2.88,0,0,0,129.22,129.54Z" transform="translate(-1.75)"/><path class="cls-1" d="M136.8,116.78h3v15.95h-3Zm1.31,13.05h5.09a2.31,2.31,0,0,0,1.6-.5,1.73,1.73,0,0,0,.56-1.39v0a2,2,0,0,0-.25-1,1.63,1.63,0,0,0-.74-.65,2.74,2.74,0,0,0-1.17-.23h-5.09V123.1h5.09a2.09,2.09,0,0,0,1.45-.47,1.73,1.73,0,0,0,.51-1.33,1.49,1.49,0,0,0-.51-1.2,2.24,2.24,0,0,0-1.45-.42h-5.09v-2.9h5.19a6.3,6.3,0,0,1,2.65.51,3.64,3.64,0,0,1,1.66,1.48,4.52,4.52,0,0,1,.57,2.33,3.64,3.64,0,0,1-.36,1.65,3.19,3.19,0,0,1-1.07,1.18,4.37,4.37,0,0,1-1.69.63,4.2,4.2,0,0,1,1.8.64,3.18,3.18,0,0,1,1.14,1.3,4.16,4.16,0,0,1,.39,1.85v0a4.56,4.56,0,0,1-.57,2.34,3.76,3.76,0,0,1-1.68,1.49,6.3,6.3,0,0,1-2.65.51h-5.38Z" transform="translate(-1.75)"/><path class="cls-1" d="M155.86,116.78h1.91l6.1,15.95h-3.24l-3.81-10.89L153,132.73h-3.24Zm-3.17,10.5h8.39v2.89h-8.39Z" transform="translate(-1.75)"/><path class="cls-1" d="M165.84,116.78h3v15.95h-3Zm1.34,13.05h9.35v2.9h-9.35Z" transform="translate(-1.75)"/><path class="cls-4" d="M13.08,144.57a2.14,2.14,0,0,1-.25,1.07,2,2,0,0,1-.67.7,3,3,0,0,1-.95.38,5,5,0,0,1-1.09.11H7v-7.76h3.1a4.94,4.94,0,0,1,.92.09,2.63,2.63,0,0,1,.85.32,1.75,1.75,0,0,1,.63.61,1.79,1.79,0,0,1,.24,1,1.62,1.62,0,0,1-.35,1.07,2,2,0,0,1-.92.61v0a2.27,2.27,0,0,1,.62.21,1.7,1.7,0,0,1,.5.38,1.74,1.74,0,0,1,.47,1.22ZM11,141.32a.62.62,0,0,0-.3-.58,1.78,1.78,0,0,0-.9-.18H8.83v1.6h1a1.38,1.38,0,0,0,.82-.21A.76.76,0,0,0,11,141.32Zm.25,3.08a.69.69,0,0,0-.36-.67,2.17,2.17,0,0,0-1-.19h-1v1.78H9.89a2.42,2.42,0,0,0,.45,0,1.44,1.44,0,0,0,.43-.13.78.78,0,0,0,.31-.29A.81.81,0,0,0,11.2,144.4Z" transform="translate(-1.75)"/><path class="cls-4" d="M25.05,145.18a2.63,2.63,0,0,1-.67,1,3.13,3.13,0,0,1-1.06.64,4.26,4.26,0,0,1-2.76,0,3,3,0,0,1-1-.64,2.61,2.61,0,0,1-.66-1,3.47,3.47,0,0,1-.23-1.28v-4.83h1.86v4.68a2.1,2.1,0,0,0,.09.61,1.38,1.38,0,0,0,.25.5,1.08,1.08,0,0,0,.45.36,1.54,1.54,0,0,0,.67.13,1.56,1.56,0,0,0,.68-.13,1.14,1.14,0,0,0,.45-.36,1.4,1.4,0,0,0,.26-.5,2.48,2.48,0,0,0,.07-.61v-4.68h1.88v4.83A3.28,3.28,0,0,1,25.05,145.18Z" transform="translate(-1.75)"/><path class="cls-4" d="M35.29,141.09a1.63,1.63,0,0,0-.63-.49,1.79,1.79,0,0,0-.75-.18l-.38,0a.83.83,0,0,0-.34.13.85.85,0,0,0-.26.24.62.62,0,0,0-.1.37.54.54,0,0,0,.08.33.59.59,0,0,0,.24.23,2.24,2.24,0,0,0,.38.19l.49.17c.27.08.54.18.82.29a2.66,2.66,0,0,1,.78.42,2.17,2.17,0,0,1,.59.65,1.93,1.93,0,0,1,.23,1,2.58,2.58,0,0,1-.25,1.16,2.5,2.5,0,0,1-.66.81,2.87,2.87,0,0,1-1,.47,4.13,4.13,0,0,1-1.11.15,4.45,4.45,0,0,1-1.61-.29,3.31,3.31,0,0,1-1.29-.83l1.22-1.25a2.18,2.18,0,0,0,.76.59,2,2,0,0,0,.92.23,1.84,1.84,0,0,0,.41,0,1.05,1.05,0,0,0,.34-.14.75.75,0,0,0,.24-.26.84.84,0,0,0,.09-.4.62.62,0,0,0-.11-.37,1.05,1.05,0,0,0-.31-.28,2.43,2.43,0,0,0-.51-.23l-.69-.23a6.3,6.3,0,0,1-.72-.28,2.32,2.32,0,0,1-.64-.43,1.87,1.87,0,0,1-.45-.62,2.17,2.17,0,0,1-.17-.89,2.22,2.22,0,0,1,.26-1.11,2.4,2.4,0,0,1,.69-.76,2.93,2.93,0,0,1,1-.43,4.46,4.46,0,0,1,1.09-.14,4.08,4.08,0,0,1,1.34.24,3.44,3.44,0,0,1,1.2.71Z" transform="translate(-1.75)"/><path class="cls-4" d="M42.06,146.83v-7.76H44v7.76Z" transform="translate(-1.75)"/><path class="cls-4" d="M54.88,146.83l-3.13-5.08h0l0,5.08H49.94v-7.76h2.14l3.12,5.07h0l0-5.07H57v7.76Z" transform="translate(-1.75)"/><path class="cls-4" d="M63,146.83v-7.76h5.22v1.58H64.81v1.47H68v1.5H64.81v1.61h3.61v1.6Z" transform="translate(-1.75)"/><path class="cls-4" d="M78.15,141.09a1.63,1.63,0,0,0-.63-.49,1.79,1.79,0,0,0-.75-.18,2.43,2.43,0,0,0-.38,0,.82.82,0,0,0-.35.13.85.85,0,0,0-.26.24.73.73,0,0,0,0,.7.76.76,0,0,0,.24.23,2.69,2.69,0,0,0,.38.19l.5.17c.26.08.53.18.82.29a2.94,2.94,0,0,1,.78.42,2.14,2.14,0,0,1,.58.65,1.93,1.93,0,0,1,.23,1A2.45,2.45,0,0,1,79,145.6a2.27,2.27,0,0,1-.66.81,2.87,2.87,0,0,1-1,.47,4,4,0,0,1-1.1.15,4.47,4.47,0,0,1-1.62-.29,3.31,3.31,0,0,1-1.29-.83l1.23-1.25a2.24,2.24,0,0,0,.75.59,2,2,0,0,0,.93.23,1.75,1.75,0,0,0,.4,0,1.22,1.22,0,0,0,.35-.14.64.64,0,0,0,.23-.26.84.84,0,0,0,.09-.4.62.62,0,0,0-.11-.37A.94.94,0,0,0,77,144a2.22,2.22,0,0,0-.51-.23l-.68-.23a6.46,6.46,0,0,1-.73-.28,2.32,2.32,0,0,1-.64-.43,2.2,2.2,0,0,1-.45-.62,2.17,2.17,0,0,1-.17-.89,2.12,2.12,0,0,1,.27-1.11,2.19,2.19,0,0,1,.69-.76,2.8,2.8,0,0,1,1-.43,4.46,4.46,0,0,1,1.09-.14,4,4,0,0,1,1.34.24,3.44,3.44,0,0,1,1.2.71Z" transform="translate(-1.75)"/><path class="cls-4" d="M89,141.09a1.63,1.63,0,0,0-.63-.49,1.79,1.79,0,0,0-.75-.18,2.43,2.43,0,0,0-.38,0,.87.87,0,0,0-.35.13.82.82,0,0,0-.25.24.7.7,0,0,0,0,.7.7.7,0,0,0,.25.23,2.12,2.12,0,0,0,.37.19l.5.17c.26.08.54.18.82.29a2.66,2.66,0,0,1,.78.42,2.14,2.14,0,0,1,.58.65,1.93,1.93,0,0,1,.23,1,2.58,2.58,0,0,1-.24,1.16,2.41,2.41,0,0,1-.67.81,2.82,2.82,0,0,1-1,.47,4.13,4.13,0,0,1-1.11.15,4.41,4.41,0,0,1-1.61-.29,3.34,3.34,0,0,1-1.3-.83l1.23-1.25a2.24,2.24,0,0,0,.75.59,2,2,0,0,0,.93.23,1.75,1.75,0,0,0,.4,0,1.11,1.11,0,0,0,.35-.14.75.75,0,0,0,.24-.26,1,1,0,0,0,.08-.4.56.56,0,0,0-.11-.37.85.85,0,0,0-.31-.28,2.13,2.13,0,0,0-.5-.23l-.69-.23a6.46,6.46,0,0,1-.73-.28,2.13,2.13,0,0,1-.63-.43,1.87,1.87,0,0,1-.45-.62,2,2,0,0,1-.17-.89,2.12,2.12,0,0,1,.26-1.11,2.19,2.19,0,0,1,.69-.76,2.85,2.85,0,0,1,1-.43,4.38,4.38,0,0,1,1.08-.14,4.09,4.09,0,0,1,1.35.24,3.63,3.63,0,0,1,1.2.71Z" transform="translate(-1.75)"/><path class="cls-4" d="M107,141.09a1.63,1.63,0,0,0-.63-.49,1.79,1.79,0,0,0-.75-.18l-.38,0a.83.83,0,0,0-.34.13.85.85,0,0,0-.26.24.62.62,0,0,0-.1.37.54.54,0,0,0,.08.33.59.59,0,0,0,.24.23,2.24,2.24,0,0,0,.38.19l.49.17c.27.08.54.18.82.29a2.66,2.66,0,0,1,.78.42,2.17,2.17,0,0,1,.59.65,1.93,1.93,0,0,1,.23,1,2.58,2.58,0,0,1-.25,1.16,2.41,2.41,0,0,1-.67.81,2.73,2.73,0,0,1-1,.47,4.13,4.13,0,0,1-1.11.15,4.45,4.45,0,0,1-1.61-.29,3.42,3.42,0,0,1-1.3-.83l1.23-1.25a2.18,2.18,0,0,0,.76.59,2,2,0,0,0,.92.23,1.84,1.84,0,0,0,.41,0,1.16,1.16,0,0,0,.34-.14.75.75,0,0,0,.24-.26.84.84,0,0,0,.09-.4.62.62,0,0,0-.11-.37,1,1,0,0,0-.32-.28,2.13,2.13,0,0,0-.5-.23l-.69-.23a7.28,7.28,0,0,1-.73-.28,2.43,2.43,0,0,1-.63-.43,1.87,1.87,0,0,1-.45-.62,2.17,2.17,0,0,1-.17-.89,2.22,2.22,0,0,1,.26-1.11,2.4,2.4,0,0,1,.69-.76,2.93,2.93,0,0,1,1-.43,4.45,4.45,0,0,1,1.08-.14,4.09,4.09,0,0,1,1.35.24,3.44,3.44,0,0,1,1.2.71Z" transform="translate(-1.75)"/><path class="cls-4" d="M119.36,146.7a4.2,4.2,0,0,1-1.75.34,4.71,4.71,0,0,1-1.66-.29,3.92,3.92,0,0,1-1.32-.84,3.79,3.79,0,0,1-.88-1.3,4.32,4.32,0,0,1-.32-1.67,4.18,4.18,0,0,1,.33-1.69,3.77,3.77,0,0,1,.89-1.29,4.06,4.06,0,0,1,1.34-.82,4.69,4.69,0,0,1,1.65-.28,4.77,4.77,0,0,1,1.62.29,3.1,3.1,0,0,1,1.29.85l-1.27,1.27a1.67,1.67,0,0,0-.69-.54,2.46,2.46,0,0,0-.88-.17,2.19,2.19,0,0,0-.9.18,2,2,0,0,0-.71.5,2.2,2.2,0,0,0-.46.75,2.77,2.77,0,0,0,0,1.91,2.29,2.29,0,0,0,.45.76,2.32,2.32,0,0,0,.7.49,2.35,2.35,0,0,0,.89.17,2,2,0,0,0,1-.22,1.87,1.87,0,0,0,.67-.57l1.31,1.23A3.86,3.86,0,0,1,119.36,146.7Z" transform="translate(-1.75)"/><path class="cls-4" d="M130.72,146.83v-3.24h-3v3.24h-1.87v-7.76h1.87V142h3v-2.94h1.88v7.76Z" transform="translate(-1.75)"/><path class="cls-4" d="M146.69,142.92a4.37,4.37,0,0,1-.32,1.68,3.85,3.85,0,0,1-2.23,2.15,4.88,4.88,0,0,1-1.69.29,4.78,4.78,0,0,1-1.68-.29,3.85,3.85,0,0,1-2.23-2.15,4.73,4.73,0,0,1,0-3.37,3.83,3.83,0,0,1,2.23-2.09,4.78,4.78,0,0,1,1.68-.28,4.87,4.87,0,0,1,1.69.28,3.83,3.83,0,0,1,2.23,2.09A4.35,4.35,0,0,1,146.69,142.92Zm-2,0a2.71,2.71,0,0,0-.17-.95,2.34,2.34,0,0,0-.45-.75,2.16,2.16,0,0,0-.7-.49,2.27,2.27,0,0,0-.91-.18,2.19,2.19,0,0,0-.9.18,2.16,2.16,0,0,0-.7.49,2.2,2.2,0,0,0-.46.75,3,3,0,0,0-.16.95,2.78,2.78,0,0,0,.17,1,2.29,2.29,0,0,0,.45.76,2.19,2.19,0,0,0,3.2,0,2.15,2.15,0,0,0,.46-.76A2.78,2.78,0,0,0,144.68,142.92Z" transform="translate(-1.75)"/><path class="cls-4" d="M160.41,142.92a4.37,4.37,0,0,1-.32,1.68,3.74,3.74,0,0,1-.88,1.31,4.11,4.11,0,0,1-1.34.84,5.07,5.07,0,0,1-3.38,0,4.11,4.11,0,0,1-1.34-.84,3.87,3.87,0,0,1-.88-1.31,4.6,4.6,0,0,1,0-3.37,3.71,3.71,0,0,1,.88-1.27,3.9,3.9,0,0,1,1.34-.82,5.24,5.24,0,0,1,3.38,0,3.9,3.9,0,0,1,1.34.82,3.58,3.58,0,0,1,.88,1.27A4.35,4.35,0,0,1,160.41,142.92Zm-2,0a2.71,2.71,0,0,0-.16-.95,2.2,2.2,0,0,0-.46-.75,2.06,2.06,0,0,0-.7-.49,2.23,2.23,0,0,0-.9-.18,2.11,2.11,0,0,0-2.06,1.42,2.71,2.71,0,0,0-.16.95,2.78,2.78,0,0,0,.16,1,2.31,2.31,0,0,0,.46.76,2.08,2.08,0,0,0,.7.5,2.19,2.19,0,0,0,.9.18,2.26,2.26,0,0,0,.9-.18,2.19,2.19,0,0,0,.7-.5,2.31,2.31,0,0,0,.46-.76A2.78,2.78,0,0,0,158.4,142.92Z" transform="translate(-1.75)"/><path class="cls-4" d="M166,146.83v-7.76h1.89v6.13h3v1.63Z" transform="translate(-1.75)"/><path class="cls-1" d="M124.12,59.75a8.16,8.16,0,0,0,3.51,3.41,7.2,7.2,0,0,0-4-8.27A8.22,8.22,0,0,0,124.12,59.75Z" transform="translate(-1.75)"/><path class="cls-1" d="M131.81,58.75a8.2,8.2,0,0,1-2.52,4.2,8.25,8.25,0,0,1-.74-4.84,8.2,8.2,0,0,1,2.52-4.19A8.21,8.21,0,0,1,131.81,58.75Z" transform="translate(-1.75)"/><path class="cls-1" d="M123.38,69.87a8.24,8.24,0,0,0,2.55,4.18,8.19,8.19,0,0,0,.71-4.84A8.24,8.24,0,0,0,124.09,65,8.3,8.3,0,0,0,123.38,69.87Z" transform="translate(-1.75)"/><path class="cls-1" d="M131.08,70.82a8.23,8.23,0,0,1-3.49,3.43,7.19,7.19,0,0,1,4-8.29A8.26,8.26,0,0,1,131.08,70.82Z" transform="translate(-1.75)"/><path class="cls-1" d="M119.79,81a8.24,8.24,0,0,0,1.4,4.69,7.2,7.2,0,0,0,.52-9.19A8.29,8.29,0,0,0,119.79,81Z" transform="translate(-1.75)"/><path class="cls-1" d="M127,83.89a8.29,8.29,0,0,1-4.25,2.43,7.22,7.22,0,0,1,6-7A8.25,8.25,0,0,1,127,83.89Z" transform="translate(-1.75)"/><path class="cls-1" d="M112.77,88.38a8.19,8.19,0,0,0-.75,4.83,7.18,7.18,0,0,0,4.41-8.07A8.21,8.21,0,0,0,112.77,88.38Z" transform="translate(-1.75)"/><path class="cls-1" d="M118,94.07a8.23,8.23,0,0,1-4.88.37,7.21,7.21,0,0,1,8.4-3.77A8.21,8.21,0,0,1,118,94.07Z" transform="translate(-1.75)"/><path class="cls-1" d="M103.68,93.3a8.21,8.21,0,0,0-2.49,4.21,7.18,7.18,0,0,0,7.09-5.87A8.24,8.24,0,0,0,103.68,93.3Z" transform="translate(-1.75)"/><path class="cls-1" d="M106.46,100.53a8.22,8.22,0,0,1-4.67-1.46,7.21,7.21,0,0,1,9.2-.4A8.23,8.23,0,0,1,106.46,100.53Z" transform="translate(-1.75)"/><path class="cls-1" d="M95.29,95.81a8.17,8.17,0,0,0-3.41,3.5,7.21,7.21,0,0,0,8.27-4A8.13,8.13,0,0,0,95.29,95.81Z" transform="translate(-1.75)"/><path class="cls-1" d="M96.28,103.49A8.2,8.2,0,0,1,92.09,101a7.2,7.2,0,0,1,9,1.78A8.23,8.23,0,0,1,96.28,103.49Z" transform="translate(-1.75)"/><path class="cls-1" d="M52.84,59.75a8.17,8.17,0,0,1-3.5,3.41,8.13,8.13,0,0,1,.52-4.86,8.16,8.16,0,0,1,3.51-3.41A8.17,8.17,0,0,1,52.84,59.75Z" transform="translate(-1.75)"/><path class="cls-1" d="M45.16,58.75A8.2,8.2,0,0,0,47.68,63a8.25,8.25,0,0,0,.74-4.84,8.2,8.2,0,0,0-2.52-4.19A8.21,8.21,0,0,0,45.16,58.75Z" transform="translate(-1.75)"/><path class="cls-1" d="M53.58,69.87A8.17,8.17,0,0,1,51,74.05a8.22,8.22,0,0,1-.7-4.84A8.24,8.24,0,0,1,52.88,65,8.25,8.25,0,0,1,53.58,69.87Z" transform="translate(-1.75)"/><path class="cls-1" d="M45.89,70.82a8.23,8.23,0,0,0,3.49,3.43,7.19,7.19,0,0,0-4-8.29A8.17,8.17,0,0,0,45.89,70.82Z" transform="translate(-1.75)"/><path class="cls-1" d="M57.17,81a8.16,8.16,0,0,1-1.4,4.69,7.22,7.22,0,0,1-.51-9.19A8.24,8.24,0,0,1,57.17,81Z" transform="translate(-1.75)"/><path class="cls-1" d="M50,83.89a8.24,8.24,0,0,0,4.24,2.43,7.19,7.19,0,0,0-6-7A8.21,8.21,0,0,0,50,83.89Z" transform="translate(-1.75)"/><path class="cls-1" d="M64.2,88.38A8.19,8.19,0,0,1,65,93.21a7.2,7.2,0,0,1-4.42-8.07A8.21,8.21,0,0,1,64.2,88.38Z" transform="translate(-1.75)"/><path class="cls-1" d="M58.93,94.07a8.23,8.23,0,0,0,4.88.37A8.23,8.23,0,0,0,60.3,91a8.23,8.23,0,0,0-4.88-.37A8.23,8.23,0,0,0,58.93,94.07Z" transform="translate(-1.75)"/><path class="cls-1" d="M73.29,93.3a8.16,8.16,0,0,1,2.48,4.21,7.18,7.18,0,0,1-7.08-5.87A8.24,8.24,0,0,1,73.29,93.3Z" transform="translate(-1.75)"/><path class="cls-1" d="M70.51,100.53a8.2,8.2,0,0,0,4.66-1.46,8.18,8.18,0,0,0-4.52-1.86A8.22,8.22,0,0,0,66,98.67,8.23,8.23,0,0,0,70.51,100.53Z" transform="translate(-1.75)"/><path class="cls-1" d="M81.68,95.81a8.24,8.24,0,0,1,3.41,3.5,7.21,7.21,0,0,1-8.28-4A8.16,8.16,0,0,1,81.68,95.81Z" transform="translate(-1.75)"/><path class="cls-1" d="M80.68,103.49A8.15,8.15,0,0,0,84.87,101a7.19,7.19,0,0,0-9,1.78A8.21,8.21,0,0,0,80.68,103.49Z" transform="translate(-1.75)"/></g></g></svg>