<svg xmlns="http://www.w3.org/2000/svg" viewBox="0 0 212.68 194.36"><defs><style>.cls-1,.cls-4{fill:#191919;}.cls-2{fill:none;stroke:#fff;stroke-linecap:round;stroke-linejoin:round;stroke-width:2.71px;}.cls-3{fill:#fff;}.cls-4{font-size:5.87px;font-family:Avenir-Black, Avenir;font-weight:800;letter-spacing:0.2em;}</style></defs><g id="Layer_2" data-name="Layer 2"><g id="Layer_1-2" data-name="Layer 1"><path class="cls-1" d="M147.66,7.75l-.13-.12a3.93,3.93,0,0,1-.67-.28h0S140.67,5.71,135,4a91.25,91.25,0,0,0-27-4c-.11,0-.21.06-.33.06h-.32a91.2,91.2,0,0,0-27,4c-5.7,1.74-11.9,3.36-11.9,3.36v0l-.67.34h-.13a79.07,79.07,0,0,0-1.26,12h82.49A79.35,79.35,0,0,0,147.66,7.75Z" transform="translate(-2.14)"/><path class="cls-1" d="M107.47,110.42l.2-.55.21.53C131.81,92.79,142.19,70,146.41,50.28H68.94C73.15,70,83.54,92.81,107.47,110.42Z" transform="translate(-2.14)"/><path class="cls-2" d="M143.82,11.89l-.12-.24s-.21-.12-.61-.31v0s-5.6-1.49-10.75-3.06A82.21,82.21,0,0,0,108,4.59h-.59A82.21,82.21,0,0,0,83,8.24C77.85,9.81,72.25,11.3,72.25,11.3v0c-.4.19-.61.31-.61.31l-.11.24S60,69.55,107.49,104.49l.19-.53.18.53C155.35,69.55,143.82,11.89,143.82,11.89Z" transform="translate(-2.14)"/><polygon class="cls-1" points="156.43 48.06 54.65 48.06 57.58 35.19 54.65 22.32 156.43 22.32 152.88 35.19 156.43 48.06"/><path class="cls-3" d="M107.63,69.77a3.12,3.12,0,0,0-.69-.78,9.89,9.89,0,0,0-5.17-2.2,5.94,5.94,0,0,1,11.82,0,9.79,9.79,0,0,0-5.48,2.42A2.6,2.6,0,0,0,107.63,69.77Z" transform="translate(-2.14)"/><path class="cls-3" d="M97.86,61.73a.51.51,0,0,1,.25.05l3.71,1.49c.17.06.21.13.1.28a5.78,5.78,0,0,0-.47.8c-.06.11-.11.16-.23.07l-3.35-2.65A.08.08,0,0,0,97.86,61.73Z" transform="translate(-2.14)"/><path class="cls-3" d="M113.38,57.53a2,2,0,0,1-.21.61c-.44,1.13-.9,2.25-1.35,3.37-.1.24-.1.24-.31.1a5.08,5.08,0,0,0-.76-.42c-.16-.08-.17-.16-.06-.3l2.17-2.73A4.67,4.67,0,0,1,113.38,57.53Z" transform="translate(-2.14)"/><path class="cls-3" d="M102,57.56l.74.94,1.89,2.4c.12.15.08.21-.07.29s-.54.3-.8.46c-.1.06-.17.08-.22,0L102,57.68a.29.29,0,0,1,0-.09Z" transform="translate(-2.14)"/><path class="cls-3" d="M117.49,61.75a6.51,6.51,0,0,1-.76.63l-2.49,2c-.23.18-.23.18-.36-.08s-.29-.5-.44-.74-.06-.19.08-.25l2.83-1.13,1.11-.44Z" transform="translate(-2.14)"/><path class="cls-3" d="M107.71,56.05c.05.35.1.65.14,1,.16,1.08.32,2.16.47,3.24,0,.24,0,.24-.23.22a5.63,5.63,0,0,0-.82,0c-.22,0-.26,0-.23-.23l.57-4A.42.42,0,0,1,107.71,56.05Z" transform="translate(-2.14)"/><path class="cls-3" d="M73.52,29.82h2.19V41.45H73.52Zm1.1,9.52h2.8a2.44,2.44,0,0,0,1.67-.52,1.88,1.88,0,0,0,.59-1.47V33.92a1.88,1.88,0,0,0-.59-1.47,2.44,2.44,0,0,0-1.67-.52h-2.8V29.82h2.75a5.65,5.65,0,0,1,2.48.49,3.45,3.45,0,0,1,1.57,1.42A4.55,4.55,0,0,1,82,34v3.29a4.49,4.49,0,0,1-.51,2.19,3.54,3.54,0,0,1-1.55,1.46,5.54,5.54,0,0,1-2.53.52H74.62Z" transform="translate(-2.14)"/><path class="cls-3" d="M86.87,41a3.73,3.73,0,0,1-1.49-1.51,4.62,4.62,0,0,1-.53-2.25V34a4.69,4.69,0,0,1,.53-2.26,3.71,3.71,0,0,1,1.49-1.5,5,5,0,0,1,4.46,0,3.71,3.71,0,0,1,1.49,1.5A4.69,4.69,0,0,1,93.35,34v3.29a4.62,4.62,0,0,1-.53,2.25A3.73,3.73,0,0,1,91.33,41a5,5,0,0,1-4.46,0Zm3.27-1.91a1.71,1.71,0,0,0,.69-.72,2.2,2.2,0,0,0,.25-1.07V33.93a2.17,2.17,0,0,0-.25-1.07,1.71,1.71,0,0,0-.69-.72,2.05,2.05,0,0,0-1-.25,2.08,2.08,0,0,0-1,.25,1.71,1.71,0,0,0-.69.72,2.28,2.28,0,0,0-.25,1.07v3.41a2.31,2.31,0,0,0,.25,1.07,1.71,1.71,0,0,0,.69.72,2.19,2.19,0,0,0,1,.25A2.16,2.16,0,0,0,90.14,39.13Z" transform="translate(-2.14)"/><path class="cls-3" d="M98.19,41.06a3.38,3.38,0,0,1-1.44-1.48,5,5,0,0,1-.5-2.35V34a5,5,0,0,1,.5-2.35,3.43,3.43,0,0,1,1.44-1.48,4.67,4.67,0,0,1,2.27-.51,4,4,0,0,1,2,.47,3.9,3.9,0,0,1,1.43,1.37,6.19,6.19,0,0,1,.78,2.17h-2.28a2.8,2.8,0,0,0-.39-1,1.91,1.91,0,0,0-.65-.62,1.63,1.63,0,0,0-.85-.22,2,2,0,0,0-1,.25,1.64,1.64,0,0,0-.66.74A2.73,2.73,0,0,0,98.52,34v3.19a2.69,2.69,0,0,0,.23,1.16,1.64,1.64,0,0,0,.66.74,2.15,2.15,0,0,0,1,.25,1.74,1.74,0,0,0,.86-.21,1.92,1.92,0,0,0,.65-.62,2.9,2.9,0,0,0,.38-1h2.28a6.18,6.18,0,0,1-.79,2.18,3.9,3.9,0,0,1-1.43,1.37,4,4,0,0,1-2,.47A4.67,4.67,0,0,1,98.19,41.06Z" transform="translate(-2.14)"/><path class="cls-3" d="M107.45,29.82h2.19V41.45h-2.19Zm.79,0h7v2.11h-7Zm0,4.8h6.12v2.11h-6.12Zm0,4.72h7v2.11h-7Z" transform="translate(-2.14)"/><path class="cls-3" d="M118.06,29.82h2.68l4.33,8.91-.2.21V29.82H127V41.44h-2.7L120,32.67l.19-.21v9h-2.09Z" transform="translate(-2.14)"/><path class="cls-3" d="M128.75,29.82h8.53v2.11h-8.53Zm3.17.95h2.19V41.45h-2.19Z" transform="translate(-2.14)"/><path class="cls-3" d="M141.17,41.45H138.9V29.82h2.27Z" transform="translate(-2.14)"/><g id="hfb8mP"><path class="cls-3" d="M96.33,70.83c0,3.5,0,7,0,10.51,0-.19,0-.41,0-.65V70.27A2.5,2.5,0,0,1,96.33,70.83Z" transform="translate(-2.14)"/><path class="cls-3" d="M102.27,83.05a19.89,19.89,0,0,0-3.89-.38H98l-.4,0A17.67,17.67,0,0,1,102.27,83.05Z" transform="translate(-2.14)"/><path class="cls-3" d="M107.6,84.59h0Z" transform="translate(-2.14)"/><path class="cls-3" d="M107.33,83.36a2.13,2.13,0,0,1,0,.49h0c-.08.3-.29.36-.81.07A16.26,16.26,0,0,0,98.25,82C97,82,97,82,97,80.69q0-5.76,0-11.54c0-1.17,0-1.31,1-1.49h0l.34-.06a12.28,12.28,0,0,1,2.47-.2,8.24,8.24,0,0,1,1,.07,9,9,0,0,1,4.77,2,2.08,2.08,0,0,1,.79,1.23h0a2,2,0,0,1,0,.55c0,.67,0,1.35,0,2v1c0,.75,0,1.49,0,2.24v.68C107.32,79.28,107.31,81.32,107.33,83.36Z" transform="translate(-2.14)"/><path class="cls-3" d="M107.6,84.59h0Z" transform="translate(-2.14)"/><path class="cls-3" d="M119,70.29c0,3.63,0,7.28,0,10.93,0,.11,0,.22,0,.32,0-3.59,0-7.18,0-10.76A1.83,1.83,0,0,1,119,70.29Z" transform="translate(-2.14)"/><path class="cls-3" d="M118.32,68.59q0,6.31,0,12.63c0,.57-.25.8-.82.78a16.79,16.79,0,0,0-8.94,2c-.44.24-.56.09-.59-.16h0a2.81,2.81,0,0,1,0-.41q0-3.15,0-6.31v0c0-.93,0-1.86,0-2.79v-1c0-.73,0-1.46,0-2.19a1.73,1.73,0,0,1,0-.41,1.63,1.63,0,0,1,.57-1,9.05,9.05,0,0,1,5.07-2.26c.32,0,.66,0,1-.06a13.07,13.07,0,0,1,2.74.28l.32.07A.77.77,0,0,1,118.32,68.59Z" transform="translate(-2.14)"/><path class="cls-3" d="M120.43,71.3c0,4.2,0,8.41,0,12.62,0,1.28,0,1.32-1.31,1.32-2.7,0-5.4,0-8.11,0a2.09,2.09,0,0,0-1.41.43,3.38,3.38,0,0,1-3.89,0,2.22,2.22,0,0,0-1.49-.46c-2.74,0-5.47,0-8.2,0-.81,0-1.12-.24-1.1-1.08,0-2.23,0-4.45,0-6.68V70.83c0-.49,0-1,.69-1,.44,0,.6.18.66.43h0a2.5,2.5,0,0,1,0,.56c0,3.5,0,7,0,10.51v.4c0,.74.17,1,1,.93l.33,0h0a17.67,17.67,0,0,1,4.66.4l.64.16.61.17a14,14,0,0,1,2.63,1.13,1.69,1.69,0,0,0,.86.28.87.87,0,0,0,.58-.2h0a.88.88,0,0,0,.61.24,1.43,1.43,0,0,0,.69-.21,15.73,15.73,0,0,1,8-2h.63l.28,0H118c.85,0,1-.22,1-1v-.15c0-3.59,0-7.18,0-10.76a1.83,1.83,0,0,1,0-.49h0c.06-.28.24-.46.71-.44s.64.15.68.56S120.43,71,120.43,71.3Z" transform="translate(-2.14)"/></g><path class="cls-1" d="M2.14,142.11H5.79v19.41H2.14ZM4,158H8.64a4.14,4.14,0,0,0,2.79-.86,3.13,3.13,0,0,0,1-2.46V149a3.13,3.13,0,0,0-1-2.46,4.09,4.09,0,0,0-2.79-.87H4v-3.52H8.56a9.61,9.61,0,0,1,4.14.81,5.86,5.86,0,0,1,2.61,2.38,7.4,7.4,0,0,1,.9,3.76v5.5a7.39,7.39,0,0,1-.87,3.66,5.85,5.85,0,0,1-2.58,2.43,9.28,9.28,0,0,1-4.22.87H4Z" transform="translate(-2.14)"/><path class="cls-1" d="M23.05,160.83a6.08,6.08,0,0,1-2.49-2.51,7.71,7.71,0,0,1-.88-3.76v-5.5a7.7,7.7,0,0,1,.88-3.75,6,6,0,0,1,2.49-2.51,7.46,7.46,0,0,1,3.71-.89,7.47,7.47,0,0,1,3.72.89A6.14,6.14,0,0,1,33,145.31a7.7,7.7,0,0,1,.88,3.75v5.5a7.71,7.71,0,0,1-.88,3.76,6.2,6.2,0,0,1-2.49,2.51,7.58,7.58,0,0,1-3.72.89A7.57,7.57,0,0,1,23.05,160.83Zm5.45-3.19a2.83,2.83,0,0,0,1.15-1.2,3.77,3.77,0,0,0,.41-1.78V149a3.81,3.81,0,0,0-.41-1.79A2.81,2.81,0,0,0,28.5,146,3.79,3.79,0,0,0,25,146a2.89,2.89,0,0,0-1.16,1.19,3.81,3.81,0,0,0-.4,1.79v5.69a3.77,3.77,0,0,0,.4,1.78,2.92,2.92,0,0,0,1.16,1.2,3.79,3.79,0,0,0,3.47,0Z" transform="translate(-2.14)"/><path class="cls-1" d="M40.55,160.87a5.67,5.67,0,0,1-2.4-2.47,8.57,8.57,0,0,1-.83-3.92v-5.32a8.57,8.57,0,0,1,.83-3.92,5.69,5.69,0,0,1,2.4-2.48,7.86,7.86,0,0,1,3.79-.85,6.65,6.65,0,0,1,3.27.79A6.36,6.36,0,0,1,50,145a10.06,10.06,0,0,1,1.3,3.63H47.51a5.21,5.21,0,0,0-.66-1.64,3.08,3.08,0,0,0-1.09-1,2.8,2.8,0,0,0-1.42-.36,3.46,3.46,0,0,0-1.75.42,2.78,2.78,0,0,0-1.1,1.22,4.61,4.61,0,0,0-.38,1.95v5.32a4.57,4.57,0,0,0,.38,1.94,2.78,2.78,0,0,0,1.1,1.22,3.46,3.46,0,0,0,1.75.42,3,3,0,0,0,1.45-.35,3.14,3.14,0,0,0,1.08-1,5,5,0,0,0,.64-1.65H51.3A10,10,0,0,1,50,158.64a6.49,6.49,0,0,1-2.37,2.29,6.76,6.76,0,0,1-3.27.79A8,8,0,0,1,40.55,160.87Z" transform="translate(-2.14)"/><path class="cls-1" d="M54.63,142.11h3.66v19.41H54.63Zm1.33,0H67.64v3.52H56Zm0,8H66.17v3.52H56ZM56,158H67.64v3.53H56Z" transform="translate(-2.14)"/><path class="cls-1" d="M71,142.11h4.48L82.67,157l-.32.35V142.11h3.49V161.5H81.35l-7.2-14.64.32-.35v15H71Z" transform="translate(-2.14)"/><path class="cls-1" d="M87.45,142.11h14.22v3.52H87.45Zm5.28,1.59h3.66v17.82H92.73Z" transform="translate(-2.14)"/><path class="cls-1" d="M106.8,161.52H103V142.11h3.79Z" transform="translate(-2.14)"/><path class="cls-1" d="M129.28,150.66v3.8a7.94,7.94,0,0,1-.88,3.81,6.13,6.13,0,0,1-2.47,2.55,7.47,7.47,0,0,1-3.71.9,8,8,0,0,1-3.75-.85,6.11,6.11,0,0,1-2.51-2.4,7.1,7.1,0,0,1-.88-3.59v-5.72a8,8,0,0,1,.87-3.81,6.19,6.19,0,0,1,2.48-2.54,7.41,7.41,0,0,1,3.71-.9,7.32,7.32,0,0,1,3.2.71,6.68,6.68,0,0,1,2.45,2,7.55,7.55,0,0,1,1.33,3h-4a2.79,2.79,0,0,0-.66-1.06,3.36,3.36,0,0,0-1.08-.68,3.81,3.81,0,0,0-1.29-.23,3.35,3.35,0,0,0-1.72.43,3,3,0,0,0-1.15,1.21,3.93,3.93,0,0,0-.4,1.82v5.72a3,3,0,0,0,.41,1.6,2.72,2.72,0,0,0,1.18,1.07,3.9,3.9,0,0,0,1.76.38,3.57,3.57,0,0,0,1.73-.41,2.82,2.82,0,0,0,1.14-1.18,4,4,0,0,0,.4-1.83v-.32h-2.94v-3.53Z" transform="translate(-2.14)"/><path class="cls-1" d="M133.15,142.11h3.66v19.41h-3.66ZM134.78,158h11.37v3.53H134.78Z" transform="translate(-2.14)"/><path class="cls-1" d="M151.79,160.83a6.2,6.2,0,0,1-2.49-2.51,7.71,7.71,0,0,1-.88-3.76v-5.5a7.7,7.7,0,0,1,.88-3.75,6.14,6.14,0,0,1,2.49-2.51,8.22,8.22,0,0,1,7.44,0,6.14,6.14,0,0,1,2.49,2.51,7.81,7.81,0,0,1,.88,3.75v5.5a7.82,7.82,0,0,1-.88,3.76,6.2,6.2,0,0,1-2.49,2.51,8.22,8.22,0,0,1-7.44,0Zm5.45-3.19a2.86,2.86,0,0,0,1.16-1.2,3.77,3.77,0,0,0,.41-1.78V149a3.81,3.81,0,0,0-.41-1.79,2.83,2.83,0,0,0-1.16-1.19,3.44,3.44,0,0,0-1.73-.42,3.5,3.5,0,0,0-1.74.42,2.87,2.87,0,0,0-1.15,1.19,3.81,3.81,0,0,0-.41,1.79v5.69a3.77,3.77,0,0,0,.41,1.78,2.89,2.89,0,0,0,1.15,1.2,3.5,3.5,0,0,0,1.74.42A3.44,3.44,0,0,0,157.24,157.64Z" transform="translate(-2.14)"/><path class="cls-1" d="M166.47,142.11h3.65v19.41h-3.65Zm1.6,15.88h6.19a2.88,2.88,0,0,0,2-.6,2.2,2.2,0,0,0,.68-1.71v0a2.46,2.46,0,0,0-.3-1.25,2,2,0,0,0-.91-.79,3.24,3.24,0,0,0-1.42-.28h-6.19V149.8h6.19a2.48,2.48,0,0,0,1.76-.58,2.09,2.09,0,0,0,.62-1.61,1.81,1.81,0,0,0-.62-1.46,2.71,2.71,0,0,0-1.76-.52h-6.19v-3.52h6.31a7.49,7.49,0,0,1,3.22.62,4.41,4.41,0,0,1,2,1.8,5.53,5.53,0,0,1,.69,2.84,4.5,4.5,0,0,1-.44,2,3.79,3.79,0,0,1-1.3,1.43,5.38,5.38,0,0,1-2.06.76,5.24,5.24,0,0,1,2.19.78,4,4,0,0,1,1.39,1.58,5.08,5.08,0,0,1,.48,2.26v0a5.61,5.61,0,0,1-.7,2.86,4.54,4.54,0,0,1-2,1.81,7.64,7.64,0,0,1-3.22.62h-6.54Z" transform="translate(-2.14)"/><path class="cls-1" d="M189.67,142.11H192l7.42,19.41h-3.94l-4.64-13.26-4.65,13.26h-3.93Zm-3.86,12.77H196v3.53H185.81Z" transform="translate(-2.14)"/><path class="cls-1" d="M201.81,142.11h3.66v19.41h-3.66ZM203.44,158h11.38v3.53H203.44Z" transform="translate(-2.14)"/><path class="cls-1" d="M15.92,175.93a2.58,2.58,0,0,1-.31,1.3,2.39,2.39,0,0,1-.82.85,3.27,3.27,0,0,1-1.15.46,5.89,5.89,0,0,1-1.33.14H8.54v-9.45h3.77a6.25,6.25,0,0,1,1.12.11,3.5,3.5,0,0,1,1,.39,2.1,2.1,0,0,1,1.06,1.93,2,2,0,0,1-.43,1.3,2.38,2.38,0,0,1-1.12.74v0a2.37,2.37,0,0,1,.75.25,2.18,2.18,0,0,1,.62.46,2.06,2.06,0,0,1,.41.65A2.24,2.24,0,0,1,15.92,175.93Zm-2.6-4a.75.75,0,0,0-.36-.7,2.14,2.14,0,0,0-1.09-.22H10.75V173H12a1.62,1.62,0,0,0,1-.26A.86.86,0,0,0,13.32,172Zm.31,3.75a.86.86,0,0,0-.44-.82,2.57,2.57,0,0,0-1.17-.22H10.75v2.16H12a3.51,3.51,0,0,0,.55-.05,1.67,1.67,0,0,0,.52-.16,1,1,0,0,0,.38-.34A1,1,0,0,0,13.63,175.72Z" transform="translate(-2.14)"/><path class="cls-1" d="M30.49,176.67a3.37,3.37,0,0,1-.82,1.2,3.83,3.83,0,0,1-1.29.79,5.18,5.18,0,0,1-3.36,0,3.65,3.65,0,0,1-1.27-.79,3.33,3.33,0,0,1-.8-1.2,4,4,0,0,1-.28-1.55v-5.89h2.27v5.7a2.48,2.48,0,0,0,.1.73,2,2,0,0,0,.31.63,1.54,1.54,0,0,0,.54.43,1.92,1.92,0,0,0,.83.16,1.88,1.88,0,0,0,.82-.16,1.57,1.57,0,0,0,.55-.43,2,2,0,0,0,.31-.63,2.86,2.86,0,0,0,.09-.73v-5.7h2.28v5.89A4,4,0,0,1,30.49,176.67Z" transform="translate(-2.14)"/><path class="cls-1" d="M43,171.69a2.27,2.27,0,0,0-1.68-.82,3.57,3.57,0,0,0-.46,0,1.11,1.11,0,0,0-.42.16,1,1,0,0,0-.32.29.81.81,0,0,0-.12.46.72.72,0,0,0,.1.4.78.78,0,0,0,.29.28,2.83,2.83,0,0,0,.46.22l.6.21c.32.1.66.22,1,.35a3.49,3.49,0,0,1,1,.52,2.57,2.57,0,0,1,.71.79,2.27,2.27,0,0,1,.28,1.18,3.12,3.12,0,0,1-.3,1.41,2.77,2.77,0,0,1-.81,1,3.61,3.61,0,0,1-1.16.58,5.11,5.11,0,0,1-1.35.18,5.66,5.66,0,0,1-2-.35,4.21,4.21,0,0,1-1.58-1l1.5-1.52a2.75,2.75,0,0,0,.91.71,2.53,2.53,0,0,0,1.13.29,2.63,2.63,0,0,0,.49,0,1.24,1.24,0,0,0,.42-.18.82.82,0,0,0,.29-.32A1,1,0,0,0,42,176a.8.8,0,0,0-.13-.45,1.2,1.2,0,0,0-.39-.34,2.69,2.69,0,0,0-.61-.28l-.83-.28a6.81,6.81,0,0,1-.89-.34,3.22,3.22,0,0,1-.78-.52,2.49,2.49,0,0,1-.54-.76,2.55,2.55,0,0,1-.21-1.09,2.62,2.62,0,0,1,1.16-2.27,3.6,3.6,0,0,1,1.18-.52,5.31,5.31,0,0,1,1.32-.17,5,5,0,0,1,1.63.29,4.34,4.34,0,0,1,1.47.87Z" transform="translate(-2.14)"/><path class="cls-1" d="M51.19,178.68v-9.45h2.29v9.45Z" transform="translate(-2.14)"/><path class="cls-1" d="M66.78,178.68,63,172.5h0l.05,6.18H60.77v-9.45h2.61l3.79,6.17h0l0-6.17h2.21v9.45Z" transform="translate(-2.14)"/><path class="cls-1" d="M76.66,178.68v-9.45H83v1.92H78.86v1.79h3.93v1.83H78.86v2h4.4v2Z" transform="translate(-2.14)"/><path class="cls-1" d="M95.1,171.69a2.27,2.27,0,0,0-1.68-.82,3.42,3.42,0,0,0-.46,0,1.23,1.23,0,0,0-.43.16,1,1,0,0,0-.31.29.81.81,0,0,0-.13.46.82.82,0,0,0,.1.4.9.9,0,0,0,.3.28,2.83,2.83,0,0,0,.46.22l.6.21c.32.1.65.22,1,.35a3.65,3.65,0,0,1,1,.52,2.7,2.7,0,0,1,.71.79,2.37,2.37,0,0,1,.28,1.18,3.12,3.12,0,0,1-.3,1.41,2.77,2.77,0,0,1-.81,1,3.61,3.61,0,0,1-1.16.58,5.11,5.11,0,0,1-1.35.18,5.66,5.66,0,0,1-2-.35,4.13,4.13,0,0,1-1.58-1l1.5-1.52a2.75,2.75,0,0,0,.91.71,2.5,2.5,0,0,0,1.13.29,2.63,2.63,0,0,0,.49,0,1.33,1.33,0,0,0,.42-.18.82.82,0,0,0,.29-.32,1,1,0,0,0,.11-.48.73.73,0,0,0-.14-.45,1.16,1.16,0,0,0-.38-.34,2.91,2.91,0,0,0-.61-.28l-.84-.28a7.26,7.26,0,0,1-.88-.34,3.22,3.22,0,0,1-.78-.52A2.52,2.52,0,0,1,90,173a2.72,2.72,0,0,1-.2-1.09,2.65,2.65,0,0,1,.32-1.35,2.74,2.74,0,0,1,.84-.92,3.64,3.64,0,0,1,1.17-.52,5.45,5.45,0,0,1,1.33-.17,5,5,0,0,1,1.63.29,4.3,4.3,0,0,1,1.46.87Z" transform="translate(-2.14)"/><path class="cls-1" d="M108.33,171.69a2.27,2.27,0,0,0-1.68-.82,3.57,3.57,0,0,0-.46,0,1.11,1.11,0,0,0-.42.16,1,1,0,0,0-.32.29.81.81,0,0,0-.12.46.72.72,0,0,0,.1.4.78.78,0,0,0,.29.28,2.83,2.83,0,0,0,.46.22l.6.21c.32.1.65.22,1,.35a3.65,3.65,0,0,1,1,.52,2.7,2.7,0,0,1,.71.79,2.37,2.37,0,0,1,.28,1.18,3.12,3.12,0,0,1-.3,1.41,2.77,2.77,0,0,1-.81,1,3.61,3.61,0,0,1-1.16.58,5.11,5.11,0,0,1-1.35.18,5.66,5.66,0,0,1-2-.35,4.13,4.13,0,0,1-1.58-1l1.5-1.52a2.75,2.75,0,0,0,.91.71,2.53,2.53,0,0,0,1.13.29,2.63,2.63,0,0,0,.49,0,1.33,1.33,0,0,0,.42-.18.82.82,0,0,0,.29-.32,1,1,0,0,0,.11-.48.73.73,0,0,0-.14-.45,1.06,1.06,0,0,0-.38-.34,2.91,2.91,0,0,0-.61-.28l-.83-.28a6.81,6.81,0,0,1-.89-.34,3.22,3.22,0,0,1-.78-.52,2.33,2.33,0,0,1-.54-.76A2.55,2.55,0,0,1,103,172a2.62,2.62,0,0,1,1.16-2.27,3.6,3.6,0,0,1,1.18-.52,5.31,5.31,0,0,1,1.32-.17,5,5,0,0,1,1.63.29,4.2,4.2,0,0,1,1.46.87Z" transform="translate(-2.14)"/><path class="cls-1" d="M130.24,171.69a2.11,2.11,0,0,0-.77-.6,2.13,2.13,0,0,0-.92-.22,3.73,3.73,0,0,0-.46,0,1.26,1.26,0,0,0-.42.16,1,1,0,0,0-.31.29.81.81,0,0,0-.13.46.82.82,0,0,0,.1.4.9.9,0,0,0,.3.28,2.83,2.83,0,0,0,.46.22l.6.21c.32.1.65.22,1,.35a3.65,3.65,0,0,1,.95.52,2.7,2.7,0,0,1,.71.79,2.37,2.37,0,0,1,.28,1.18,3.12,3.12,0,0,1-.3,1.41,2.88,2.88,0,0,1-.81,1,3.61,3.61,0,0,1-1.16.58,5.11,5.11,0,0,1-1.35.18,5.76,5.76,0,0,1-2-.35,4.17,4.17,0,0,1-1.57-1L126,176a2.9,2.9,0,0,0,.92.71A2.5,2.5,0,0,0,128,177a2.63,2.63,0,0,0,.49,0,1.33,1.33,0,0,0,.42-.18.82.82,0,0,0,.29-.32,1,1,0,0,0,.11-.48.73.73,0,0,0-.14-.45,1.16,1.16,0,0,0-.38-.34,2.91,2.91,0,0,0-.61-.28l-.84-.28a6.67,6.67,0,0,1-.88-.34,3.22,3.22,0,0,1-.78-.52,2.36,2.36,0,0,1-.55-.76,2.72,2.72,0,0,1-.2-1.09,2.65,2.65,0,0,1,.32-1.35,2.74,2.74,0,0,1,.84-.92,3.64,3.64,0,0,1,1.17-.52,5.45,5.45,0,0,1,1.33-.17,5.06,5.06,0,0,1,1.63.29,4.3,4.3,0,0,1,1.46.87Z" transform="translate(-2.14)"/><path class="cls-1" d="M145.24,178.52a5,5,0,0,1-2.12.42,5.54,5.54,0,0,1-2-.36,4.73,4.73,0,0,1-2.68-2.61,5.14,5.14,0,0,1-.39-2,5.2,5.2,0,0,1,.4-2.05,4.39,4.39,0,0,1,1.09-1.57,5,5,0,0,1,1.62-1,5.83,5.83,0,0,1,2-.34,5.61,5.61,0,0,1,2,.35,3.81,3.81,0,0,1,1.57,1l-1.55,1.55a1.88,1.88,0,0,0-.84-.65,2.83,2.83,0,0,0-1.07-.21,2.64,2.64,0,0,0-1.1.22,2.47,2.47,0,0,0-.86.6,2.77,2.77,0,0,0-.56.92,3.05,3.05,0,0,0-.2,1.15,3.21,3.21,0,0,0,.2,1.18,2.77,2.77,0,0,0,.55.91,2.57,2.57,0,0,0,.85.6,2.74,2.74,0,0,0,1.08.21,2.52,2.52,0,0,0,1.19-.27,2.29,2.29,0,0,0,.81-.69l1.59,1.49A4.62,4.62,0,0,1,145.24,178.52Z" transform="translate(-2.14)"/><path class="cls-1" d="M159.08,178.68v-4h-3.69v4h-2.28v-9.45h2.28v3.58h3.69v-3.58h2.28v9.45Z" transform="translate(-2.14)"/><path class="cls-1" d="M178.5,173.92a5.27,5.27,0,0,1-.39,2.05,4.56,4.56,0,0,1-1.07,1.58,4.76,4.76,0,0,1-1.64,1,6,6,0,0,1-4.1,0,4.82,4.82,0,0,1-1.63-1,4.73,4.73,0,0,1-1.08-1.58,5.46,5.46,0,0,1-.38-2.05,5.35,5.35,0,0,1,.38-2,4.55,4.55,0,0,1,1.08-1.56,4.88,4.88,0,0,1,1.63-1,6.35,6.35,0,0,1,4.1,0,4.83,4.83,0,0,1,1.64,1,4.39,4.39,0,0,1,1.07,1.56A5.17,5.17,0,0,1,178.5,173.92Zm-2.44,0a3.31,3.31,0,0,0-.2-1.15,2.84,2.84,0,0,0-.56-.92,2.61,2.61,0,0,0-.85-.6,2.84,2.84,0,0,0-1.1-.22,2.8,2.8,0,0,0-1.1.22,2.73,2.73,0,0,0-.85.6,2.68,2.68,0,0,0-.56.92,3.3,3.3,0,0,0-.19,1.15,3.48,3.48,0,0,0,.2,1.18,2.72,2.72,0,0,0,.55.92,2.46,2.46,0,0,0,.85.61,2.64,2.64,0,0,0,1.1.22,2.59,2.59,0,0,0,1.09-.22,2.5,2.5,0,0,0,.86-.61,2.74,2.74,0,0,0,.56-.92A3.48,3.48,0,0,0,176.06,173.92Z" transform="translate(-2.14)"/><path class="cls-1" d="M195.2,173.92a5.46,5.46,0,0,1-.38,2.05,4.73,4.73,0,0,1-1.08,1.58,4.82,4.82,0,0,1-1.63,1,5.79,5.79,0,0,1-2.06.36,5.7,5.7,0,0,1-2.05-.36,4.82,4.82,0,0,1-1.63-1A4.56,4.56,0,0,1,185.3,176a5.27,5.27,0,0,1-.39-2.05,5.17,5.17,0,0,1,.39-2,4.39,4.39,0,0,1,1.07-1.56,4.88,4.88,0,0,1,1.63-1,5.92,5.92,0,0,1,2.05-.34,6,6,0,0,1,2.06.34,4.88,4.88,0,0,1,1.63,1,4.55,4.55,0,0,1,1.08,1.56A5.35,5.35,0,0,1,195.2,173.92Zm-2.44,0a3.31,3.31,0,0,0-.2-1.15,2.68,2.68,0,0,0-.56-.92,2.61,2.61,0,0,0-.85-.6,2.86,2.86,0,0,0-2.2,0,2.73,2.73,0,0,0-.85.6,2.51,2.51,0,0,0-.55.92,3.31,3.31,0,0,0-.2,1.15,3.48,3.48,0,0,0,.2,1.18,2.74,2.74,0,0,0,.56.92,2.33,2.33,0,0,0,.84.61,2.64,2.64,0,0,0,1.1.22,2.59,2.59,0,0,0,1.09-.22A2.5,2.5,0,0,0,192,176a2.58,2.58,0,0,0,.56-.92A3.48,3.48,0,0,0,192.76,173.92Z" transform="translate(-2.14)"/><path class="cls-1" d="M202.05,178.68v-9.45h2.3v7.46H208v2Z" transform="translate(-2.14)"/><path class="cls-1" d="M151,72.71a10,10,0,0,0,4.27,4.15,10,10,0,0,0-.63-5.92,10,10,0,0,0-4.27-4.15A10,10,0,0,0,151,72.71Z" transform="translate(-2.14)"/><path class="cls-1" d="M160.4,71.5a10,10,0,0,1-3.07,5.1,10,10,0,0,1-.9-5.89,10,10,0,0,1,3.07-5.1A10,10,0,0,1,160.4,71.5Z" transform="translate(-2.14)"/><path class="cls-1" d="M150.15,85a9.93,9.93,0,0,0,3.1,5.08,10,10,0,0,0,.86-5.89,10,10,0,0,0-3.1-5.08A10,10,0,0,0,150.15,85Z" transform="translate(-2.14)"/><path class="cls-1" d="M159.51,86.18a10,10,0,0,1-4.25,4.18,8.78,8.78,0,0,1,4.84-10.1A10,10,0,0,1,159.51,86.18Z" transform="translate(-2.14)"/><path class="cls-1" d="M145.77,98.58a10,10,0,0,0,1.71,5.7,8.76,8.76,0,0,0,.63-11.17A10,10,0,0,0,145.77,98.58Z" transform="translate(-2.14)"/><path class="cls-1" d="M154.53,102.08a10,10,0,0,1-5.17,3,8.76,8.76,0,0,1,7.26-8.53A10,10,0,0,1,154.53,102.08Z" transform="translate(-2.14)"/><path class="cls-1" d="M137.23,107.55a10,10,0,0,0-.91,5.88,8.75,8.75,0,0,0,5.37-9.82A10,10,0,0,0,137.23,107.55Z" transform="translate(-2.14)"/><path class="cls-1" d="M143.63,114.47a10,10,0,0,1-5.93.45,8.76,8.76,0,0,1,10.21-4.59A10,10,0,0,1,143.63,114.47Z" transform="translate(-2.14)"/><path class="cls-1" d="M126.17,113.53a10,10,0,0,0-3,5.13,8.77,8.77,0,0,0,8.63-7.14A10,10,0,0,0,126.17,113.53Z" transform="translate(-2.14)"/><path class="cls-1" d="M129.55,122.34a10,10,0,0,1-5.68-1.78,8.78,8.78,0,0,1,11.19-.49A10,10,0,0,1,129.55,122.34Z" transform="translate(-2.14)"/><path class="cls-1" d="M116,116.58a10,10,0,0,0-4.15,4.27,8.74,8.74,0,0,0,10.06-4.9A10,10,0,0,0,116,116.58Z" transform="translate(-2.14)"/><path class="cls-1" d="M117.17,125.94a10,10,0,0,1-5.1-3.07,8.75,8.75,0,0,1,11,2.17A10,10,0,0,1,117.17,125.94Z" transform="translate(-2.14)"/><path class="cls-1" d="M64.31,72.71A10,10,0,0,1,60,76.86a10,10,0,0,1,.63-5.92,10,10,0,0,1,4.27-4.15A10,10,0,0,1,64.31,72.71Z" transform="translate(-2.14)"/><path class="cls-1" d="M55,71.5A10,10,0,0,0,58,76.6a10,10,0,0,0,.9-5.89,10,10,0,0,0-3.07-5.1A10,10,0,0,0,55,71.5Z" transform="translate(-2.14)"/><path class="cls-1" d="M65.2,85a9.93,9.93,0,0,1-3.1,5.08,10,10,0,0,1-.86-5.89,10,10,0,0,1,3.1-5.08A10,10,0,0,1,65.2,85Z" transform="translate(-2.14)"/><path class="cls-1" d="M55.84,86.18a10,10,0,0,0,4.25,4.18,8.78,8.78,0,0,0-4.84-10.1A10,10,0,0,0,55.84,86.18Z" transform="translate(-2.14)"/><path class="cls-1" d="M69.58,98.58a10,10,0,0,1-1.71,5.7,8.76,8.76,0,0,1-.63-11.17A10,10,0,0,1,69.58,98.58Z" transform="translate(-2.14)"/><path class="cls-1" d="M60.82,102.08A10,10,0,0,0,66,105a10.06,10.06,0,0,0-2.09-5.58,10,10,0,0,0-5.17-2.95A10,10,0,0,0,60.82,102.08Z" transform="translate(-2.14)"/><path class="cls-1" d="M78.12,107.55a10,10,0,0,1,.91,5.88,8.75,8.75,0,0,1-5.37-9.82A10,10,0,0,1,78.12,107.55Z" transform="translate(-2.14)"/><path class="cls-1" d="M71.72,114.47a10,10,0,0,0,5.93.45,10,10,0,0,0-4.28-4.14,10,10,0,0,0-5.93-.45A10,10,0,0,0,71.72,114.47Z" transform="translate(-2.14)"/><path class="cls-1" d="M89.18,113.53a10,10,0,0,1,3,5.13,8.77,8.77,0,0,1-8.63-7.14A10,10,0,0,1,89.18,113.53Z" transform="translate(-2.14)"/><path class="cls-1" d="M85.8,122.34a10,10,0,0,0,5.68-1.78,8.78,8.78,0,0,0-11.19-.49A10,10,0,0,0,85.8,122.34Z" transform="translate(-2.14)"/><path class="cls-1" d="M99.39,116.58a10,10,0,0,1,4.15,4.27A8.74,8.74,0,0,1,93.48,116,10,10,0,0,1,99.39,116.58Z" transform="translate(-2.14)"/><path class="cls-1" d="M98.18,125.94a10,10,0,0,0,5.1-3.07,8.75,8.75,0,0,0-11,2.17A10,10,0,0,0,98.18,125.94Z" transform="translate(-2.14)"/><text class="cls-4" transform="translate(24.62 191.68)">DEVELOPING GLOBAL BUSINESS LEADERS</text></g></g></svg>