<svg xmlns="http://www.w3.org/2000/svg" viewBox="0 0 86.88 103.61"><defs><style>.cls-1{fill:#97b900;}.cls-2{fill:none;stroke:#fff;stroke-linecap:round;stroke-linejoin:round;stroke-width:2.23px;}.cls-3{fill:#ebb225;}.cls-4{fill:#fff;}</style></defs><g id="Layer_2" data-name="Layer 2"><g id="Layer_1-2" data-name="Layer 1"><path class="cls-1" d="M76.3,6.37l-.11-.1A3.73,3.73,0,0,1,75.64,6h0S70.56,4.7,65.87,3.26A75.16,75.16,0,0,0,43.71,0c-.09,0-.18.05-.27.05h-.27A74.78,74.78,0,0,0,21,3.32c-4.68,1.43-9.78,2.77-9.78,2.77v0l-.55.27h-.11a65.06,65.06,0,0,0-1,9.87H77.33A65.06,65.06,0,0,0,76.3,6.37Z"/><path class="cls-1" d="M43.27,90.74l.17-.46.17.44c19.67-14.47,28.2-33.2,31.66-49.4H11.61C15.07,57.52,23.6,76.27,43.27,90.74Z"/><path class="cls-2" d="M73.14,9.77l-.09-.2-.5-.25v0S68,8.06,63.72,6.77a67.53,67.53,0,0,0-20-3H43.2a67.48,67.48,0,0,0-20,3c-4.24,1.29-8.84,2.52-8.84,2.52v0l-.5.25-.1.2S4.27,57.15,43.29,85.86l.15-.43.15.43C82.62,57.15,73.14,9.77,73.14,9.77Z"/><polygon class="cls-3" points="85.26 39.5 1.63 39.5 4.03 28.92 1.63 18.34 85.26 18.34 82.34 28.92 85.26 39.5"/><path class="cls-4" d="M43.4,57.33a2.37,2.37,0,0,0-.56-.64,8.12,8.12,0,0,0-4.25-1.8,4.88,4.88,0,0,1,9.71,0,8,8,0,0,0-4.5,2A2.17,2.17,0,0,0,43.4,57.33Z"/><path class="cls-4" d="M35.37,50.73a.46.46,0,0,1,.21,0L38.63,52c.14,0,.17.11.08.23a4.34,4.34,0,0,0-.38.66c0,.09-.1.13-.19.06l-2.76-2.18Z"/><path class="cls-4" d="M48.13,47.28a1.63,1.63,0,0,1-.17.5l-1.11,2.77c-.08.2-.08.2-.26.08a4.71,4.71,0,0,0-.62-.35c-.14-.06-.14-.13,0-.24l1.78-2.25A3.76,3.76,0,0,1,48.13,47.28Z"/><path class="cls-4" d="M38.81,47.3l.61.77c.52.66,1,1.32,1.55,2,.1.13.07.18,0,.24s-.45.25-.66.38-.14.07-.19,0c-.42-1.07-.85-2.15-1.28-3.22a.19.19,0,0,1,0-.08Z"/><path class="cls-4" d="M51.51,50.75a7.64,7.64,0,0,1-.62.51l-2,1.62c-.2.15-.19.15-.3-.06l-.36-.62c-.07-.1,0-.15.06-.2.78-.3,1.56-.62,2.33-.93l.91-.36Z"/><path class="cls-4" d="M43.47,46.06c0,.29.08.54.12.79.13.88.26,1.77.38,2.66,0,.19,0,.2-.18.19a3.86,3.86,0,0,0-.68,0c-.18,0-.22,0-.19-.19.16-1.08.31-2.17.47-3.25A.32.32,0,0,1,43.47,46.06Z"/><path class="cls-4" d="M15.37,24.5h1.81v9.56H15.37Zm.91,7.83h2.3A2,2,0,0,0,20,31.9a1.54,1.54,0,0,0,.49-1.21V27.88A1.54,1.54,0,0,0,20,26.67a2,2,0,0,0-1.37-.43h-2.3V24.5h2.26a4.66,4.66,0,0,1,2,.41,2.75,2.75,0,0,1,1.28,1.17,3.59,3.59,0,0,1,.44,1.85v2.71a3.68,3.68,0,0,1-.42,1.8,3,3,0,0,1-1.27,1.2,4.67,4.67,0,0,1-2.08.42H16.28Z"/><path class="cls-4" d="M26.35,33.72a3,3,0,0,1-1.23-1.23,3.8,3.8,0,0,1-.43-1.85V27.93a3.8,3.8,0,0,1,.43-1.85,3.06,3.06,0,0,1,1.23-1.24,4.11,4.11,0,0,1,3.66,0,3.06,3.06,0,0,1,1.23,1.24,3.92,3.92,0,0,1,.43,1.85v2.71a3.92,3.92,0,0,1-.43,1.85A3,3,0,0,1,30,33.72a4,4,0,0,1-3.66,0ZM29,32.15a1.33,1.33,0,0,0,.57-.58,1.83,1.83,0,0,0,.2-.89v-2.8a1.81,1.81,0,0,0-.2-.88,1.41,1.41,0,0,0-.57-.59,1.78,1.78,0,0,0-.85-.2,1.82,1.82,0,0,0-.86.2,1.54,1.54,0,0,0-.57.59,1.93,1.93,0,0,0-.2.88v2.8a2,2,0,0,0,.2.89,1.45,1.45,0,0,0,.57.58,1.71,1.71,0,0,0,.86.21A1.67,1.67,0,0,0,29,32.15Z"/><path class="cls-4" d="M35.64,33.74a2.76,2.76,0,0,1-1.18-1.21,4.23,4.23,0,0,1-.41-1.93V28a4.2,4.2,0,0,1,.41-1.93,2.78,2.78,0,0,1,1.18-1.22,3.88,3.88,0,0,1,1.87-.42,3.27,3.27,0,0,1,1.61.38,3.16,3.16,0,0,1,1.17,1.13,4.86,4.86,0,0,1,.65,1.79H39.07a2.3,2.3,0,0,0-.33-.81,1.36,1.36,0,0,0-.53-.51,1.38,1.38,0,0,0-.7-.18,1.76,1.76,0,0,0-.86.2,1.29,1.29,0,0,0-.54.61,2.13,2.13,0,0,0-.19,1V30.6a2.12,2.12,0,0,0,.19.95,1.22,1.22,0,0,0,.54.6,1.66,1.66,0,0,0,.86.21,1.4,1.4,0,0,0,1.24-.68,2.42,2.42,0,0,0,.32-.82h1.87a5.12,5.12,0,0,1-.65,1.79,3.13,3.13,0,0,1-1.17,1.12,3.28,3.28,0,0,1-1.61.39A3.88,3.88,0,0,1,35.64,33.74Z"/><path class="cls-4" d="M43.25,24.5h1.8v9.56h-1.8Zm.65,0h5.76v1.74H43.9Zm0,3.95h5v1.73h-5Zm0,3.88h5.76v1.73H43.9Z"/><path class="cls-4" d="M52,24.5h2.21l3.55,7.33-.16.17V24.5H59.3v9.56H57.08l-3.54-7.21.16-.18v7.39H52Z"/><path class="cls-4" d="M60.76,24.5h7v1.74h-7Zm2.6.79h1.8v8.77h-1.8Z"/><path class="cls-4" d="M71,34.06H69.1V24.5H71Z"/><g id="hfb8mP"><path class="cls-4" d="M34.12,58.21c0,2.87,0,5.75,0,8.63a4.35,4.35,0,0,1,0-.53c0-2.86,0-5.7,0-8.56A2.27,2.27,0,0,1,34.12,58.21Z"/><path class="cls-4" d="M39,68.25a16.14,16.14,0,0,0-3.2-.32h-.63A14.39,14.39,0,0,1,39,68.25Z"/><path class="cls-4" d="M43.38,69.51h0Z"/><path class="cls-4" d="M43.16,68.51a2.25,2.25,0,0,1,0,.4h0c-.07.25-.24.3-.67.06a13.39,13.39,0,0,0-6.77-1.59c-1,0-1,0-1-1.08V56.83c0-1,0-1.08.8-1.23h0l.28-.05a10,10,0,0,1,2-.16,7.34,7.34,0,0,1,.81,0,7.47,7.47,0,0,1,3.92,1.68,1.73,1.73,0,0,1,.65,1h0a1.64,1.64,0,0,1,0,.45c0,.56,0,1.11,0,1.67v.82c0,.61,0,1.22,0,1.84v.56C43.15,65.15,43.14,66.83,43.16,68.51Z"/><path class="cls-4" d="M43.38,69.51h0Z"/><path class="cls-4" d="M52.74,57.76q0,4.49,0,9a2.28,2.28,0,0,1,0,.27c0-3,0-5.9,0-8.85A1.59,1.59,0,0,1,52.74,57.76Z"/><path class="cls-4" d="M52.19,56.37q0,5.18,0,10.37c0,.47-.21.66-.68.65a13.63,13.63,0,0,0-7.34,1.68c-.36.2-.46.07-.49-.13h0c0-.11,0-.23,0-.34V60.25c0-.6,0-1.2,0-1.8a1.87,1.87,0,0,1,0-.34,1.36,1.36,0,0,1,.47-.83,7.38,7.38,0,0,1,4.17-1.85c.26,0,.54,0,.82,0a10.36,10.36,0,0,1,2.25.23l.27.06A.63.63,0,0,1,52.19,56.37Z"/><path class="cls-4" d="M53.92,58.59c0,3.46,0,6.91,0,10.37,0,1.06,0,1.09-1.07,1.09-2.22,0-4.44,0-6.67,0A1.78,1.78,0,0,0,45,70.4a2.78,2.78,0,0,1-3.19,0A1.81,1.81,0,0,0,40.6,70c-2.25,0-4.49,0-6.74,0-.66,0-.91-.2-.9-.89,0-1.83,0-3.65,0-5.48V58.21c0-.41,0-.82.57-.82.37,0,.5.15.55.35h0a2.27,2.27,0,0,1,0,.46c0,2.87,0,5.75,0,8.63v.33c0,.61.13.8.77.76h.29a14.39,14.39,0,0,1,3.83.33l.52.13.51.14a11.54,11.54,0,0,1,2.16.93,1.43,1.43,0,0,0,.7.23.73.73,0,0,0,.48-.16h0a.73.73,0,0,0,.51.2,1.14,1.14,0,0,0,.56-.18A13,13,0,0,1,51,67.93h.88c.69,0,.82-.17.81-.8V67c0-3,0-5.9,0-8.85a1.59,1.59,0,0,1,0-.4h0c0-.23.2-.38.58-.36s.53.13.56.46S53.92,58.34,53.92,58.59Z"/></g><path class="cls-1" d="M79.08,59.75a8.16,8.16,0,0,0,3.51,3.41,7.2,7.2,0,0,0-4-8.27A8.22,8.22,0,0,0,79.08,59.75Z"/><path class="cls-1" d="M86.77,58.75A8.26,8.26,0,0,1,84.24,63a8.2,8.2,0,0,1-.73-4.84A8.2,8.2,0,0,1,86,53.92,8.21,8.21,0,0,1,86.77,58.75Z"/><path class="cls-1" d="M78.34,69.87a8.24,8.24,0,0,0,2.55,4.18,8.19,8.19,0,0,0,.71-4.84A8.24,8.24,0,0,0,79.05,65,8.21,8.21,0,0,0,78.34,69.87Z"/><path class="cls-1" d="M86,70.82a8.17,8.17,0,0,1-3.48,3.43,7.2,7.2,0,0,1,4-8.29A8.17,8.17,0,0,1,86,70.82Z"/><path class="cls-1" d="M74.75,81a8.24,8.24,0,0,0,1.4,4.69,7.2,7.2,0,0,0,.52-9.19A8.21,8.21,0,0,0,74.75,81Z"/><path class="cls-1" d="M82,83.89a8.29,8.29,0,0,1-4.25,2.43,7.19,7.19,0,0,1,6-7A8.25,8.25,0,0,1,82,83.89Z"/><path class="cls-1" d="M67.73,88.38A8.19,8.19,0,0,0,67,93.21a7.21,7.21,0,0,0,4.41-8.07A8.21,8.21,0,0,0,67.73,88.38Z"/><path class="cls-1" d="M73,94.07a8.23,8.23,0,0,1-4.88.37,7.21,7.21,0,0,1,8.4-3.77A8.21,8.21,0,0,1,73,94.07Z"/><path class="cls-1" d="M58.64,93.3a8.21,8.21,0,0,0-2.49,4.21,8.21,8.21,0,0,0,4.61-1.65,8.25,8.25,0,0,0,2.48-4.22A8.22,8.22,0,0,0,58.64,93.3Z"/><path class="cls-1" d="M61.42,100.53a8.22,8.22,0,0,1-4.67-1.46,8.23,8.23,0,0,1,4.53-1.86A8.22,8.22,0,0,1,66,98.67,8.23,8.23,0,0,1,61.42,100.53Z"/><path class="cls-1" d="M50.25,95.81a8.17,8.17,0,0,0-3.41,3.5,8.22,8.22,0,0,0,4.86-.52,8.24,8.24,0,0,0,3.41-3.5A8.13,8.13,0,0,0,50.25,95.81Z"/><path class="cls-1" d="M51.24,103.49A8.2,8.2,0,0,1,47.05,101a8.23,8.23,0,0,1,4.84-.74,8.2,8.2,0,0,1,4.19,2.52A8.25,8.25,0,0,1,51.24,103.49Z"/><path class="cls-1" d="M7.8,59.75a8.16,8.16,0,0,1-3.51,3.41,8.17,8.17,0,0,1,.53-4.86,8.17,8.17,0,0,1,3.5-3.41A8.22,8.22,0,0,1,7.8,59.75Z"/><path class="cls-1" d="M.12,58.75A8.2,8.2,0,0,0,2.64,63a8.25,8.25,0,0,0,.74-4.84A8.26,8.26,0,0,0,.85,53.92,8.16,8.16,0,0,0,.12,58.75Z"/><path class="cls-1" d="M8.54,69.87A8.24,8.24,0,0,1,6,74.05a8.22,8.22,0,0,1-.7-4.84A8.19,8.19,0,0,1,7.83,65,8.21,8.21,0,0,1,8.54,69.87Z"/><path class="cls-1" d="M.85,70.82a8.23,8.23,0,0,0,3.49,3.43,8.26,8.26,0,0,0-.49-4.86A8.23,8.23,0,0,0,.36,66,8.17,8.17,0,0,0,.85,70.82Z"/><path class="cls-1" d="M12.13,81a8.16,8.16,0,0,1-1.4,4.69,7.22,7.22,0,0,1-.51-9.19A8.24,8.24,0,0,1,12.13,81Z"/><path class="cls-1" d="M4.94,83.89a8.24,8.24,0,0,0,4.24,2.43,8.22,8.22,0,0,0-1.71-4.58,8.2,8.2,0,0,0-4.25-2.43A8.21,8.21,0,0,0,4.94,83.89Z"/><path class="cls-1" d="M19.16,88.38a8.24,8.24,0,0,1,.74,4.83A8.21,8.21,0,0,1,16.24,90a8.19,8.19,0,0,1-.75-4.83A8.21,8.21,0,0,1,19.16,88.38Z"/><path class="cls-1" d="M13.89,94.07a8.23,8.23,0,0,0,4.88.37A8.21,8.21,0,0,0,15.25,91a8.2,8.2,0,0,0-4.87-.37A8.16,8.16,0,0,0,13.89,94.07Z"/><path class="cls-1" d="M28.25,93.3a8.24,8.24,0,0,1,2.48,4.21,8.17,8.17,0,0,1-4.6-1.65,8.23,8.23,0,0,1-2.49-4.22A8.27,8.27,0,0,1,28.25,93.3Z"/><path class="cls-1" d="M25.46,100.53a8.22,8.22,0,0,0,4.67-1.46,8.22,8.22,0,0,0-4.52-1.86,8.22,8.22,0,0,0-4.67,1.46A8.18,8.18,0,0,0,25.46,100.53Z"/><path class="cls-1" d="M36.64,95.81a8.24,8.24,0,0,1,3.41,3.5,8.25,8.25,0,0,1-4.87-.52,8.24,8.24,0,0,1-3.41-3.5A8.16,8.16,0,0,1,36.64,95.81Z"/><path class="cls-1" d="M35.64,103.49A8.2,8.2,0,0,0,39.83,101a8.21,8.21,0,0,0-4.83-.74,8.15,8.15,0,0,0-4.19,2.52A8.21,8.21,0,0,0,35.64,103.49Z"/></g></g></svg>