<svg xmlns="http://www.w3.org/2000/svg" viewBox="0 0 206.86 189.04"><defs><style>.cls-1,.cls-4{fill:#fff;}.cls-2{fill:none;stroke:#000;stroke-linecap:round;stroke-linejoin:round;stroke-width:2.64px;}.cls-3{fill:#191919;}.cls-4{font-size:5.7px;font-family:Avenir-Black, Avenir;font-weight:800;letter-spacing:0.2em;}</style></defs><g id="Layer_2" data-name="Layer 2"><g id="Layer_1-2" data-name="Layer 1"><path class="cls-1" d="M143.62,7.54l-.13-.12a4.23,4.23,0,0,1-.65-.27h0s-6-1.58-11.57-3.28A88.68,88.68,0,0,0,105.05,0c-.11,0-.22.06-.32.06h-.32A88.65,88.65,0,0,0,78.17,3.93C72.63,5.62,66.6,7.2,66.6,7.2v0L66,7.56l-.12,0a77.93,77.93,0,0,0-1.23,11.69h80.23A77.3,77.3,0,0,0,143.62,7.54Z" transform="translate(-2.08)"/><path class="cls-1" d="M104.53,107.39l.2-.53.2.52c23.28-17.13,33.37-39.3,37.47-58.47H67.06C71.15,68.08,81.25,90.27,104.53,107.39Z" transform="translate(-2.08)"/><path class="cls-2" d="M139.88,11.56l-.11-.23-.6-.3,0,0s-5.46-1.45-10.46-3A80.11,80.11,0,0,0,105,4.47h-.58A80,80,0,0,0,80.73,8c-5,1.53-10.46,3-10.46,3v0l-.59.3-.11.23s-11.22,56.09,35,90.07l.18-.52.18.52C151.09,67.65,139.88,11.56,139.88,11.56Z" transform="translate(-2.08)"/><polygon class="cls-1" points="152.14 46.75 53.16 46.75 56 34.23 53.16 21.71 152.14 21.71 148.69 34.23 152.14 46.75"/><path class="cls-3" d="M104.68,67.86a2.78,2.78,0,0,0-.67-.76A9.55,9.55,0,0,0,99,65a5.77,5.77,0,0,1,11.49,0,9.54,9.54,0,0,0-5.33,2.36A2.45,2.45,0,0,0,104.68,67.86Z" transform="translate(-2.08)"/><path class="cls-3" d="M95.18,60a.47.47,0,0,1,.24.05L99,61.54c.16.06.2.13.09.27a5.51,5.51,0,0,0-.46.78c0,.11-.11.15-.22.06l-3.26-2.57A.08.08,0,0,0,95.18,60Z" transform="translate(-2.08)"/><path class="cls-3" d="M110.27,56a2.27,2.27,0,0,1-.19.59l-1.32,3.28c-.1.23-.1.23-.3.1a5.41,5.41,0,0,0-.74-.42c-.16-.07-.17-.15-.06-.28l2.11-2.66A3.83,3.83,0,0,1,110.27,56Z" transform="translate(-2.08)"/><path class="cls-3" d="M99.25,56c.24.3.48.6.71.91.62.78,1.23,1.56,1.85,2.33.11.14.08.2-.07.28s-.53.3-.78.45c-.1.06-.17.08-.22-.05-.5-1.27-1-2.54-1.52-3.81a.25.25,0,0,1,0-.09Z" transform="translate(-2.08)"/><path class="cls-3" d="M114.28,60.06a8.55,8.55,0,0,1-.74.61l-2.43,1.92c-.22.17-.22.17-.35-.08s-.28-.49-.43-.72-.06-.18.08-.24l2.76-1.1,1.08-.43Z" transform="translate(-2.08)"/><path class="cls-3" d="M104.76,54.52c0,.34.1.63.14.93.15,1,.31,2.1.45,3.15,0,.23,0,.23-.21.22a4.38,4.38,0,0,0-.81,0c-.21,0-.25,0-.22-.23.18-1.28.37-2.57.56-3.85A.36.36,0,0,1,104.76,54.52Z" transform="translate(-2.08)"/><path class="cls-3" d="M71.51,29h2.13V40.32H71.51Zm1.07,9.26H75.3a2.35,2.35,0,0,0,1.62-.5,1.8,1.8,0,0,0,.58-1.43V33a1.81,1.81,0,0,0-.58-1.44,2.4,2.4,0,0,0-1.62-.5H72.58V29h2.67a5.55,5.55,0,0,1,2.42.48,3.4,3.4,0,0,1,1.52,1.38,4.34,4.34,0,0,1,.52,2.2v3.2a4.42,4.42,0,0,1-.5,2.14,3.44,3.44,0,0,1-1.51,1.41,5.39,5.39,0,0,1-2.46.51H72.58Z" transform="translate(-2.08)"/><path class="cls-3" d="M84.5,39.92A3.69,3.69,0,0,1,83,38.45a4.54,4.54,0,0,1-.51-2.19v-3.2A4.54,4.54,0,0,1,83,30.87,3.69,3.69,0,0,1,84.5,29.4a4.42,4.42,0,0,1,2.16-.51,4.49,4.49,0,0,1,2.17.51,3.6,3.6,0,0,1,1.45,1.47,4.54,4.54,0,0,1,.51,2.19v3.2a4.54,4.54,0,0,1-.51,2.19,3.6,3.6,0,0,1-1.45,1.47,4.49,4.49,0,0,1-2.17.52A4.42,4.42,0,0,1,84.5,39.92Zm3.17-1.86a1.76,1.76,0,0,0,.68-.7,2.18,2.18,0,0,0,.23-1V33a2.18,2.18,0,0,0-.23-1,1.76,1.76,0,0,0-.68-.7,2,2,0,0,0-1-.24,2.07,2.07,0,0,0-1,.24A1.74,1.74,0,0,0,85,32a2.19,2.19,0,0,0-.24,1v3.32a2.19,2.19,0,0,0,.24,1,1.74,1.74,0,0,0,.67.7,2.07,2.07,0,0,0,1,.24A2,2,0,0,0,87.67,38.06Z" transform="translate(-2.08)"/><path class="cls-3" d="M95.5,39.94a3.3,3.3,0,0,1-1.4-1.44,5,5,0,0,1-.48-2.28V33.11a5,5,0,0,1,.48-2.28,3.38,3.38,0,0,1,1.4-1.45,4.6,4.6,0,0,1,2.21-.49,3.84,3.84,0,0,1,1.9.46A3.61,3.61,0,0,1,101,30.68a5.67,5.67,0,0,1,.76,2.11H99.55a2.82,2.82,0,0,0-.38-.95,1.92,1.92,0,0,0-.63-.61,1.68,1.68,0,0,0-.83-.21,2,2,0,0,0-1,.24,1.6,1.6,0,0,0-.64.72,2.59,2.59,0,0,0-.22,1.13v3.11a2.62,2.62,0,0,0,.22,1.13,1.58,1.58,0,0,0,.64.71,2,2,0,0,0,1,.24,1.8,1.8,0,0,0,.84-.2,1.75,1.75,0,0,0,.63-.61,2.79,2.79,0,0,0,.37-1h2.21a5.85,5.85,0,0,1-.76,2.11A3.87,3.87,0,0,1,99.61,40a4,4,0,0,1-1.9.46A4.6,4.6,0,0,1,95.5,39.94Z" transform="translate(-2.08)"/><path class="cls-3" d="M104.5,29h2.14V40.32H104.5Zm.77,0h6.81v2.06h-6.81Zm0,4.67h6v2.06h-6Zm0,4.59h6.81v2.06h-6.81Z" transform="translate(-2.08)"/><path class="cls-3" d="M114.83,29h2.6l4.21,8.67-.18.2V29h2V40.31h-2.63l-4.19-8.54.18-.2v8.74h-2Z" transform="translate(-2.08)"/><path class="cls-3" d="M125.23,29h8.29v2.06h-8.29Zm3.08.93h2.13V40.32h-2.13Z" transform="translate(-2.08)"/><path class="cls-3" d="M137.31,40.32H135.1V29h2.21Z" transform="translate(-2.08)"/><g id="hfb8mP"><path class="cls-3" d="M93.69,68.89c0,3.41,0,6.82,0,10.23a6.32,6.32,0,0,1,0-.64c0-3.38,0-6.75,0-10.13A2.35,2.35,0,0,1,93.69,68.89Z" transform="translate(-2.08)"/><path class="cls-3" d="M99.47,80.78a18.84,18.84,0,0,0-3.78-.38h-.36a2.36,2.36,0,0,1-.39,0A17.58,17.58,0,0,1,99.47,80.78Z" transform="translate(-2.08)"/><path class="cls-3" d="M104.65,82.27h0Z" transform="translate(-2.08)"/><path class="cls-3" d="M104.39,81.08a1.68,1.68,0,0,1,0,.48h0c-.07.29-.28.35-.79.06a15.79,15.79,0,0,0-8-1.88c-1.25,0-1.25,0-1.25-1.27q0-5.61,0-11.22c0-1.14,0-1.28.94-1.45h0l.33-.06a12.34,12.34,0,0,1,2.4-.2,7.75,7.75,0,0,1,1,.07,8.89,8.89,0,0,1,4.64,2,2,2,0,0,1,.77,1.2h0a2.19,2.19,0,0,1,0,.52c0,.66,0,1.32,0,2v1c0,.72,0,1.45,0,2.17v.67C104.39,77.11,104.37,79.1,104.39,81.08Z" transform="translate(-2.08)"/><path class="cls-3" d="M104.65,82.27h0Z" transform="translate(-2.08)"/><path class="cls-3" d="M115.73,68.36c0,3.54,0,7.09,0,10.63,0,.11,0,.22,0,.32,0-3.49,0-7,0-10.47A2.33,2.33,0,0,1,115.73,68.36Z" transform="translate(-2.08)"/><path class="cls-3" d="M115.08,66.72c0,4.08,0,8.18,0,12.27,0,.56-.25.79-.8.77a16.16,16.16,0,0,0-8.69,2c-.43.23-.54.08-.58-.15h0a2.54,2.54,0,0,1,0-.39q0-3.06,0-6.14v0c0-.9,0-1.81,0-2.71v-1c0-.71,0-1.41,0-2.13a1.71,1.71,0,0,1,0-.4,1.59,1.59,0,0,1,.56-1,8.72,8.72,0,0,1,4.93-2.19,7.66,7.66,0,0,1,1-.06,11.67,11.67,0,0,1,2.66.27l.32.07A.73.73,0,0,1,115.08,66.72Z" transform="translate(-2.08)"/><path class="cls-3" d="M117.13,69.35c0,4.09,0,8.18,0,12.27,0,1.25,0,1.29-1.27,1.29-2.63,0-5.26,0-7.89,0a2,2,0,0,0-1.37.43,3.29,3.29,0,0,1-3.78,0,2.23,2.23,0,0,0-1.45-.45c-2.66,0-5.32,0-8,0-.79,0-1.08-.23-1.07-1,0-2.17,0-4.33,0-6.49V68.89c0-.48,0-1,.67-1,.43,0,.59.18.65.42h0a2.35,2.35,0,0,1,0,.54c0,3.41,0,6.82,0,10.23v.38c0,.73.16,1,.92.9l.32,0h0a17.58,17.58,0,0,1,4.53.4c.21,0,.42.09.62.15l.59.17a13,13,0,0,1,2.56,1.1,1.73,1.73,0,0,0,.84.27.86.86,0,0,0,.56-.19h0a.83.83,0,0,0,.59.24,1.36,1.36,0,0,0,.67-.21,15.33,15.33,0,0,1,7.79-1.91l.62,0,.27,0h.16c.82.06,1-.21,1-1v-.14c0-3.49,0-7,0-10.47a2.33,2.33,0,0,1,0-.48h0c.06-.28.24-.46.69-.44s.62.15.66.55A8.49,8.49,0,0,1,117.13,69.35Z" transform="translate(-2.08)"/></g><path class="cls-1" d="M2.08,138.22H5.63V157.1H2.08Zm1.79,15.45H8.4a4,4,0,0,0,2.71-.84,3,3,0,0,0,1-2.39v-5.56a3,3,0,0,0-1-2.39,4,4,0,0,0-2.71-.84H3.87v-3.43H8.32a9.28,9.28,0,0,1,4,.79,5.6,5.6,0,0,1,2.54,2.31,7.29,7.29,0,0,1,.87,3.66v5.35a7.24,7.24,0,0,1-.84,3.56,5.64,5.64,0,0,1-2.51,2.36,8.92,8.92,0,0,1-4.1.85H3.87Z" transform="translate(-2.08)"/><path class="cls-1" d="M22.42,156.43A6,6,0,0,1,20,154a7.55,7.55,0,0,1-.85-3.66V145a7.54,7.54,0,0,1,.85-3.65,6,6,0,0,1,2.43-2.44A7.28,7.28,0,0,1,26,138a7.34,7.34,0,0,1,3.62.87,6,6,0,0,1,2.42,2.44,7.54,7.54,0,0,1,.85,3.65v5.35a7.55,7.55,0,0,1-.85,3.66,6,6,0,0,1-2.42,2.44,7.45,7.45,0,0,1-3.62.86A7.38,7.38,0,0,1,22.42,156.43Zm5.3-3.1a2.81,2.81,0,0,0,1.12-1.17,3.6,3.6,0,0,0,.4-1.74v-5.53a3.66,3.66,0,0,0-.4-1.74A2.78,2.78,0,0,0,27.72,142a3.69,3.69,0,0,0-3.38,0,2.78,2.78,0,0,0-1.12,1.16,3.78,3.78,0,0,0-.4,1.74v5.53a3.72,3.72,0,0,0,.4,1.74,2.81,2.81,0,0,0,1.12,1.17,3.77,3.77,0,0,0,3.38,0Z" transform="translate(-2.08)"/><path class="cls-1" d="M39.44,156.47a5.46,5.46,0,0,1-2.33-2.4,8.31,8.31,0,0,1-.81-3.81v-5.19a8.31,8.31,0,0,1,.81-3.81,5.46,5.46,0,0,1,2.33-2.4,7.56,7.56,0,0,1,3.69-.84,6.51,6.51,0,0,1,3.18.77A6.19,6.19,0,0,1,48.63,141a9.53,9.53,0,0,1,1.26,3.52H46.21a4.78,4.78,0,0,0-.65-1.59,3.09,3.09,0,0,0-1.05-1,2.77,2.77,0,0,0-1.38-.35,3.34,3.34,0,0,0-1.7.41,2.56,2.56,0,0,0-1.07,1.2,4.32,4.32,0,0,0-.37,1.88v5.19a4.32,4.32,0,0,0,.37,1.88,2.64,2.64,0,0,0,1.07,1.19,3.34,3.34,0,0,0,1.7.4,2.78,2.78,0,0,0,2.45-1.35,4.52,4.52,0,0,0,.63-1.61h3.68a9.7,9.7,0,0,1-1.27,3.53,6.18,6.18,0,0,1-5.49,3A7.68,7.68,0,0,1,39.44,156.47Z" transform="translate(-2.08)"/><path class="cls-1" d="M53.14,138.22H56.7V157.1H53.14Zm1.29,0H65.79v3.43H54.43Zm0,7.79h9.93v3.43H54.43Zm0,7.66H65.79v3.43H54.43Z" transform="translate(-2.08)"/><path class="cls-1" d="M69,138.22h4.35l7,14.46-.31.34v-14.8h3.4v18.86H79.12l-7-14.24.31-.34v14.58H69Z" transform="translate(-2.08)"/><path class="cls-1" d="M85.05,138.22H98.89v3.43H85.05Zm5.14,1.55h3.56V157.1H90.19Z" transform="translate(-2.08)"/><path class="cls-1" d="M103.88,157.1h-3.69V138.22h3.69Z" transform="translate(-2.08)"/><path class="cls-1" d="M125.74,146.54v3.69a7.78,7.78,0,0,1-.85,3.71,6.12,6.12,0,0,1-2.41,2.48,7.28,7.28,0,0,1-3.61.87,7.75,7.75,0,0,1-3.64-.82,6,6,0,0,1-2.44-2.33,6.87,6.87,0,0,1-.86-3.49v-5.58a7.74,7.74,0,0,1,.85-3.7,6,6,0,0,1,2.41-2.47,7.24,7.24,0,0,1,3.6-.88,7.07,7.07,0,0,1,3.12.7,6.4,6.4,0,0,1,2.38,2,7.06,7.06,0,0,1,1.29,2.94h-3.84a2.52,2.52,0,0,0-.64-1,3,3,0,0,0-1-.66,3.56,3.56,0,0,0-1.26-.23,3.23,3.23,0,0,0-1.66.42,2.78,2.78,0,0,0-1.12,1.18,3.84,3.84,0,0,0-.4,1.76v5.58a3,3,0,0,0,.41,1.55,2.62,2.62,0,0,0,1.14,1,3.84,3.84,0,0,0,1.71.36,3.47,3.47,0,0,0,1.68-.39,2.74,2.74,0,0,0,1.11-1.15,3.8,3.8,0,0,0,.39-1.78V150H119.2v-3.43Z" transform="translate(-2.08)"/><path class="cls-1" d="M129.51,138.22h3.55V157.1h-3.55Zm1.58,15.45h11.06v3.43H131.09Z" transform="translate(-2.08)"/><path class="cls-1" d="M147.64,156.43a6.07,6.07,0,0,1-2.43-2.44,7.55,7.55,0,0,1-.85-3.66V145a7.54,7.54,0,0,1,.85-3.65,6,6,0,0,1,2.43-2.44,7.95,7.95,0,0,1,7.23,0,6,6,0,0,1,2.42,2.44,7.54,7.54,0,0,1,.86,3.65v5.35a7.55,7.55,0,0,1-.86,3.66,6,6,0,0,1-2.42,2.44,8,8,0,0,1-7.23,0Zm5.3-3.1a2.81,2.81,0,0,0,1.12-1.17,3.6,3.6,0,0,0,.4-1.74v-5.53a3.66,3.66,0,0,0-.4-1.74,2.78,2.78,0,0,0-1.12-1.16,3.69,3.69,0,0,0-3.38,0,2.85,2.85,0,0,0-1.12,1.16,3.78,3.78,0,0,0-.39,1.74v5.53a3.72,3.72,0,0,0,.39,1.74,2.87,2.87,0,0,0,1.12,1.17,3.77,3.77,0,0,0,3.38,0Z" transform="translate(-2.08)"/><path class="cls-1" d="M161.91,138.22h3.56V157.1h-3.56Zm1.56,15.45h6a2.76,2.76,0,0,0,1.89-.59,2.08,2.08,0,0,0,.67-1.66v0a2.37,2.37,0,0,0-.3-1.22,2,2,0,0,0-.87-.77,3.29,3.29,0,0,0-1.39-.26h-6V145.7h6a2.43,2.43,0,0,0,1.71-.56,2,2,0,0,0,.6-1.57,1.76,1.76,0,0,0-.6-1.42,2.62,2.62,0,0,0-1.71-.5h-6v-3.43h6.14a7.44,7.44,0,0,1,3.13.6,4.39,4.39,0,0,1,2,1.76,5.33,5.33,0,0,1,.68,2.76,4.24,4.24,0,0,1-.44,1.95,3.68,3.68,0,0,1-1.26,1.4,5.07,5.07,0,0,1-2,.73,5.14,5.14,0,0,1,2.13.76,3.78,3.78,0,0,1,1.35,1.54,4.94,4.94,0,0,1,.46,2.2v0a5.29,5.29,0,0,1-.68,2.77,4.31,4.31,0,0,1-2,1.76,7.33,7.33,0,0,1-3.14.61h-6.36Z" transform="translate(-2.08)"/><path class="cls-1" d="M184.48,138.22h2.25L194,157.1h-3.83l-4.51-12.9-4.52,12.9h-3.83Zm-3.76,12.43h9.94v3.42h-9.94Z" transform="translate(-2.08)"/><path class="cls-1" d="M196.29,138.22h3.56V157.1h-3.56Zm1.58,15.45h11.07v3.43H197.87Z" transform="translate(-2.08)"/><path class="cls-1" d="M15.48,171.12a2.45,2.45,0,0,1-.3,1.26,2.33,2.33,0,0,1-.79.83,3.6,3.6,0,0,1-1.12.45,6.23,6.23,0,0,1-1.3.13H8.31V164.6H12a5.84,5.84,0,0,1,1.09.11,3.12,3.12,0,0,1,1,.38,2,2,0,0,1,.74.72A2.11,2.11,0,0,1,15.1,167a2,2,0,0,1-.41,1.27,2.38,2.38,0,0,1-1.09.72v0a2.32,2.32,0,0,1,.73.24,2,2,0,0,1,.6.44,2.23,2.23,0,0,1,.4.64A2.1,2.1,0,0,1,15.48,171.12ZM13,167.26a.73.73,0,0,0-.36-.68,2.12,2.12,0,0,0-1.06-.22H10.45v1.9h1.2a1.62,1.62,0,0,0,1-.25A.87.87,0,0,0,13,167.26Zm.3,3.65a.81.81,0,0,0-.43-.79,2.49,2.49,0,0,0-1.14-.22H10.45V172H11.7a2.59,2.59,0,0,0,.54-.05,1.45,1.45,0,0,0,.51-.16,1.06,1.06,0,0,0,.37-.33A1,1,0,0,0,13.26,170.91Z" transform="translate(-2.08)"/><path class="cls-1" d="M29.65,171.84a3.26,3.26,0,0,1-.8,1.17,3.81,3.81,0,0,1-1.25.76,5.06,5.06,0,0,1-3.26,0A3.76,3.76,0,0,1,23.1,173a3.34,3.34,0,0,1-.78-1.17,4.1,4.1,0,0,1-.27-1.51V164.6h2.21v5.54a2.78,2.78,0,0,0,.09.72,2.11,2.11,0,0,0,.3.6,1.41,1.41,0,0,0,.54.42,2.06,2.06,0,0,0,1.59,0,1.41,1.41,0,0,0,.54-.42,1.69,1.69,0,0,0,.3-.6,2.78,2.78,0,0,0,.09-.72V164.6h2.22v5.73A3.9,3.9,0,0,1,29.65,171.84Z" transform="translate(-2.08)"/><path class="cls-1" d="M41.77,167a2,2,0,0,0-.74-.58,2.17,2.17,0,0,0-.89-.21l-.45,0a1.34,1.34,0,0,0-.41.15,1,1,0,0,0-.3.29.73.73,0,0,0-.13.45.81.81,0,0,0,.1.39,1,1,0,0,0,.29.27,2,2,0,0,0,.44.21l.59.21c.31.1.63.21,1,.34a3.54,3.54,0,0,1,.92.5,2.67,2.67,0,0,1,.69.77,2.25,2.25,0,0,1,.27,1.15,2.92,2.92,0,0,1-.29,1.37,2.71,2.71,0,0,1-.78,1,3.4,3.4,0,0,1-1.13.55,4.47,4.47,0,0,1-1.31.19,5.39,5.39,0,0,1-1.91-.35,3.88,3.88,0,0,1-1.53-1l1.45-1.48a2.64,2.64,0,0,0,.89.7,2.48,2.48,0,0,0,1.1.27,2,2,0,0,0,.48-.05,1.15,1.15,0,0,0,.41-.17.74.74,0,0,0,.27-.31,1,1,0,0,0,.11-.46.75.75,0,0,0-.13-.45,1.34,1.34,0,0,0-.37-.33,2.82,2.82,0,0,0-.6-.27l-.81-.27a6.92,6.92,0,0,1-.86-.33,2.86,2.86,0,0,1-.76-.5,2.49,2.49,0,0,1-.53-.74,2.6,2.6,0,0,1-.2-1.06,2.57,2.57,0,0,1,.31-1.31,2.63,2.63,0,0,1,.82-.9,3.68,3.68,0,0,1,1.14-.51,5.13,5.13,0,0,1,1.29-.17,4.78,4.78,0,0,1,1.59.29,4.14,4.14,0,0,1,1.42.84Z" transform="translate(-2.08)"/><path class="cls-1" d="M49.79,173.79V164.6H52v9.19Z" transform="translate(-2.08)"/><path class="cls-1" d="M65,173.79l-3.7-6h0l.06,6H59.11V164.6h2.53l3.69,6h0l-.05-6h2.15v9.19Z" transform="translate(-2.08)"/><path class="cls-1" d="M74.56,173.79V164.6h6.18v1.87h-4v1.74h3.81V170H76.71v1.91H81v1.89Z" transform="translate(-2.08)"/><path class="cls-1" d="M92.5,167a2.07,2.07,0,0,0-.75-.58,2.14,2.14,0,0,0-.89-.21l-.45,0a1.34,1.34,0,0,0-.41.15,1,1,0,0,0-.3.29.73.73,0,0,0-.13.45.81.81,0,0,0,.1.39,1,1,0,0,0,.29.27,2,2,0,0,0,.44.21l.59.21c.31.1.64.21,1,.34a3.54,3.54,0,0,1,.92.5,2.67,2.67,0,0,1,.69.77,2.25,2.25,0,0,1,.28,1.15,2.92,2.92,0,0,1-.3,1.37,2.71,2.71,0,0,1-.78,1,3.4,3.4,0,0,1-1.13.55,4.47,4.47,0,0,1-1.31.19,5.39,5.39,0,0,1-1.91-.35,3.88,3.88,0,0,1-1.53-1l1.45-1.48a2.64,2.64,0,0,0,.89.7,2.48,2.48,0,0,0,1.1.27,2,2,0,0,0,.48-.05,1.15,1.15,0,0,0,.41-.17.84.84,0,0,0,.28-.31,1.08,1.08,0,0,0,.1-.46.75.75,0,0,0-.13-.45,1.34,1.34,0,0,0-.37-.33,2.82,2.82,0,0,0-.6-.27l-.81-.27a6.92,6.92,0,0,1-.86-.33,3,3,0,0,1-.76-.5,2.49,2.49,0,0,1-.53-.74,2.6,2.6,0,0,1-.2-1.06,2.57,2.57,0,0,1,.31-1.31,2.63,2.63,0,0,1,.82-.9,3.68,3.68,0,0,1,1.14-.51,5.19,5.19,0,0,1,1.29-.17,4.78,4.78,0,0,1,1.59.29,4.14,4.14,0,0,1,1.42.84Z" transform="translate(-2.08)"/><path class="cls-1" d="M105.36,167a2,2,0,0,0-.74-.58,2.17,2.17,0,0,0-.89-.21l-.45,0a1.34,1.34,0,0,0-.41.15,1,1,0,0,0-.3.29.73.73,0,0,0-.13.45.71.71,0,0,0,.1.39.91.91,0,0,0,.28.27,2.35,2.35,0,0,0,.45.21l.59.21c.31.1.63.21,1,.34a3.54,3.54,0,0,1,.92.5,2.67,2.67,0,0,1,.69.77,2.25,2.25,0,0,1,.27,1.15,2.92,2.92,0,0,1-.29,1.37,2.71,2.71,0,0,1-.78,1,3.4,3.4,0,0,1-1.13.55,4.48,4.48,0,0,1-1.32.19,5.37,5.37,0,0,1-1.9-.35,4,4,0,0,1-1.54-1l1.46-1.48a2.64,2.64,0,0,0,.89.7,2.47,2.47,0,0,0,1.09.27,2,2,0,0,0,.49-.05,1,1,0,0,0,.4-.17.77.77,0,0,0,.28-.31,1,1,0,0,0,.11-.46.82.82,0,0,0-.13-.45,1.34,1.34,0,0,0-.37-.33,2.82,2.82,0,0,0-.6-.27l-.81-.27a6.36,6.36,0,0,1-.86-.33,2.86,2.86,0,0,1-.76-.5,2.33,2.33,0,0,1-.53-.74,2.6,2.6,0,0,1-.2-1.06,2.57,2.57,0,0,1,.31-1.31,2.63,2.63,0,0,1,.82-.9,3.68,3.68,0,0,1,1.14-.51,5.07,5.07,0,0,1,1.29-.17,4.78,4.78,0,0,1,1.59.29,4.14,4.14,0,0,1,1.42.84Z" transform="translate(-2.08)"/><path class="cls-1" d="M126.67,167a2,2,0,0,0-.74-.58,2.17,2.17,0,0,0-.89-.21l-.45,0a1.34,1.34,0,0,0-.41.15,1.22,1.22,0,0,0-.31.29.79.79,0,0,0-.12.45.71.71,0,0,0,.1.39.91.91,0,0,0,.28.27,2.35,2.35,0,0,0,.45.21l.59.21c.31.1.63.21,1,.34a3.54,3.54,0,0,1,.92.5,2.67,2.67,0,0,1,.69.77A2.25,2.25,0,0,1,128,171a2.92,2.92,0,0,1-.29,1.37,2.82,2.82,0,0,1-.78,1,3.4,3.4,0,0,1-1.13.55,4.53,4.53,0,0,1-1.32.19,5.37,5.37,0,0,1-1.9-.35,4,4,0,0,1-1.54-1l1.46-1.48a2.64,2.64,0,0,0,.89.7,2.44,2.44,0,0,0,1.09.27,1.86,1.86,0,0,0,.48-.05,1,1,0,0,0,.41-.17.77.77,0,0,0,.28-.31,1,1,0,0,0,.11-.46.82.82,0,0,0-.13-.45,1.34,1.34,0,0,0-.37-.33,2.82,2.82,0,0,0-.6-.27l-.81-.27a7.06,7.06,0,0,1-.87-.33,3,3,0,0,1-.75-.5,2.33,2.33,0,0,1-.53-.74,2.45,2.45,0,0,1-.2-1.06,2.57,2.57,0,0,1,.31-1.31,2.63,2.63,0,0,1,.82-.9,3.58,3.58,0,0,1,1.14-.51,5.07,5.07,0,0,1,1.29-.17,4.87,4.87,0,0,1,1.59.29,4.14,4.14,0,0,1,1.42.84Z" transform="translate(-2.08)"/><path class="cls-1" d="M141.27,173.63a5,5,0,0,1-2.07.41,5.42,5.42,0,0,1-2-.35,4.64,4.64,0,0,1-1.57-1,4.56,4.56,0,0,1-1-1.53,5.1,5.1,0,0,1-.37-2,5,5,0,0,1,.38-2,4.43,4.43,0,0,1,1.06-1.52,4.65,4.65,0,0,1,1.58-1,5.49,5.49,0,0,1,2-.34,5.57,5.57,0,0,1,1.92.35,3.64,3.64,0,0,1,1.52,1l-1.5,1.51a1.86,1.86,0,0,0-.82-.64,2.68,2.68,0,0,0-1-.21,2.66,2.66,0,0,0-1.07.22,2.5,2.5,0,0,0-.84.59,2.76,2.76,0,0,0-.54.89,3.14,3.14,0,0,0-.2,1.12,3.27,3.27,0,0,0,.2,1.15,2.76,2.76,0,0,0,.54.89,2.41,2.41,0,0,0,.82.57,2.59,2.59,0,0,0,1.05.21,2.51,2.51,0,0,0,1.16-.26,2.26,2.26,0,0,0,.79-.67l1.54,1.45A4.2,4.2,0,0,1,141.27,173.63Z" transform="translate(-2.08)"/><path class="cls-1" d="M154.72,173.79V170h-3.58v3.84h-2.22V164.6h2.22v3.48h3.58V164.6h2.22v9.19Z" transform="translate(-2.08)"/><path class="cls-1" d="M173.62,169.16a5.15,5.15,0,0,1-.38,2,4.39,4.39,0,0,1-1.05,1.54,4.63,4.63,0,0,1-1.59,1,5.86,5.86,0,0,1-4,0,4.68,4.68,0,0,1-1.58-1,4.39,4.39,0,0,1-1.05-1.54,5.43,5.43,0,0,1,0-4,4.36,4.36,0,0,1,1.05-1.51,4.44,4.44,0,0,1,1.58-1,6,6,0,0,1,4,0,4.43,4.43,0,0,1,2.64,2.47A5.13,5.13,0,0,1,173.62,169.16Zm-2.38,0A3.18,3.18,0,0,0,171,168a2.81,2.81,0,0,0-.53-.89,2.38,2.38,0,0,0-.84-.58,2.5,2.5,0,0,0-1.07-.22,2.6,2.6,0,0,0-1.89.8,2.37,2.37,0,0,0-.54.89,3.18,3.18,0,0,0-.19,1.12,3.3,3.3,0,0,0,.19,1.15,2.7,2.7,0,0,0,.54.9,2.46,2.46,0,0,0,.83.59,2.61,2.61,0,0,0,1.06.21,2.65,2.65,0,0,0,1.07-.21,2.46,2.46,0,0,0,.83-.59,2.7,2.7,0,0,0,.54-.9A3.31,3.31,0,0,0,171.24,169.16Z" transform="translate(-2.08)"/><path class="cls-1" d="M189.86,169.16a5.15,5.15,0,0,1-.38,2,4.51,4.51,0,0,1-1,1.54,4.83,4.83,0,0,1-1.59,1,5.89,5.89,0,0,1-4,0,4.78,4.78,0,0,1-1.58-1,4.53,4.53,0,0,1-1.05-1.54,5.56,5.56,0,0,1,0-4,4.45,4.45,0,0,1,2.63-2.47,6.05,6.05,0,0,1,4,0,4.58,4.58,0,0,1,1.59,1,4.48,4.48,0,0,1,1,1.51A5.13,5.13,0,0,1,189.86,169.16Zm-2.38,0a3.18,3.18,0,0,0-.19-1.12,2.65,2.65,0,0,0-.54-.89,2.44,2.44,0,0,0-.83-.58,2.53,2.53,0,0,0-1.07-.22,2.5,2.5,0,0,0-1.07.22,2.54,2.54,0,0,0-.83.58,2.65,2.65,0,0,0-.54.89,3.42,3.42,0,0,0-.19,1.12,3.31,3.31,0,0,0,.2,1.15,2.7,2.7,0,0,0,.54.9,2.42,2.42,0,0,0,.82.59,2.65,2.65,0,0,0,1.07.21,2.61,2.61,0,0,0,1.06-.21,2.46,2.46,0,0,0,.83-.59,2.57,2.57,0,0,0,.55-.9A3.3,3.3,0,0,0,187.48,169.16Z" transform="translate(-2.08)"/><path class="cls-1" d="M196.52,173.79V164.6h2.23v7.26h3.56v1.93Z" transform="translate(-2.08)"/><path class="cls-1" d="M146.91,70.72a9.8,9.8,0,0,0,4.15,4,9.72,9.72,0,0,0-.62-5.76,9.74,9.74,0,0,0-4.15-4A9.72,9.72,0,0,0,146.91,70.72Z" transform="translate(-2.08)"/><path class="cls-1" d="M156,69.54a9.76,9.76,0,0,1-3,5,9.66,9.66,0,0,1-.87-5.72,9.7,9.7,0,0,1,3-5A9.71,9.71,0,0,1,156,69.54Z" transform="translate(-2.08)"/><path class="cls-1" d="M146,82.7a9.74,9.74,0,0,0,3,5,9.74,9.74,0,0,0,.84-5.73,9.73,9.73,0,0,0-3-5A9.69,9.69,0,0,0,146,82.7Z" transform="translate(-2.08)"/><path class="cls-1" d="M155.14,83.83A9.73,9.73,0,0,1,151,87.89a8.52,8.52,0,0,1,4.71-9.82A9.71,9.71,0,0,1,155.14,83.83Z" transform="translate(-2.08)"/><path class="cls-1" d="M141.78,95.88a9.73,9.73,0,0,0,1.66,5.55,8.51,8.51,0,0,0,.61-10.87A9.71,9.71,0,0,0,141.78,95.88Z" transform="translate(-2.08)"/><path class="cls-1" d="M150.3,99.29a9.7,9.7,0,0,1-5,2.87,8.49,8.49,0,0,1,7.05-8.29A9.7,9.7,0,0,1,150.3,99.29Z" transform="translate(-2.08)"/><path class="cls-1" d="M133.47,104.6a9.74,9.74,0,0,0-.88,5.73,8.55,8.55,0,0,0,5.22-9.56A9.74,9.74,0,0,0,133.47,104.6Z" transform="translate(-2.08)"/><path class="cls-1" d="M139.7,111.34a9.74,9.74,0,0,1-5.77.44,8.52,8.52,0,0,1,9.93-4.47A9.72,9.72,0,0,1,139.7,111.34Z" transform="translate(-2.08)"/><path class="cls-1" d="M122.71,110.43a9.73,9.73,0,0,0-2.94,5,8.5,8.5,0,0,0,8.39-6.94A9.72,9.72,0,0,0,122.71,110.43Z" transform="translate(-2.08)"/><path class="cls-1" d="M126,119a9.72,9.72,0,0,1-5.53-1.73,8.52,8.52,0,0,1,10.88-.47A9.71,9.71,0,0,1,126,119Z" transform="translate(-2.08)"/><path class="cls-1" d="M112.78,113.39a9.74,9.74,0,0,0-4,4.15,8.52,8.52,0,0,0,9.79-4.76A9.76,9.76,0,0,0,112.78,113.39Z" transform="translate(-2.08)"/><path class="cls-1" d="M114,122.49a9.69,9.69,0,0,1-5-3,8.52,8.52,0,0,1,10.68,2.12A9.66,9.66,0,0,1,114,122.49Z" transform="translate(-2.08)"/><path class="cls-1" d="M62.54,70.72a9.74,9.74,0,0,1-4.15,4A9.72,9.72,0,0,1,59,69a9.8,9.8,0,0,1,4.15-4A9.72,9.72,0,0,1,62.54,70.72Z" transform="translate(-2.08)"/><path class="cls-1" d="M53.45,69.54a9.7,9.7,0,0,0,3,5,9.71,9.71,0,0,0,.88-5.72,9.76,9.76,0,0,0-3-5A9.66,9.66,0,0,0,53.45,69.54Z" transform="translate(-2.08)"/><path class="cls-1" d="M63.42,82.7a9.73,9.73,0,0,1-3,5A8.56,8.56,0,0,1,62.58,77,9.74,9.74,0,0,1,63.42,82.7Z" transform="translate(-2.08)"/><path class="cls-1" d="M54.32,83.83a9.73,9.73,0,0,0,4.12,4.06,8.52,8.52,0,0,0-4.71-9.82A9.67,9.67,0,0,0,54.32,83.83Z" transform="translate(-2.08)"/><path class="cls-1" d="M67.67,95.88A9.73,9.73,0,0,1,66,101.43a8.51,8.51,0,0,1-.61-10.87A9.71,9.71,0,0,1,67.67,95.88Z" transform="translate(-2.08)"/><path class="cls-1" d="M59.15,99.29a9.71,9.71,0,0,0,5,2.87,8.51,8.51,0,0,0-7.06-8.29A9.7,9.7,0,0,0,59.15,99.29Z" transform="translate(-2.08)"/><path class="cls-1" d="M76,104.6a9.79,9.79,0,0,1,.89,5.73,8.52,8.52,0,0,1-5.22-9.56A9.74,9.74,0,0,1,76,104.6Z" transform="translate(-2.08)"/><path class="cls-1" d="M69.75,111.34a9.77,9.77,0,0,0,5.78.44,9.72,9.72,0,0,0-4.16-4,9.77,9.77,0,0,0-5.78-.44A9.72,9.72,0,0,0,69.75,111.34Z" transform="translate(-2.08)"/><path class="cls-1" d="M86.74,110.43a9.65,9.65,0,0,1,2.94,5,8.5,8.5,0,0,1-8.39-6.94A9.7,9.7,0,0,1,86.74,110.43Z" transform="translate(-2.08)"/><path class="cls-1" d="M83.45,119A9.71,9.71,0,0,0,89,117.26a9.71,9.71,0,0,0-5.35-2.2,9.72,9.72,0,0,0-5.53,1.73A9.72,9.72,0,0,0,83.45,119Z" transform="translate(-2.08)"/><path class="cls-1" d="M96.67,113.39a9.72,9.72,0,0,1,4,4.15,8.5,8.5,0,0,1-9.79-4.76A9.73,9.73,0,0,1,96.67,113.39Z" transform="translate(-2.08)"/><path class="cls-1" d="M95.5,122.49a9.69,9.69,0,0,0,5-3,8.52,8.52,0,0,0-10.68,2.12A9.7,9.7,0,0,0,95.5,122.49Z" transform="translate(-2.08)"/><text class="cls-4" transform="translate(23.95 186.43)">DEVELOPING GLOBAL BUSINESS LEADERS</text></g></g></svg>