<svg xmlns="http://www.w3.org/2000/svg" viewBox="0 0 160.56 146.72"><defs><style>.cls-1{fill:#007f35;}.cls-2{fill:none;stroke:#fff;stroke-linecap:round;stroke-linejoin:round;stroke-width:2.05px;}.cls-3{fill:#ebb225;}.cls-4,.cls-6{fill:#fff;}.cls-5{fill:#97b900;}.cls-6{font-size:4.43px;font-family:Avenir-Black, Avenir;font-weight:800;letter-spacing:0.2em;}</style></defs><g id="Layer_2" data-name="Layer 2"><g id="Layer_1-2" data-name="Layer 1"><path class="cls-1" d="M111.47,5.85l-.09-.09a3.43,3.43,0,0,1-.51-.21h0s-4.68-1.24-9-2.55A68.57,68.57,0,0,0,81.53,0c-.08,0-.16,0-.24,0H81a68.58,68.58,0,0,0-20.36,3c-4.3,1.32-9,2.54-9,2.54v0l-.5.25h-.1a59.38,59.38,0,0,0-1,9.06h62.27A59.65,59.65,0,0,0,111.47,5.85Z" transform="translate(-1.61)"/><path class="cls-1" d="M81.13,83.36l.16-.42.15.4A74.24,74.24,0,0,0,110.53,38H52.05C55.23,52.84,63.06,70.06,81.13,83.36Z" transform="translate(-1.61)"/><path class="cls-2" d="M108.57,9l-.09-.18L108,8.56v0s-4.23-1.12-8.12-2.31a62,62,0,0,0-18.4-2.75h-.45a62,62,0,0,0-18.4,2.75c-3.89,1.19-8.12,2.31-8.12,2.31v0l-.46.23L54,9S45.3,52.5,81.15,78.88l.14-.4.14.4C117.28,52.5,108.57,9,108.57,9Z" transform="translate(-1.61)"/><polygon class="cls-3" points="118.09 36.28 41.26 36.28 43.47 26.57 41.26 16.85 118.09 16.85 115.41 26.57 118.09 36.28"/><path class="cls-3" d="M81.25,52.67a2.37,2.37,0,0,0-.52-.59,7.48,7.48,0,0,0-3.9-1.66,4.48,4.48,0,0,1,8.92,0,7.39,7.39,0,0,0-4.13,1.83A1.88,1.88,0,0,0,81.25,52.67Z" transform="translate(-1.61)"/><path class="cls-3" d="M73.88,46.6a.34.34,0,0,1,.18,0l2.81,1.12c.12.05.16.1.07.21a3.7,3.7,0,0,0-.35.61c0,.08-.09.12-.18.05l-2.53-2Z" transform="translate(-1.61)"/><path class="cls-3" d="M85.59,43.43a1.77,1.77,0,0,1-.15.46l-1,2.55c-.08.18-.08.18-.24.07a4,4,0,0,0-.57-.32c-.12-.06-.13-.11,0-.22.55-.69,1.09-1.38,1.64-2.06A3.92,3.92,0,0,1,85.59,43.43Z" transform="translate(-1.61)"/><path class="cls-3" d="M77,43.46l.56.7L79,46c.09.12.06.16,0,.22s-.41.23-.61.35-.13.06-.17,0l-1.17-3s0,0,0-.08Z" transform="translate(-1.61)"/><path class="cls-3" d="M88.7,46.62a6.17,6.17,0,0,1-.57.47l-1.89,1.49c-.17.14-.17.13-.27-.06L85.64,48c-.07-.1,0-.14.06-.18l2.14-.86.83-.34Z" transform="translate(-1.61)"/><path class="cls-3" d="M81.31,42.31c0,.27.08.5.11.73.12.81.24,1.63.35,2.45,0,.17,0,.18-.17.16a4.3,4.3,0,0,0-.62,0c-.16,0-.2,0-.17-.18.14-1,.28-2,.43-3A.34.34,0,0,1,81.31,42.31Z" transform="translate(-1.61)"/><path class="cls-4" d="M55.5,22.51h1.66v8.78H55.5Zm.84,7.19h2.1a1.87,1.87,0,0,0,1.27-.39,1.45,1.45,0,0,0,.44-1.12V25.61a1.42,1.42,0,0,0-.44-1.11,1.87,1.87,0,0,0-1.27-.39h-2.1v-1.6h2.07a4.24,4.24,0,0,1,1.87.37A2.56,2.56,0,0,1,61.46,24a3.41,3.41,0,0,1,.41,1.71v2.49a3.35,3.35,0,0,1-.39,1.65,2.66,2.66,0,0,1-1.17,1.1,4.22,4.22,0,0,1-1.91.39H56.34Z" transform="translate(-1.61)"/><path class="cls-4" d="M65.58,31a2.77,2.77,0,0,1-1.12-1.13,3.47,3.47,0,0,1-.4-1.7V25.66a3.45,3.45,0,0,1,.4-1.7,2.79,2.79,0,0,1,1.12-1.14,3.75,3.75,0,0,1,3.37,0A2.79,2.79,0,0,1,70.07,24a3.45,3.45,0,0,1,.4,1.7v2.49a3.47,3.47,0,0,1-.4,1.7A2.77,2.77,0,0,1,69,31a3.75,3.75,0,0,1-3.37,0Zm2.47-1.44a1.29,1.29,0,0,0,.52-.54,1.67,1.67,0,0,0,.19-.81V25.61a1.6,1.6,0,0,0-.19-.8,1.18,1.18,0,0,0-.52-.54,1.53,1.53,0,0,0-.78-.2,1.57,1.57,0,0,0-.79.2,1.18,1.18,0,0,0-.52.54,1.6,1.6,0,0,0-.19.8v2.58A1.67,1.67,0,0,0,66,29a1.29,1.29,0,0,0,.52.54,1.68,1.68,0,0,0,.79.19A1.64,1.64,0,0,0,68.05,29.54Z" transform="translate(-1.61)"/><path class="cls-4" d="M74.12,31A2.6,2.6,0,0,1,73,29.88a3.85,3.85,0,0,1-.38-1.77V25.7A3.85,3.85,0,0,1,73,23.93a2.54,2.54,0,0,1,1.08-1.12,3.55,3.55,0,0,1,1.72-.39,3,3,0,0,1,1.48.36,3,3,0,0,1,1.08,1A4.42,4.42,0,0,1,79,25.45H77.27a2,2,0,0,0-.3-.74,1.37,1.37,0,0,0-.49-.47,1.25,1.25,0,0,0-.64-.17,1.49,1.49,0,0,0-.79.2,1.17,1.17,0,0,0-.5.55,2,2,0,0,0-.17.88v2.41a1.93,1.93,0,0,0,.17.87,1.19,1.19,0,0,0,.5.56,1.59,1.59,0,0,0,.79.19,1.28,1.28,0,0,0,.65-.16A1.37,1.37,0,0,0,77,29.1a2.14,2.14,0,0,0,.29-.75H79A4.54,4.54,0,0,1,78.39,30a2.91,2.91,0,0,1-1.08,1,3.07,3.07,0,0,1-1.47.35A3.55,3.55,0,0,1,74.12,31Z" transform="translate(-1.61)"/><path class="cls-4" d="M81.11,22.51h1.66v8.78H81.11Zm.6,0H87v1.6H81.71Zm0,3.62h4.62v1.6H81.71Zm0,3.57H87v1.59H81.71Z" transform="translate(-1.61)"/><path class="cls-4" d="M89.12,22.51h2l3.27,6.73-.15.16V22.51h1.58v8.78h-2l-3.26-6.63.15-.16v6.79H89.12Z" transform="translate(-1.61)"/><path class="cls-4" d="M97.2,22.51h6.43v1.6H97.2Zm2.39.72h1.65v8.06H99.59Z" transform="translate(-1.61)"/><path class="cls-4" d="M106.57,31.29h-1.71V22.51h1.71Z" transform="translate(-1.61)"/><g id="hfb8mP"><path class="cls-5" d="M72.72,53.47c0,2.65,0,5.29,0,7.94,0-.15,0-.31,0-.49V53.05A1.89,1.89,0,0,1,72.72,53.47Z" transform="translate(-1.61)"/><path class="cls-5" d="M77.21,62.7a14.44,14.44,0,0,0-2.94-.29H74l-.3,0A13.35,13.35,0,0,1,77.21,62.7Z" transform="translate(-1.61)"/><path class="cls-5" d="M81.23,63.86h0Z" transform="translate(-1.61)"/><path class="cls-5" d="M81,62.93a1.77,1.77,0,0,1,0,.37h0c-.06.23-.22.27-.62,0a12.19,12.19,0,0,0-6.21-1.46c-1,0-1,0-1-1V52.2c0-.88,0-1,.73-1.12h0l.25,0a10,10,0,0,1,1.86-.15,6,6,0,0,1,.75,0,6.86,6.86,0,0,1,3.6,1.54,1.55,1.55,0,0,1,.6.93h0a1.73,1.73,0,0,1,0,.41c0,.51,0,1,0,1.53v.75c0,.56,0,1.13,0,1.69v.52C81,59.85,81,61.39,81,62.93Z" transform="translate(-1.61)"/><path class="cls-5" d="M81.23,63.86h0Z" transform="translate(-1.61)"/><path class="cls-5" d="M89.83,53.06q0,4.13,0,8.25a2,2,0,0,1,0,.25c0-2.71,0-5.42,0-8.13A1.42,1.42,0,0,1,89.83,53.06Z" transform="translate(-1.61)"/><path class="cls-5" d="M89.32,51.78c0,3.18,0,6.35,0,9.53,0,.44-.19.61-.62.59A12.72,12.72,0,0,0,82,63.45c-.32.18-.42.07-.44-.12h0a1.53,1.53,0,0,1,0-.3c0-1.59,0-3.18,0-4.77v0c0-.7,0-1.4,0-2.1v-.77c0-.55,0-1.1,0-1.65a1.67,1.67,0,0,1,0-.32,1.27,1.27,0,0,1,.44-.76,6.87,6.87,0,0,1,3.83-1.7c.24,0,.49,0,.75,0a9.18,9.18,0,0,1,2.06.21l.25,0A.57.57,0,0,1,89.32,51.78Z" transform="translate(-1.61)"/><path class="cls-5" d="M90.92,53.83v9.52c0,1,0,1-1,1-2,0-4.08,0-6.13,0a1.54,1.54,0,0,0-1.06.33,2.56,2.56,0,0,1-2.93,0,1.69,1.69,0,0,0-1.13-.35c-2.07,0-4.13,0-6.19,0-.62,0-.84-.18-.83-.81,0-1.69,0-3.36,0-5v-5c0-.37,0-.75.52-.75.34,0,.46.14.5.33h0a1.89,1.89,0,0,1,0,.42c0,2.65,0,5.29,0,7.94v.3c0,.56.13.73.71.7l.25,0h0a13.35,13.35,0,0,1,3.52.31l.48.12.46.13a10.28,10.28,0,0,1,2,.85,1.32,1.32,0,0,0,.65.21.67.67,0,0,0,.44-.15h0a.7.7,0,0,0,.47.18,1,1,0,0,0,.51-.16,11.87,11.87,0,0,1,6-1.48h.49l.2,0h.13c.63,0,.75-.17.74-.74v-.11c0-2.71,0-5.42,0-8.13a1.42,1.42,0,0,1,0-.37h0c0-.22.18-.35.53-.34s.48.12.51.43A5.06,5.06,0,0,1,90.92,53.83Z" transform="translate(-1.61)"/></g><path class="cls-1" d="M1.61,107.28H4.37v14.65H1.61Zm1.39,12H6.52a3.13,3.13,0,0,0,2.11-.65,2.37,2.37,0,0,0,.74-1.86v-4.31a2.34,2.34,0,0,0-.74-1.85,3.08,3.08,0,0,0-2.11-.66H3v-2.66H6.46a7.25,7.25,0,0,1,3.13.62,4.34,4.34,0,0,1,2,1.79,5.63,5.63,0,0,1,.67,2.84v4.15a5.52,5.52,0,0,1-.65,2.76,4.41,4.41,0,0,1-1.95,1.84,6.93,6.93,0,0,1-3.18.65H3Z" transform="translate(-1.61)"/><path class="cls-1" d="M17.4,121.41a4.57,4.57,0,0,1-1.88-1.89,5.9,5.9,0,0,1-.67-2.84v-4.15a5.93,5.93,0,0,1,.67-2.84,4.69,4.69,0,0,1,1.88-1.89,5.66,5.66,0,0,1,2.8-.67,5.67,5.67,0,0,1,2.81.67,4.69,4.69,0,0,1,1.88,1.89,5.93,5.93,0,0,1,.67,2.84v4.15a5.9,5.9,0,0,1-.67,2.84A4.57,4.57,0,0,1,23,121.41a5.67,5.67,0,0,1-2.81.67A5.66,5.66,0,0,1,17.4,121.41Zm4.11-2.4a2.27,2.27,0,0,0,.88-.91,2.92,2.92,0,0,0,.3-1.35v-4.29a2.92,2.92,0,0,0-.3-1.35,2.18,2.18,0,0,0-.88-.9,2.62,2.62,0,0,0-1.31-.32,2.67,2.67,0,0,0-1.31.32,2.22,2.22,0,0,0-.87.9,2.92,2.92,0,0,0-.3,1.35v4.29a2.92,2.92,0,0,0,.3,1.35,2.31,2.31,0,0,0,.87.91,2.67,2.67,0,0,0,1.31.31A2.62,2.62,0,0,0,21.51,119Z" transform="translate(-1.61)"/><path class="cls-1" d="M30.61,121.44a4.23,4.23,0,0,1-1.81-1.86,6.41,6.41,0,0,1-.62-3v-4a6.44,6.44,0,0,1,.62-3,4.36,4.36,0,0,1,1.81-1.87,6.08,6.08,0,0,1,2.87-.64,5.08,5.08,0,0,1,2.46.59,4.88,4.88,0,0,1,1.8,1.73,7.54,7.54,0,0,1,1,2.74H35.86a3.58,3.58,0,0,0-.49-1.24,2.46,2.46,0,0,0-.82-.79,2.15,2.15,0,0,0-1.07-.27,2.58,2.58,0,0,0-1.32.32,2.06,2.06,0,0,0-.84.93A3.4,3.4,0,0,0,31,112.6v4a3.4,3.4,0,0,0,.28,1.46,2.11,2.11,0,0,0,.84.93,2.58,2.58,0,0,0,1.32.31,2.27,2.27,0,0,0,1.08-.26,2.21,2.21,0,0,0,.82-.79,3.57,3.57,0,0,0,.48-1.24h2.87a7.49,7.49,0,0,1-1,2.73,4.85,4.85,0,0,1-1.79,1.73,5,5,0,0,1-2.46.59A6,6,0,0,1,30.61,121.44Z" transform="translate(-1.61)"/><path class="cls-1" d="M41.25,107.28H44v14.65H41.25Zm1,0h8.82v2.66H42.24Zm0,6H50V116H42.24Zm0,5.94h8.82v2.66H42.24Z" transform="translate(-1.61)"/><path class="cls-1" d="M53.58,107.28H57l5.45,11.23-.24.26V107.28h2.64v14.64h-3.4l-5.43-11,.24-.26v11.31H53.58Z" transform="translate(-1.61)"/><path class="cls-1" d="M66,107.28H76.76v2.66H66Zm4,1.2h2.76v13.45H70Z" transform="translate(-1.61)"/><path class="cls-1" d="M80.63,121.93H77.76V107.28h2.87Z" transform="translate(-1.61)"/><path class="cls-1" d="M97.6,113.74v2.86a6.06,6.06,0,0,1-.66,2.88,4.68,4.68,0,0,1-1.87,1.92,5.56,5.56,0,0,1-2.8.68,6,6,0,0,1-2.83-.64,4.58,4.58,0,0,1-1.9-1.8,5.46,5.46,0,0,1-.67-2.72V112.6a6,6,0,0,1,.66-2.87,4.68,4.68,0,0,1,1.87-1.92,5.67,5.67,0,0,1,2.81-.68,5.42,5.42,0,0,1,2.41.54,5,5,0,0,1,1.85,1.53,5.56,5.56,0,0,1,1,2.28h-3a1.87,1.87,0,0,0-.5-.8,2.42,2.42,0,0,0-.81-.51,2.69,2.69,0,0,0-1-.18,2.58,2.58,0,0,0-1.3.32,2.27,2.27,0,0,0-.87.92,3,3,0,0,0-.3,1.37v4.32a2.29,2.29,0,0,0,.31,1.21,2.06,2.06,0,0,0,.89.81,2.93,2.93,0,0,0,1.33.28,2.6,2.6,0,0,0,1.3-.31,2.06,2.06,0,0,0,.86-.89,3,3,0,0,0,.3-1.38v-.24H92.52v-2.66Z" transform="translate(-1.61)"/><path class="cls-1" d="M100.52,107.28h2.76v14.65h-2.76Zm1.23,12h8.58v2.66h-8.58Z" transform="translate(-1.61)"/><path class="cls-1" d="M114.59,121.41a4.63,4.63,0,0,1-1.88-1.89,5.9,5.9,0,0,1-.66-2.84v-4.15a5.92,5.92,0,0,1,.66-2.84,4.75,4.75,0,0,1,1.88-1.89,6.21,6.21,0,0,1,5.61,0,4.69,4.69,0,0,1,1.88,1.89,5.81,5.81,0,0,1,.67,2.84v4.15a5.79,5.79,0,0,1-.67,2.84,4.57,4.57,0,0,1-1.88,1.89,6.21,6.21,0,0,1-5.61,0Zm4.12-2.4a2.31,2.31,0,0,0,.87-.91,2.92,2.92,0,0,0,.31-1.35v-4.29a2.92,2.92,0,0,0-.31-1.35,2.22,2.22,0,0,0-.87-.9,2.65,2.65,0,0,0-1.31-.32,2.62,2.62,0,0,0-1.31.32,2.1,2.1,0,0,0-.87.9,2.8,2.8,0,0,0-.31,1.35v4.29a2.8,2.8,0,0,0,.31,1.35,2.18,2.18,0,0,0,.87.91,2.92,2.92,0,0,0,2.62,0Z" transform="translate(-1.61)"/><path class="cls-1" d="M125.67,107.28h2.76v14.65h-2.76Zm1.21,12h4.68a2.1,2.1,0,0,0,1.46-.46,1.6,1.6,0,0,0,.52-1.28v0a1.88,1.88,0,0,0-.23-1,1.53,1.53,0,0,0-.68-.6,2.69,2.69,0,0,0-1.07-.2h-4.68v-2.66h4.68a1.86,1.86,0,0,0,1.32-.44,1.58,1.58,0,0,0,.47-1.22,1.38,1.38,0,0,0-.47-1.1,2,2,0,0,0-1.32-.39h-4.68v-2.66h4.77a5.82,5.82,0,0,1,2.43.47,3.39,3.39,0,0,1,1.53,1.36,4.14,4.14,0,0,1,.52,2.14,3.24,3.24,0,0,1-.34,1.52,2.74,2.74,0,0,1-1,1.08,4.21,4.21,0,0,1-1.55.58,3.78,3.78,0,0,1,1.66.59,2.85,2.85,0,0,1,1,1.19,3.83,3.83,0,0,1,.36,1.7v0a4.12,4.12,0,0,1-.53,2.16,3.31,3.31,0,0,1-1.54,1.36,5.6,5.6,0,0,1-2.43.47h-4.94Z" transform="translate(-1.61)"/><path class="cls-1" d="M143.19,107.28h1.75l5.6,14.65h-3l-3.51-10-3.5,10h-3Zm-2.92,9.64H148v2.67h-7.71Z" transform="translate(-1.61)"/><path class="cls-1" d="M152.35,107.28h2.77v14.65h-2.77Zm1.23,12h8.59v2.66h-8.59Z" transform="translate(-1.61)"/><path class="cls-4" d="M12,132.82a1.8,1.8,0,0,1-.84,1.62,2.79,2.79,0,0,1-.87.35,4.81,4.81,0,0,1-1,.1H6.45v-7.13H9.29a4.14,4.14,0,0,1,.85.08,2.86,2.86,0,0,1,.79.29,1.79,1.79,0,0,1,.57.56,1.67,1.67,0,0,1,.22.9,1.48,1.48,0,0,1-.32,1,1.79,1.79,0,0,1-.85.56v0a2.25,2.25,0,0,1,.57.19,1.6,1.6,0,0,1,.78.84A1.62,1.62,0,0,1,12,132.82Zm-1.95-3a.57.57,0,0,0-.28-.53,1.63,1.63,0,0,0-.82-.16H8.11v1.47H9a1.26,1.26,0,0,0,.75-.2A.67.67,0,0,0,10.06,129.82Zm.23,2.83A.63.63,0,0,0,10,132a2,2,0,0,0-.89-.17h-1v1.63h1a3,3,0,0,0,.42,0,1.49,1.49,0,0,0,.39-.13.73.73,0,0,0,.29-.26A.78.78,0,0,0,10.29,132.65Z" transform="translate(-1.61)"/><path class="cls-4" d="M23,133.38a2.73,2.73,0,0,1-.62.9,2.92,2.92,0,0,1-1,.59,3.92,3.92,0,0,1-2.53,0,2.73,2.73,0,0,1-1-.59,2.54,2.54,0,0,1-.6-.9,3.22,3.22,0,0,1-.22-1.18v-4.44h1.72v4.3a2,2,0,0,0,.07.55,1.31,1.31,0,0,0,.24.47,1,1,0,0,0,.41.33,1.66,1.66,0,0,0,1.24,0,1.14,1.14,0,0,0,.42-.33,1.47,1.47,0,0,0,.23-.47,2,2,0,0,0,.07-.55v-4.3h1.72v4.44A3.22,3.22,0,0,1,23,133.38Z" transform="translate(-1.61)"/><path class="cls-4" d="M32.42,129.61a1.46,1.46,0,0,0-.58-.45,1.58,1.58,0,0,0-.69-.16,2,2,0,0,0-.34,0,.81.81,0,0,0-.56.33.63.63,0,0,0-.09.35.56.56,0,0,0,.07.3.77.77,0,0,0,.22.22,2.29,2.29,0,0,0,.35.16l.45.16.76.27a2.76,2.76,0,0,1,.72.38,2.18,2.18,0,0,1,.53.6,1.75,1.75,0,0,1,.21.89,2.13,2.13,0,0,1-.83,1.81,2.67,2.67,0,0,1-.88.43,3.49,3.49,0,0,1-1,.14,4.39,4.39,0,0,1-1.48-.26,3.29,3.29,0,0,1-1.19-.76l1.13-1.15a2.13,2.13,0,0,0,.69.54,1.9,1.9,0,0,0,.85.21,1.5,1.5,0,0,0,.37,0,.83.83,0,0,0,.32-.13.73.73,0,0,0,.22-.24.8.8,0,0,0,.08-.36.58.58,0,0,0-.1-.35,1,1,0,0,0-.29-.25,2,2,0,0,0-.46-.21l-.63-.21c-.23-.08-.45-.16-.67-.26a2.16,2.16,0,0,1-.59-.39,1.74,1.74,0,0,1-.41-.58,2,2,0,0,1-.16-.82,2.08,2.08,0,0,1,.24-1,2.23,2.23,0,0,1,.64-.69,2.67,2.67,0,0,1,.89-.4,4.2,4.2,0,0,1,1-.13,3.67,3.67,0,0,1,1.24.23,3,3,0,0,1,1.1.65Z" transform="translate(-1.61)"/><path class="cls-4" d="M38.64,134.89v-7.13h1.74v7.13Z" transform="translate(-1.61)"/><path class="cls-4" d="M50.42,134.89l-2.88-4.66h0l0,4.66H45.88v-7.13h2l2.86,4.65h0l0-4.65h1.67v7.13Z" transform="translate(-1.61)"/><path class="cls-4" d="M57.87,134.89v-7.13h4.8v1.45H59.54v1.35h3v1.38h-3v1.48h3.31v1.47Z" transform="translate(-1.61)"/><path class="cls-4" d="M71.79,129.61a1.54,1.54,0,0,0-.58-.45,1.65,1.65,0,0,0-.69-.16l-.35,0a1,1,0,0,0-.31.11.73.73,0,0,0-.24.22.63.63,0,0,0-.1.35.56.56,0,0,0,.08.3.66.66,0,0,0,.22.22,2.29,2.29,0,0,0,.35.16l.45.16.76.27a2.55,2.55,0,0,1,.71.38,2.06,2.06,0,0,1,.54.6,1.75,1.75,0,0,1,.21.89,2.23,2.23,0,0,1-.23,1.07,2.09,2.09,0,0,1-.61.74,2.53,2.53,0,0,1-.87.43,3.49,3.49,0,0,1-1,.14,4.35,4.35,0,0,1-1.48-.26,3.21,3.21,0,0,1-1.19-.76l1.13-1.15a2.13,2.13,0,0,0,.69.54,1.9,1.9,0,0,0,.85.21,1.5,1.5,0,0,0,.37,0,.83.83,0,0,0,.32-.13.73.73,0,0,0,.22-.24.8.8,0,0,0,.08-.36.65.65,0,0,0-.1-.35,1,1,0,0,0-.29-.25,2.19,2.19,0,0,0-.46-.21l-.63-.21a6.66,6.66,0,0,1-.67-.26,2.16,2.16,0,0,1-.59-.39,1.74,1.74,0,0,1-.41-.58,1.82,1.82,0,0,1-.16-.82,2.08,2.08,0,0,1,.24-1,2.12,2.12,0,0,1,.64-.69,2.71,2.71,0,0,1,.88-.4,4.29,4.29,0,0,1,1-.13,3.67,3.67,0,0,1,1.24.23,3,3,0,0,1,1.1.65Z" transform="translate(-1.61)"/><path class="cls-4" d="M81.78,129.61a1.54,1.54,0,0,0-.58-.45,1.65,1.65,0,0,0-.69-.16l-.35,0a1,1,0,0,0-.31.11.73.73,0,0,0-.24.22.63.63,0,0,0,0,.65.66.66,0,0,0,.22.22,1.92,1.92,0,0,0,.35.16l.45.16.76.27a2.55,2.55,0,0,1,.71.38,2.06,2.06,0,0,1,.54.6,1.75,1.75,0,0,1,.21.89,2.35,2.35,0,0,1-.23,1.07,2.09,2.09,0,0,1-.61.74,2.62,2.62,0,0,1-.87.43,3.49,3.49,0,0,1-1,.14,4.35,4.35,0,0,1-1.48-.26,3.21,3.21,0,0,1-1.19-.76l1.13-1.15a2.13,2.13,0,0,0,.69.54,1.9,1.9,0,0,0,.85.21,1.5,1.5,0,0,0,.37,0,.83.83,0,0,0,.32-.13.61.61,0,0,0,.21-.24.69.69,0,0,0,.09-.36.58.58,0,0,0-.11-.35.86.86,0,0,0-.28-.25,2.07,2.07,0,0,0-.47-.21l-.63-.21c-.22-.08-.45-.16-.67-.26a2.11,2.11,0,0,1-.58-.39,1.74,1.74,0,0,1-.41-.58,1.82,1.82,0,0,1-.16-.82,2.08,2.08,0,0,1,.24-1,2,2,0,0,1,.64-.69,2.62,2.62,0,0,1,.88-.4,4.29,4.29,0,0,1,1-.13,3.71,3.71,0,0,1,1.24.23,3.06,3.06,0,0,1,1.1.65Z" transform="translate(-1.61)"/><path class="cls-4" d="M98.32,129.61a1.54,1.54,0,0,0-.58-.45,1.65,1.65,0,0,0-.69-.16l-.35,0a1.1,1.1,0,0,0-.32.11.8.8,0,0,0-.23.22.63.63,0,0,0,0,.65.66.66,0,0,0,.22.22,1.92,1.92,0,0,0,.35.16l.45.16.76.27a2.55,2.55,0,0,1,.71.38,2.06,2.06,0,0,1,.54.6,1.75,1.75,0,0,1,.21.89,2.35,2.35,0,0,1-.23,1.07,2.09,2.09,0,0,1-.61.74,2.58,2.58,0,0,1-.88.43,3.38,3.38,0,0,1-1,.14,4.45,4.45,0,0,1-1.49-.26,3.25,3.25,0,0,1-1.18-.76l1.12-1.15a2.37,2.37,0,0,0,.69.54,1.94,1.94,0,0,0,.86.21,1.55,1.55,0,0,0,.37,0,.83.83,0,0,0,.32-.13.61.61,0,0,0,.21-.24.68.68,0,0,0,.08-.36.58.58,0,0,0-.1-.35.86.86,0,0,0-.28-.25,2.07,2.07,0,0,0-.47-.21l-.63-.21c-.23-.08-.45-.16-.67-.26a2.11,2.11,0,0,1-.58-.39,1.92,1.92,0,0,1-.42-.58,2,2,0,0,1-.15-.82,2.08,2.08,0,0,1,.24-1,2,2,0,0,1,.64-.69,2.62,2.62,0,0,1,.88-.4,4.22,4.22,0,0,1,1-.13,3.65,3.65,0,0,1,1.23.23,3.1,3.1,0,0,1,1.11.65Z" transform="translate(-1.61)"/><path class="cls-4" d="M109.65,134.77a3.84,3.84,0,0,1-1.6.31,4.24,4.24,0,0,1-1.53-.27,3.67,3.67,0,0,1-1.22-.77,3.52,3.52,0,0,1-.8-1.19,3.88,3.88,0,0,1-.29-1.54,4.08,4.08,0,0,1,.29-1.55,3.57,3.57,0,0,1,.82-1.18,3.51,3.51,0,0,1,1.23-.75,4.48,4.48,0,0,1,3,0,2.94,2.94,0,0,1,1.19.78l-1.17,1.17a1.43,1.43,0,0,0-.64-.49,2,2,0,0,0-.8-.16,2,2,0,0,0-.83.16,1.92,1.92,0,0,0-.65.46,2.06,2.06,0,0,0-.43.69,2.49,2.49,0,0,0-.15.87,2.52,2.52,0,0,0,.15.89,2,2,0,0,0,.42.69,2,2,0,0,0,.64.45,2,2,0,0,0,.82.16,1.92,1.92,0,0,0,.89-.2,1.76,1.76,0,0,0,.62-.52l1.2,1.12A3.51,3.51,0,0,1,109.65,134.77Z" transform="translate(-1.61)"/><path class="cls-4" d="M120.09,134.89v-3h-2.78v3h-1.73v-7.13h1.73v2.7h2.78v-2.7h1.72v7.13Z" transform="translate(-1.61)"/><path class="cls-4" d="M134.75,131.29a3.89,3.89,0,0,1-.29,1.55,3.35,3.35,0,0,1-.81,1.2,3.61,3.61,0,0,1-1.23.77,4.41,4.41,0,0,1-1.56.27,4.3,4.3,0,0,1-1.54-.27,3.52,3.52,0,0,1-1.23-.77,3.35,3.35,0,0,1-.81-1.2,3.9,3.9,0,0,1-.3-1.55,3.81,3.81,0,0,1,.3-1.54,3.36,3.36,0,0,1,.81-1.18,3.46,3.46,0,0,1,1.23-.74,4.29,4.29,0,0,1,1.54-.26,4.41,4.41,0,0,1,1.56.26,3.55,3.55,0,0,1,1.23.74,3.36,3.36,0,0,1,.81,1.18A3.81,3.81,0,0,1,134.75,131.29Zm-1.84,0a2.43,2.43,0,0,0-.15-.86,2,2,0,0,0-.42-.69,2,2,0,0,0-.64-.46,2.1,2.1,0,0,0-.84-.16,2,2,0,0,0-1.89,1.31,2.67,2.67,0,0,0-.14.86,2.62,2.62,0,0,0,.15.9,2,2,0,0,0,1.06,1.16,2.21,2.21,0,0,0,1.65,0,2.32,2.32,0,0,0,.65-.46,2.14,2.14,0,0,0,.42-.7A2.62,2.62,0,0,0,132.91,131.29Z" transform="translate(-1.61)"/><path class="cls-4" d="M147.36,131.29a3.89,3.89,0,0,1-.29,1.55,3.35,3.35,0,0,1-.81,1.2,3.71,3.71,0,0,1-1.23.77,4.41,4.41,0,0,1-1.56.27,4.3,4.3,0,0,1-1.54-.27,3.52,3.52,0,0,1-1.23-.77,3.35,3.35,0,0,1-.81-1.2,3.9,3.9,0,0,1-.3-1.55,3.81,3.81,0,0,1,.3-1.54,3.36,3.36,0,0,1,.81-1.18,3.46,3.46,0,0,1,1.23-.74,4.29,4.29,0,0,1,1.54-.26,4.41,4.41,0,0,1,1.56.26,3.64,3.64,0,0,1,1.23.74,3.36,3.36,0,0,1,.81,1.18A3.81,3.81,0,0,1,147.36,131.29Zm-1.84,0a2.43,2.43,0,0,0-.15-.86,2,2,0,0,0-.42-.69,2,2,0,0,0-.64-.46,2.1,2.1,0,0,0-.84-.16,2,2,0,0,0-1.89,1.31,2.67,2.67,0,0,0-.14.86,2.62,2.62,0,0,0,.15.9,2,2,0,0,0,1.06,1.16,2.21,2.21,0,0,0,1.65,0,2.14,2.14,0,0,0,.64-.46,2,2,0,0,0,.43-.7A2.62,2.62,0,0,0,145.52,131.29Z" transform="translate(-1.61)"/><path class="cls-4" d="M152.53,134.89v-7.13h1.74v5.63H157v1.5Z" transform="translate(-1.61)"/><path class="cls-1" d="M114,54.89A7.51,7.51,0,0,0,117.25,58a7.58,7.58,0,0,0-.48-4.47,7.59,7.59,0,0,0-3.22-3.13A7.49,7.49,0,0,0,114,54.89Z" transform="translate(-1.61)"/><path class="cls-1" d="M121.09,54a7.59,7.59,0,0,1-2.32,3.85,7.59,7.59,0,0,1-.68-4.45,7.59,7.59,0,0,1,2.32-3.85A7.59,7.59,0,0,1,121.09,54Z" transform="translate(-1.61)"/><path class="cls-1" d="M113.35,64.19A7.5,7.5,0,0,0,115.69,68,6.61,6.61,0,0,0,114,59.75,7.48,7.48,0,0,0,113.35,64.19Z" transform="translate(-1.61)"/><path class="cls-1" d="M120.41,65.06a7.45,7.45,0,0,1-3.2,3.15,6.6,6.6,0,0,1,3.66-7.62A7.57,7.57,0,0,1,120.41,65.06Z" transform="translate(-1.61)"/><path class="cls-1" d="M110.05,74.42a7.57,7.57,0,0,0,1.29,4.31,6.61,6.61,0,0,0,.47-8.44A7.52,7.52,0,0,0,110.05,74.42Z" transform="translate(-1.61)"/><path class="cls-1" d="M116.66,77.07a7.6,7.6,0,0,1-3.9,2.23,6.6,6.6,0,0,1,5.48-6.44A7.59,7.59,0,0,1,116.66,77.07Z" transform="translate(-1.61)"/><path class="cls-1" d="M103.6,81.19a7.55,7.55,0,0,0-.69,4.44,6.59,6.59,0,0,0,4-7.42A7.55,7.55,0,0,0,103.6,81.19Z" transform="translate(-1.61)"/><path class="cls-1" d="M108.43,86.42a7.6,7.6,0,0,1-4.48.34,6.61,6.61,0,0,1,7.71-3.47A7.56,7.56,0,0,1,108.43,86.42Z" transform="translate(-1.61)"/><path class="cls-1" d="M95.25,85.71A7.57,7.57,0,0,0,93,89.58a6.61,6.61,0,0,0,6.51-5.39A7.5,7.5,0,0,0,95.25,85.71Z" transform="translate(-1.61)"/><path class="cls-1" d="M97.8,92.36A7.54,7.54,0,0,1,93.51,91a7.58,7.58,0,0,1,4.16-1.7A7.49,7.49,0,0,1,102,90.65,7.64,7.64,0,0,1,97.8,92.36Z" transform="translate(-1.61)"/><path class="cls-1" d="M87.54,88a7.57,7.57,0,0,0-3.13,3.23,6.63,6.63,0,0,0,7.6-3.7A7.53,7.53,0,0,0,87.54,88Z" transform="translate(-1.61)"/><path class="cls-1" d="M88.45,95.07a7.53,7.53,0,0,1-3.85-2.31,6.6,6.6,0,0,1,8.29,1.64A7.5,7.5,0,0,1,88.45,95.07Z" transform="translate(-1.61)"/><path class="cls-1" d="M48.55,54.89A7.57,7.57,0,0,1,45.32,58a7.58,7.58,0,0,1,.48-4.47A7.59,7.59,0,0,1,49,50.42,7.53,7.53,0,0,1,48.55,54.89Z" transform="translate(-1.61)"/><path class="cls-1" d="M41.49,54a7.53,7.53,0,0,0,2.31,3.85,7.59,7.59,0,0,0,.68-4.45,7.52,7.52,0,0,0-2.32-3.85A7.54,7.54,0,0,0,41.49,54Z" transform="translate(-1.61)"/><path class="cls-1" d="M49.22,64.19A7.5,7.5,0,0,1,46.88,68a7.61,7.61,0,0,1-.65-4.45,7.52,7.52,0,0,1,2.34-3.83A7.48,7.48,0,0,1,49.22,64.19Z" transform="translate(-1.61)"/><path class="cls-1" d="M42.16,65.06a7.51,7.51,0,0,0,3.2,3.15,6.61,6.61,0,0,0-3.65-7.62A7.53,7.53,0,0,0,42.16,65.06Z" transform="translate(-1.61)"/><path class="cls-1" d="M52.52,74.42a7.51,7.51,0,0,1-1.28,4.31,6.63,6.63,0,0,1-.48-8.44A7.52,7.52,0,0,1,52.52,74.42Z" transform="translate(-1.61)"/><path class="cls-1" d="M45.91,77.07a7.64,7.64,0,0,0,3.9,2.23,7.54,7.54,0,0,0-1.57-4.21,7.51,7.51,0,0,0-3.9-2.23A7.54,7.54,0,0,0,45.91,77.07Z" transform="translate(-1.61)"/><path class="cls-1" d="M59,81.19a7.5,7.5,0,0,1,.68,4.44,6.62,6.62,0,0,1-4-7.42A7.55,7.55,0,0,1,59,81.19Z" transform="translate(-1.61)"/><path class="cls-1" d="M54.14,86.42a7.6,7.6,0,0,0,4.48.34,7.56,7.56,0,0,0-3.23-3.13,7.6,7.6,0,0,0-4.48-.34A7.56,7.56,0,0,0,54.14,86.42Z" transform="translate(-1.61)"/><path class="cls-1" d="M67.33,85.71a7.52,7.52,0,0,1,2.28,3.87,6.61,6.61,0,0,1-6.51-5.39A7.54,7.54,0,0,1,67.33,85.71Z" transform="translate(-1.61)"/><path class="cls-1" d="M64.77,92.36A7.54,7.54,0,0,0,69.06,91a7.58,7.58,0,0,0-4.16-1.7,7.49,7.49,0,0,0-4.29,1.34A7.64,7.64,0,0,0,64.77,92.36Z" transform="translate(-1.61)"/><path class="cls-1" d="M75,88a7.62,7.62,0,0,1,3.14,3.23,6.62,6.62,0,0,1-7.6-3.7A7.5,7.5,0,0,1,75,88Z" transform="translate(-1.61)"/><path class="cls-1" d="M74.12,95.07A7.53,7.53,0,0,0,78,92.76a6.6,6.6,0,0,0-8.29,1.64A7.5,7.5,0,0,0,74.12,95.07Z" transform="translate(-1.61)"/><text class="cls-6" transform="translate(18.59 144.7)">DEVELOPING GLOBAL BUSINESS LEADERS</text></g></g></svg>