<svg xmlns="http://www.w3.org/2000/svg" viewBox="0 0 223.23 187.81"><defs><style>.cls-1{fill:#007f35;}.cls-2{fill:none;stroke:#fff;stroke-linecap:round;stroke-linejoin:round;stroke-width:2.85px;}.cls-3{fill:#ebb225;}.cls-4{fill:#fff;}</style></defs><g id="Layer_2" data-name="Layer 2"><g id="Layer_1-2" data-name="Layer 1"><path class="cls-1" d="M155,8.14,154.85,8a4.47,4.47,0,0,1-.71-.28h0S147.65,6,141.67,4.17A95.76,95.76,0,0,0,113.36,0c-.12,0-.23.06-.34.06h-.35A95.77,95.77,0,0,0,84.36,4.24c-6,1.83-12.49,3.53-12.49,3.53l0,0-.71.35h-.13a82.37,82.37,0,0,0-1.32,12.61H156.3A82.37,82.37,0,0,0,155,8.14Z" transform="translate(-2.24)"/><path class="cls-1" d="M112.8,115.89l.22-.57.21.56c25.12-18.48,36-42.42,40.44-63.1H72.36C76.78,73.46,87.68,97.41,112.8,115.89Z" transform="translate(-2.24)"/><path class="cls-2" d="M151,12.48l-.12-.26-.64-.32v0s-5.88-1.56-11.29-3.21a86.2,86.2,0,0,0-25.58-3.83h-.63A86.2,86.2,0,0,0,87.12,8.65c-5.41,1.65-11.29,3.21-11.29,3.21v0l-.64.32-.12.26S63,73,112.82,109.67l.2-.55.19.55C163.05,73,151,12.48,151,12.48Z" transform="translate(-2.24)"/><polygon class="cls-3" points="164.19 50.45 57.36 50.45 60.43 36.94 57.36 23.43 164.19 23.43 160.46 36.94 164.19 50.45"/><path class="cls-4" d="M113,73.23a3.27,3.27,0,0,0-.73-.82,10.35,10.35,0,0,0-5.42-2.3,6.23,6.23,0,0,1,12.4,0,10.31,10.31,0,0,0-5.75,2.55A2.34,2.34,0,0,0,113,73.23Z" transform="translate(-2.24)"/><path class="cls-4" d="M102.71,64.79a.55.55,0,0,1,.26.06l3.91,1.56c.17.06.21.14.1.29a5.47,5.47,0,0,0-.5.84c-.06.12-.12.17-.24.07l-3.52-2.78A.16.16,0,0,0,102.71,64.79Z" transform="translate(-2.24)"/><path class="cls-4" d="M119,60.39a2.12,2.12,0,0,1-.21.63c-.47,1.19-1,2.36-1.42,3.54-.11.26-.11.26-.33.11a6.18,6.18,0,0,0-.79-.45c-.18-.08-.19-.16-.07-.31L118.46,61A4.87,4.87,0,0,1,119,60.39Z" transform="translate(-2.24)"/><path class="cls-4" d="M107.1,60.42l.78,1,2,2.52c.13.15.09.22-.07.3s-.57.32-.84.49c-.11.07-.18.08-.23-.06-.55-1.37-1.1-2.74-1.64-4.11a.16.16,0,0,1,0-.1Z" transform="translate(-2.24)"/><path class="cls-4" d="M123.32,64.82a8.4,8.4,0,0,1-.8.65l-2.62,2.07c-.24.19-.23.19-.38-.08a8.85,8.85,0,0,0-.46-.78c-.08-.14-.06-.2.09-.26l3-1.19,1.17-.46Z" transform="translate(-2.24)"/><path class="cls-4" d="M113.05,58.83c.06.37.1.69.15,1,.17,1.14.33,2.27.49,3.41,0,.25,0,.25-.23.23a5.06,5.06,0,0,0-.87,0c-.23,0-.27,0-.24-.25l.6-4.16A.4.4,0,0,1,113.05,58.83Z" transform="translate(-2.24)"/><path class="cls-4" d="M77.17,31.3h2.3V43.51h-2.3Zm1.16,10h2.93A2.58,2.58,0,0,0,83,40.75a1.94,1.94,0,0,0,.62-1.55V35.61A1.94,1.94,0,0,0,83,34.06a2.58,2.58,0,0,0-1.75-.54H78.33V31.3h2.88a6,6,0,0,1,2.6.51,3.65,3.65,0,0,1,1.65,1.5A4.71,4.71,0,0,1,86,35.67v3.46a4.68,4.68,0,0,1-.54,2.3A3.67,3.67,0,0,1,83.85,43a5.74,5.74,0,0,1-2.65.55H78.33Z" transform="translate(-2.24)"/><path class="cls-4" d="M91.18,43.08a4,4,0,0,1-1.56-1.58,4.88,4.88,0,0,1-.56-2.37V35.67a4.87,4.87,0,0,1,.56-2.36,3.89,3.89,0,0,1,1.56-1.58,5.17,5.17,0,0,1,4.68,0,3.92,3.92,0,0,1,1.57,1.58A5,5,0,0,1,98,35.67v3.46a5,5,0,0,1-.55,2.37,4,4,0,0,1-1.57,1.58,5.25,5.25,0,0,1-4.68,0Zm3.43-2a1.82,1.82,0,0,0,.73-.75,2.41,2.41,0,0,0,.25-1.13V35.62a2.38,2.38,0,0,0-.25-1.13,1.71,1.71,0,0,0-.73-.75,2.34,2.34,0,0,0-2.18,0,1.76,1.76,0,0,0-.73.75,2.38,2.38,0,0,0-.25,1.13v3.57a2.41,2.41,0,0,0,.25,1.13,1.88,1.88,0,0,0,.73.75,2.41,2.41,0,0,0,2.18,0Z" transform="translate(-2.24)"/><path class="cls-4" d="M103.06,43.1a3.56,3.56,0,0,1-1.52-1.55,5.46,5.46,0,0,1-.52-2.47V35.73a5.45,5.45,0,0,1,.52-2.46,3.63,3.63,0,0,1,1.52-1.56,4.89,4.89,0,0,1,2.38-.54,4.24,4.24,0,0,1,2.06.5,4.13,4.13,0,0,1,1.5,1.44,6.47,6.47,0,0,1,.82,2.28h-2.39a3.22,3.22,0,0,0-.41-1,2,2,0,0,0-.69-.66,1.76,1.76,0,0,0-.89-.23,2.11,2.11,0,0,0-1.1.27,1.68,1.68,0,0,0-.69.77,2.85,2.85,0,0,0-.24,1.22v3.35a2.82,2.82,0,0,0,.24,1.22,1.73,1.73,0,0,0,.69.77,2.11,2.11,0,0,0,1.1.26,1.83,1.83,0,0,0,.91-.22,1.91,1.91,0,0,0,.68-.65,3.05,3.05,0,0,0,.4-1h2.39A6.47,6.47,0,0,1,109,41.7a4,4,0,0,1-1.5,1.44,4.17,4.17,0,0,1-2,.49A4.89,4.89,0,0,1,103.06,43.1Z" transform="translate(-2.24)"/><path class="cls-4" d="M112.77,31.3h2.31V43.51h-2.31Zm.84,0H121v2.22h-7.34Zm0,5H120v2.21h-6.42Zm0,4.95H121v2.22h-7.34Z" transform="translate(-2.24)"/><path class="cls-4" d="M123.91,31.3h2.82l4.54,9.35-.2.22V31.3h2.2V43.5h-2.83l-4.53-9.21.2-.22V43.5h-2.2Z" transform="translate(-2.24)"/><path class="cls-4" d="M135.14,31.3h9v2.22h-9Zm3.32,1h2.3V43.51h-2.3Z" transform="translate(-2.24)"/><path class="cls-4" d="M148.17,43.51h-2.38V31.3h2.38Z" transform="translate(-2.24)"/><g id="hfb8mP"><path class="cls-4" d="M101.11,74.34c0,3.68,0,7.36,0,11,0-.21,0-.43,0-.68,0-3.66,0-7.29,0-10.94A2.69,2.69,0,0,1,101.11,74.34Z" transform="translate(-2.24)"/><path class="cls-4" d="M107.34,87.17a20.24,20.24,0,0,0-4.08-.4h-.39l-.42,0A19,19,0,0,1,107.34,87.17Z" transform="translate(-2.24)"/><path class="cls-4" d="M112.94,88.78v0Z" transform="translate(-2.24)"/><path class="cls-4" d="M112.65,87.5a1.88,1.88,0,0,1,0,.51h0c-.08.32-.3.38-.85.07a17.1,17.1,0,0,0-8.64-2c-1.35,0-1.35,0-1.35-1.37V72.58c0-1.23,0-1.37,1-1.56h0l.36-.07a13.47,13.47,0,0,1,2.58-.21,8.93,8.93,0,0,1,1,.07,9.53,9.53,0,0,1,5,2.14,2.23,2.23,0,0,1,.83,1.29h0a2.13,2.13,0,0,1,0,.57c0,.71,0,1.42,0,2.14v1c0,.78,0,1.56,0,2.35v.72C112.65,83.22,112.63,85.36,112.65,87.5Z" transform="translate(-2.24)"/><path class="cls-4" d="M112.94,88.78v0Z" transform="translate(-2.24)"/><path class="cls-4" d="M124.89,73.77c0,3.82,0,7.65,0,11.47,0,.12,0,.24,0,.35-.05-3.77,0-7.54,0-11.3A2.11,2.11,0,0,1,124.89,73.77Z" transform="translate(-2.24)"/><path class="cls-4" d="M124.18,72V85.24c0,.61-.26.85-.86.83a17.55,17.55,0,0,0-9.38,2.15c-.45.25-.58.09-.62-.16h0a3,3,0,0,1,0-.42q0-3.31,0-6.63v0c0-1,0-2,0-2.93V77c0-.77,0-1.53,0-2.3a2.12,2.12,0,0,1,0-.44,1.71,1.71,0,0,1,.61-1,9.39,9.39,0,0,1,5.32-2.37,8.94,8.94,0,0,1,1-.06,13,13,0,0,1,2.88.29l.34.07A.8.8,0,0,1,124.18,72Z" transform="translate(-2.24)"/><path class="cls-4" d="M126.4,74.84c0,4.41,0,8.83,0,13.24,0,1.35,0,1.39-1.37,1.39-2.83,0-5.67,0-8.51,0a2.22,2.22,0,0,0-1.48.45A3.55,3.55,0,0,1,111,90a2.34,2.34,0,0,0-1.57-.48c-2.87,0-5.74,0-8.61,0-.85,0-1.17-.26-1.15-1.14,0-2.34,0-4.67,0-7v-7c0-.51-.05-1,.72-1,.47,0,.64.19.7.45h0a2.69,2.69,0,0,1,0,.58c0,3.68,0,7.36,0,11v.41c0,.79.18,1,1,1l.35,0h0a19,19,0,0,1,4.89.42c.23,0,.45.1.67.17s.43.11.64.18a14.16,14.16,0,0,1,2.76,1.18,1.82,1.82,0,0,0,.91.3.93.93,0,0,0,.6-.21h0v0a.92.92,0,0,0,.64.25,1.37,1.37,0,0,0,.72-.23,16.56,16.56,0,0,1,8.41-2h.67l.29,0h.17c.89,0,1-.23,1-1v-.15c-.05-3.77,0-7.54,0-11.3a2.11,2.11,0,0,1,0-.52h0c.07-.3.26-.49.75-.47s.66.16.71.59S126.4,74.52,126.4,74.84Z" transform="translate(-2.24)"/></g><path class="cls-1" d="M2.24,149.16H6.08v20.37H2.24Zm1.93,16.67H9.06a4.27,4.27,0,0,0,2.93-.91,3.27,3.27,0,0,0,1-2.58v-6a3.27,3.27,0,0,0-1-2.58,4.27,4.27,0,0,0-2.93-.91H4.17v-3.7H9a10.08,10.08,0,0,1,4.35.85,6.06,6.06,0,0,1,2.74,2.5,7.78,7.78,0,0,1,.94,4v5.77a7.73,7.73,0,0,1-.91,3.84,6.15,6.15,0,0,1-2.71,2.55,9.7,9.7,0,0,1-4.42.91H4.17Z" transform="translate(-2.24)"/><path class="cls-1" d="M24.19,168.81a6.38,6.38,0,0,1-2.61-2.64,8.05,8.05,0,0,1-.93-3.94v-5.77a8.12,8.12,0,0,1,.93-4,6.42,6.42,0,0,1,2.61-2.63,7.92,7.92,0,0,1,3.9-.93,7.92,7.92,0,0,1,3.9.93,6.5,6.5,0,0,1,2.62,2.63,8.23,8.23,0,0,1,.92,4v5.77a8.16,8.16,0,0,1-.92,3.94A6.47,6.47,0,0,1,32,168.81a7.92,7.92,0,0,1-3.9.93A7.92,7.92,0,0,1,24.19,168.81Zm5.72-3.35a2.92,2.92,0,0,0,1.21-1.25,4,4,0,0,0,.43-1.88v-6a3.92,3.92,0,0,0-.43-1.88,2.92,2.92,0,0,0-1.21-1.25,4,4,0,0,0-3.64,0,3,3,0,0,0-1.21,1.25,3.92,3.92,0,0,0-.43,1.88v6a4,4,0,0,0,.43,1.88,3,3,0,0,0,1.21,1.25,4,4,0,0,0,3.64,0Z" transform="translate(-2.24)"/><path class="cls-1" d="M42.56,168.85A6,6,0,0,1,40,166.26a9,9,0,0,1-.87-4.11v-5.59a9,9,0,0,1,.87-4.12,6,6,0,0,1,2.52-2.59,8.24,8.24,0,0,1,4-.9,7,7,0,0,1,3.44.83,6.82,6.82,0,0,1,2.5,2.4,10.48,10.48,0,0,1,1.36,3.8h-4a5.25,5.25,0,0,0-.69-1.72A3.2,3.2,0,0,0,48,153.17a2.87,2.87,0,0,0-1.49-.38,3.49,3.49,0,0,0-1.83.44,2.81,2.81,0,0,0-1.16,1.29,4.82,4.82,0,0,0-.4,2v5.59a4.8,4.8,0,0,0,.4,2,2.84,2.84,0,0,0,1.16,1.28,3.59,3.59,0,0,0,1.83.44,3.08,3.08,0,0,0,1.52-.37,3.26,3.26,0,0,0,1.13-1.09,4.92,4.92,0,0,0,.67-1.73h4a10.49,10.49,0,0,1-1.38,3.8,6.8,6.8,0,0,1-2.49,2.4,7,7,0,0,1-3.43.83A8.35,8.35,0,0,1,42.56,168.85Z" transform="translate(-2.24)"/><path class="cls-1" d="M57.34,149.16h3.84v20.37H57.34Zm1.39,0H71v3.7H58.73Zm0,8.41H69.45v3.69H58.73Zm0,8.26H71v3.7H58.73Z" transform="translate(-2.24)"/><path class="cls-1" d="M74.49,149.16h4.7l7.58,15.61-.34.36v-16H90.1v20.36H85.38l-7.55-15.37.33-.37v15.74H74.49Z" transform="translate(-2.24)"/><path class="cls-1" d="M91.78,149.16h14.94v3.7H91.78Zm5.55,1.67h3.84v18.7H97.33Z" transform="translate(-2.24)"/><path class="cls-1" d="M112.1,169.53h-4V149.16h4Z" transform="translate(-2.24)"/><path class="cls-1" d="M135.69,158.14v4a8.34,8.34,0,0,1-.92,4,6.47,6.47,0,0,1-2.59,2.67,7.85,7.85,0,0,1-3.9,1,8.43,8.43,0,0,1-3.93-.89,6.37,6.37,0,0,1-2.63-2.51,7.48,7.48,0,0,1-.94-3.77v-6a8.4,8.4,0,0,1,.92-4,6.49,6.49,0,0,1,2.6-2.67,7.82,7.82,0,0,1,3.9-.94,7.59,7.59,0,0,1,3.36.75,7,7,0,0,1,2.57,2.12,7.75,7.75,0,0,1,1.39,3.18h-4.14a2.6,2.6,0,0,0-.7-1.11,3.26,3.26,0,0,0-1.13-.72,3.92,3.92,0,0,0-1.35-.24,3.49,3.49,0,0,0-1.8.45,3,3,0,0,0-1.21,1.27,4.17,4.17,0,0,0-.43,1.91v6a3.24,3.24,0,0,0,.44,1.68,2.91,2.91,0,0,0,1.23,1.12,4.16,4.16,0,0,0,1.85.39,3.62,3.62,0,0,0,1.81-.43,2.82,2.82,0,0,0,1.2-1.24,4.12,4.12,0,0,0,.42-1.92v-.33h-3.08v-3.7Z" transform="translate(-2.24)"/><path class="cls-1" d="M139.75,149.16h3.84v20.37h-3.84Zm1.71,16.67H153.4v3.7H141.46Z" transform="translate(-2.24)"/><path class="cls-1" d="M159.32,168.81a6.44,6.44,0,0,1-2.61-2.64,8.05,8.05,0,0,1-.93-3.94v-5.77a8.12,8.12,0,0,1,.93-4,6.48,6.48,0,0,1,2.61-2.63,8.64,8.64,0,0,1,7.8,0,6.5,6.5,0,0,1,2.62,2.63,8.23,8.23,0,0,1,.92,4v5.77a8.16,8.16,0,0,1-.92,3.94,6.47,6.47,0,0,1-2.62,2.64,8.64,8.64,0,0,1-7.8,0Zm5.72-3.35a3,3,0,0,0,1.22-1.25,4.07,4.07,0,0,0,.42-1.88v-6a4,4,0,0,0-.42-1.88,3,3,0,0,0-1.22-1.25,4,4,0,0,0-3.64,0,3,3,0,0,0-1.21,1.25,3.92,3.92,0,0,0-.43,1.88v6a4,4,0,0,0,.43,1.88,3,3,0,0,0,1.21,1.25,4,4,0,0,0,3.64,0Z" transform="translate(-2.24)"/><path class="cls-1" d="M174.73,149.16h3.83v20.37h-3.83Zm1.68,16.67h6.5a3,3,0,0,0,2-.64,2.25,2.25,0,0,0,.72-1.78v0a2.58,2.58,0,0,0-.32-1.32,2.11,2.11,0,0,0-.95-.84,3.57,3.57,0,0,0-1.49-.28h-6.5v-3.7h6.5a2.61,2.61,0,0,0,1.84-.6,2.23,2.23,0,0,0,.65-1.7,1.92,1.92,0,0,0-.65-1.53,2.8,2.8,0,0,0-1.84-.54h-6.5v-3.7H183a8,8,0,0,1,3.38.65,4.74,4.74,0,0,1,2.13,1.89,5.75,5.75,0,0,1,.73,3,4.62,4.62,0,0,1-.47,2.11,3.86,3.86,0,0,1-1.37,1.5,5.35,5.35,0,0,1-2.15.8,5.48,5.48,0,0,1,2.3.82,4.17,4.17,0,0,1,1.46,1.66,5.37,5.37,0,0,1,.49,2.37v0a5.8,5.8,0,0,1-.73,3,4.78,4.78,0,0,1-2.14,1.9,8.1,8.1,0,0,1-3.39.65h-6.86Z" transform="translate(-2.24)"/><path class="cls-1" d="M199.08,149.16h2.43l7.79,20.37h-4.13l-4.88-13.91-4.87,13.91h-4.13ZM195,162.57h10.72v3.7H195Z" transform="translate(-2.24)"/><path class="cls-1" d="M211.83,149.16h3.83v20.37h-3.83Zm1.71,16.67h11.93v3.7H213.54Z" transform="translate(-2.24)"/><path class="cls-4" d="M16.7,184.66a2.65,2.65,0,0,1-.32,1.37,2.59,2.59,0,0,1-.85.89,3.89,3.89,0,0,1-1.22.48,6.37,6.37,0,0,1-1.39.15H9v-9.92h3.95a5.37,5.37,0,0,1,1.18.12,3.31,3.31,0,0,1,1.09.4,2.3,2.3,0,0,1,.8.78,2.36,2.36,0,0,1,.31,1.25,2,2,0,0,1-.45,1.36,2.5,2.5,0,0,1-1.18.78v0a2.37,2.37,0,0,1,.79.26,2.07,2.07,0,0,1,.65.48,2.28,2.28,0,0,1,.59,1.57ZM14,180.5a.8.8,0,0,0-.39-.74,2.31,2.31,0,0,0-1.14-.23H11.28v2.05h1.29a1.65,1.65,0,0,0,1-.28A.93.93,0,0,0,14,180.5Zm.32,3.94a.9.9,0,0,0-.46-.86,2.71,2.71,0,0,0-1.24-.24H11.28v2.27h1.35a3,3,0,0,0,.58-.05,1.8,1.8,0,0,0,.54-.17,1,1,0,0,0,.4-.36A1,1,0,0,0,14.31,184.44Z" transform="translate(-2.24)"/><path class="cls-4" d="M32,185.44a3.58,3.58,0,0,1-.86,1.26,4.18,4.18,0,0,1-1.35.82,5.2,5.2,0,0,1-1.76.29,5.13,5.13,0,0,1-1.77-.29,3.88,3.88,0,0,1-1.33-.82,3.67,3.67,0,0,1-.84-1.26,4.3,4.3,0,0,1-.3-1.63v-6.18h2.39v6a2.76,2.76,0,0,0,.1.77,2.08,2.08,0,0,0,.32.65,1.67,1.67,0,0,0,.58.46,2.26,2.26,0,0,0,1.72,0,1.67,1.67,0,0,0,.58-.46,1.9,1.9,0,0,0,.33-.65,3.19,3.19,0,0,0,.09-.77v-6h2.4v6.18A4.3,4.3,0,0,1,32,185.44Z" transform="translate(-2.24)"/><path class="cls-4" d="M45.08,180.2a2,2,0,0,0-.81-.62,2.32,2.32,0,0,0-1-.23,2.74,2.74,0,0,0-.48,0,1.29,1.29,0,0,0-.44.16,1.08,1.08,0,0,0-.33.31.82.82,0,0,0-.13.48.77.77,0,0,0,.1.42,1,1,0,0,0,.31.3,3.59,3.59,0,0,0,.48.23l.64.22,1,.37a3.66,3.66,0,0,1,1,.54,2.68,2.68,0,0,1,.74.83,2.37,2.37,0,0,1,.3,1.24,3.26,3.26,0,0,1-.32,1.48,2.93,2.93,0,0,1-.84,1,3.76,3.76,0,0,1-1.22.6,5.18,5.18,0,0,1-1.42.2,6,6,0,0,1-2.06-.37A4.39,4.39,0,0,1,39,186.37l1.57-1.6a2.82,2.82,0,0,0,1,.75,2.58,2.58,0,0,0,1.18.3,3,3,0,0,0,.52,0,1.25,1.25,0,0,0,.44-.19.8.8,0,0,0,.3-.33,1,1,0,0,0,.11-.51.75.75,0,0,0-.14-.47,1.29,1.29,0,0,0-.4-.36,2.55,2.55,0,0,0-.64-.29l-.88-.29a9,9,0,0,1-.93-.37,3.18,3.18,0,0,1-.81-.54,2.45,2.45,0,0,1-.58-.79,3.21,3.21,0,0,1,.12-2.56,3,3,0,0,1,.89-1,3.62,3.62,0,0,1,1.23-.55,5.47,5.47,0,0,1,1.39-.18,5.24,5.24,0,0,1,1.71.31,4.49,4.49,0,0,1,1.54.91Z" transform="translate(-2.24)"/><path class="cls-4" d="M53.73,187.55v-9.92h2.41v9.92Z" transform="translate(-2.24)"/><path class="cls-4" d="M70.09,187.55l-4-6.49h0l0,6.49H63.79v-9.92h2.73l4,6.47h0l-.05-6.47h2.32v9.92Z" transform="translate(-2.24)"/><path class="cls-4" d="M80.46,187.55v-9.92h6.67v2H82.78v1.88H86.9v1.92H82.78v2.06h4.61v2.05Z" transform="translate(-2.24)"/><path class="cls-4" d="M99.82,180.2a2.19,2.19,0,0,0-.81-.62,2.32,2.32,0,0,0-1-.23,2.59,2.59,0,0,0-.48,0,1.34,1.34,0,0,0-.45.16,1,1,0,0,0-.32.31.83.83,0,0,0-.14.48.77.77,0,0,0,.11.42.89.89,0,0,0,.31.3,2.7,2.7,0,0,0,.48.23l.63.22c.34.11.69.23,1,.37a3.57,3.57,0,0,1,1,.54,2.82,2.82,0,0,1,.74.83,2.47,2.47,0,0,1,.29,1.24A3.26,3.26,0,0,1,101,186a3,3,0,0,1-.85,1,3.66,3.66,0,0,1-1.22.6,5.16,5.16,0,0,1-1.41.2,6,6,0,0,1-2.06-.37,4.35,4.35,0,0,1-1.66-1.06l1.57-1.6a2.82,2.82,0,0,0,1,.75,2.62,2.62,0,0,0,1.19.3,2.84,2.84,0,0,0,.51,0,1.3,1.3,0,0,0,.45-.19,1,1,0,0,0,.3-.33,1.13,1.13,0,0,0,.11-.51.82.82,0,0,0-.14-.47,1.42,1.42,0,0,0-.4-.36,2.63,2.63,0,0,0-.65-.29l-.87-.29a7.5,7.5,0,0,1-.93-.37,3.07,3.07,0,0,1-.82-.54,2.43,2.43,0,0,1-.57-.79,2.68,2.68,0,0,1-.22-1.15,2.73,2.73,0,0,1,.34-1.41,2.93,2.93,0,0,1,.88-1,3.8,3.8,0,0,1,1.23-.55,5.47,5.47,0,0,1,1.39-.18,5.35,5.35,0,0,1,1.72.31,4.54,4.54,0,0,1,1.53.91Z" transform="translate(-2.24)"/><path class="cls-4" d="M113.7,180.2a2.08,2.08,0,0,0-.8-.62,2.36,2.36,0,0,0-1-.23,2.77,2.77,0,0,0-.49,0,1.29,1.29,0,0,0-.44.16,1.08,1.08,0,0,0-.33.31.82.82,0,0,0-.13.48.77.77,0,0,0,.1.42,1,1,0,0,0,.31.3,3.22,3.22,0,0,0,.49.23l.63.22,1,.37a3.66,3.66,0,0,1,1,.54,2.85,2.85,0,0,1,.75.83,2.47,2.47,0,0,1,.29,1.24,3.26,3.26,0,0,1-.32,1.48,2.93,2.93,0,0,1-.84,1,3.66,3.66,0,0,1-1.22.6,5.18,5.18,0,0,1-1.42.2,6,6,0,0,1-2.06-.37,4.39,4.39,0,0,1-1.65-1.06l1.57-1.6a2.82,2.82,0,0,0,1,.75,2.61,2.61,0,0,0,1.18.3,3,3,0,0,0,.52,0,1.18,1.18,0,0,0,.44-.19.8.8,0,0,0,.3-.33,1,1,0,0,0,.12-.51.82.82,0,0,0-.14-.47,1.57,1.57,0,0,0-.4-.36,2.81,2.81,0,0,0-.65-.29l-.87-.29a8.33,8.33,0,0,1-.94-.37,3.18,3.18,0,0,1-.81-.54,2.29,2.29,0,0,1-.57-.79,2.68,2.68,0,0,1-.22-1.15,2.73,2.73,0,0,1,.34-1.41,2.83,2.83,0,0,1,.88-1,3.62,3.62,0,0,1,1.23-.55,5.47,5.47,0,0,1,1.39-.18,5.35,5.35,0,0,1,1.72.31,4.54,4.54,0,0,1,1.53.91Z" transform="translate(-2.24)"/><path class="cls-4" d="M136.7,180.2a2.19,2.19,0,0,0-.81-.62,2.32,2.32,0,0,0-1-.23,2.59,2.59,0,0,0-.48,0,1.29,1.29,0,0,0-.44.16,1.08,1.08,0,0,0-.33.31.83.83,0,0,0-.14.48.77.77,0,0,0,.11.42.89.89,0,0,0,.31.3,2.7,2.7,0,0,0,.48.23l.63.22c.34.11.69.23,1.05.37a3.57,3.57,0,0,1,1,.54,2.68,2.68,0,0,1,.74.83,2.37,2.37,0,0,1,.3,1.24,3.26,3.26,0,0,1-.32,1.48,2.85,2.85,0,0,1-.85,1,3.57,3.57,0,0,1-1.22.6,5.11,5.11,0,0,1-1.41.2,6,6,0,0,1-2.06-.37,4.35,4.35,0,0,1-1.66-1.06l1.57-1.6a3,3,0,0,0,1,.75,2.65,2.65,0,0,0,1.19.3,3,3,0,0,0,.52,0,1.34,1.34,0,0,0,.44-.19,1,1,0,0,0,.3-.33,1.13,1.13,0,0,0,.11-.51.82.82,0,0,0-.14-.47,1.42,1.42,0,0,0-.4-.36,2.73,2.73,0,0,0-.64-.29l-.88-.29a7.5,7.5,0,0,1-.93-.37,3,3,0,0,1-.81-.54,2.45,2.45,0,0,1-.58-.79,3.1,3.1,0,0,1,.12-2.56,3,3,0,0,1,.88-1,3.76,3.76,0,0,1,1.24-.55,5.39,5.39,0,0,1,1.38-.18,5.3,5.3,0,0,1,1.72.31,4.59,4.59,0,0,1,1.54.91Z" transform="translate(-2.24)"/><path class="cls-4" d="M152.45,187.37a5.25,5.25,0,0,1-2.23.44,5.63,5.63,0,0,1-2.12-.38,4.87,4.87,0,0,1-1.69-1.07,4.82,4.82,0,0,1-1.12-1.66,5.75,5.75,0,0,1,0-4.29,4.65,4.65,0,0,1,1.14-1.64,5,5,0,0,1,1.71-1.05,6.07,6.07,0,0,1,2.11-.36,6,6,0,0,1,2.07.37,4,4,0,0,1,1.65,1.09l-1.63,1.62a2,2,0,0,0-.88-.68,2.94,2.94,0,0,0-2.28,0,2.8,2.8,0,0,0-1.49,1.6,3.38,3.38,0,0,0-.21,1.21,3.55,3.55,0,0,0,.21,1.24,2.9,2.9,0,0,0,.58,1,2.69,2.69,0,0,0,.89.62,2.81,2.81,0,0,0,1.13.22,2.59,2.59,0,0,0,1.25-.28,2.36,2.36,0,0,0,.86-.73l1.66,1.57A4.55,4.55,0,0,1,152.45,187.37Z" transform="translate(-2.24)"/><path class="cls-4" d="M167,187.55V183.4H163.1v4.15h-2.4v-9.92h2.4v3.75H167v-3.75h2.39v9.92Z" transform="translate(-2.24)"/><path class="cls-4" d="M187.36,182.54a5.58,5.58,0,0,1-.41,2.16,4.94,4.94,0,0,1-1.13,1.66,4.82,4.82,0,0,1-1.72,1.07,5.82,5.82,0,0,1-2.15.38,5.75,5.75,0,0,1-2.15-.38,4.86,4.86,0,0,1-1.71-1.07A4.8,4.8,0,0,1,177,184.7a5.58,5.58,0,0,1-.41-2.16,5.49,5.49,0,0,1,.41-2.15,4.59,4.59,0,0,1,1.13-1.63,5.1,5.1,0,0,1,1.71-1,6.18,6.18,0,0,1,2.15-.36,6.26,6.26,0,0,1,2.15.36,5,5,0,0,1,1.72,1,4.72,4.72,0,0,1,1.13,1.63A5.49,5.49,0,0,1,187.36,182.54Zm-2.57,0a3.36,3.36,0,0,0-.21-1.2,2.9,2.9,0,0,0-.58-1,2.61,2.61,0,0,0-.9-.63,2.72,2.72,0,0,0-1.15-.23,2.69,2.69,0,0,0-1.15.23,2.61,2.61,0,0,0-.9.63,2.74,2.74,0,0,0-.58,1,3.36,3.36,0,0,0-.2,1.2,3.51,3.51,0,0,0,.21,1.24,2.9,2.9,0,0,0,.58,1,2.64,2.64,0,0,0,.89.64,2.84,2.84,0,0,0,1.15.23,2.88,2.88,0,0,0,1.15-.23,2.85,2.85,0,0,0,.89-.64,2.92,2.92,0,0,0,.59-1A3.51,3.51,0,0,0,184.79,182.54Z" transform="translate(-2.24)"/><path class="cls-4" d="M204.89,182.54a5.58,5.58,0,0,1-.41,2.16,4.94,4.94,0,0,1-1.13,1.66,4.82,4.82,0,0,1-1.72,1.07,5.82,5.82,0,0,1-2.15.38,5.75,5.75,0,0,1-2.15-.38,4.86,4.86,0,0,1-1.71-1.07,4.8,4.8,0,0,1-1.13-1.66,5.58,5.58,0,0,1-.41-2.16,5.49,5.49,0,0,1,.41-2.15,4.59,4.59,0,0,1,1.13-1.63,5.1,5.1,0,0,1,1.71-1,6.18,6.18,0,0,1,2.15-.36,6.26,6.26,0,0,1,2.15.36,5,5,0,0,1,1.72,1,4.72,4.72,0,0,1,1.13,1.63A5.49,5.49,0,0,1,204.89,182.54Zm-2.57,0a3.36,3.36,0,0,0-.21-1.2,2.9,2.9,0,0,0-.58-1,2.61,2.61,0,0,0-.9-.63,2.72,2.72,0,0,0-1.15-.23,2.69,2.69,0,0,0-1.15.23,2.61,2.61,0,0,0-.9.63,2.74,2.74,0,0,0-.58,1,3.36,3.36,0,0,0-.2,1.2,3.51,3.51,0,0,0,.21,1.24,2.9,2.9,0,0,0,.58,1,2.74,2.74,0,0,0,.89.64,2.84,2.84,0,0,0,1.15.23,2.88,2.88,0,0,0,1.15-.23,2.85,2.85,0,0,0,.89-.64,2.92,2.92,0,0,0,.59-1A3.51,3.51,0,0,0,202.32,182.54Z" transform="translate(-2.24)"/><path class="cls-4" d="M212.07,187.55v-9.92h2.41v7.83h3.84v2.09Z" transform="translate(-2.24)"/><path class="cls-1" d="M158.54,76.32A10.44,10.44,0,0,0,163,80.67a10.51,10.51,0,0,0-.67-6.21,10.44,10.44,0,0,0-4.48-4.35A10.51,10.51,0,0,0,158.54,76.32Z" transform="translate(-2.24)"/><path class="cls-1" d="M168.35,75a10.5,10.5,0,0,1-3.22,5.36,10.49,10.49,0,0,1-.94-6.18,10.5,10.5,0,0,1,3.22-5.35A10.47,10.47,0,0,1,168.35,75Z" transform="translate(-2.24)"/><path class="cls-1" d="M157.59,89.25a10.47,10.47,0,0,0,3.26,5.33,9.2,9.2,0,0,0-2.35-11.51A10.45,10.45,0,0,0,157.59,89.25Z" transform="translate(-2.24)"/><path class="cls-1" d="M167.42,90.46A10.49,10.49,0,0,1,163,94.84,9.22,9.22,0,0,1,168,84.24,10.5,10.5,0,0,1,167.42,90.46Z" transform="translate(-2.24)"/><path class="cls-1" d="M153,103.47a10.47,10.47,0,0,0,1.78,6,9.2,9.2,0,0,0,.66-11.74A10.5,10.5,0,0,0,153,103.47Z" transform="translate(-2.24)"/><path class="cls-1" d="M162.2,107.15a10.53,10.53,0,0,1-5.43,3.1,9.19,9.19,0,0,1,7.62-9A10.52,10.52,0,0,1,162.2,107.15Z" transform="translate(-2.24)"/><path class="cls-1" d="M144,112.88a10.49,10.49,0,0,0-1,6.18,9.21,9.21,0,0,0,5.64-10.31A10.46,10.46,0,0,0,144,112.88Z" transform="translate(-2.24)"/><path class="cls-1" d="M150.76,120.15a10.48,10.48,0,0,1-6.23.47,9.19,9.19,0,0,1,10.72-4.81A10.49,10.49,0,0,1,150.76,120.15Z" transform="translate(-2.24)"/><path class="cls-1" d="M132.42,119.17a10.47,10.47,0,0,0-3.17,5.38,9.18,9.18,0,0,0,9.05-7.5A10.52,10.52,0,0,0,132.42,119.17Z" transform="translate(-2.24)"/><path class="cls-1" d="M136,128.41a10.48,10.48,0,0,1-6-1.87,9.21,9.21,0,0,1,11.74-.51A10.49,10.49,0,0,1,136,128.41Z" transform="translate(-2.24)"/><path class="cls-1" d="M121.71,122.37a10.5,10.5,0,0,0-4.36,4.48,9.22,9.22,0,0,0,10.57-5.15A10.51,10.51,0,0,0,121.71,122.37Z" transform="translate(-2.24)"/><path class="cls-1" d="M123,132.19a10.55,10.55,0,0,1-5.35-3.23,9.21,9.21,0,0,1,11.53,2.28A10.48,10.48,0,0,1,123,132.19Z" transform="translate(-2.24)"/><path class="cls-1" d="M67.49,76.32A10.44,10.44,0,0,1,63,80.67a10.51,10.51,0,0,1,.67-6.21,10.44,10.44,0,0,1,4.48-4.35A10.42,10.42,0,0,1,67.49,76.32Z" transform="translate(-2.24)"/><path class="cls-1" d="M57.68,75A10.5,10.5,0,0,0,60.9,80.4a10.49,10.49,0,0,0,.94-6.18,10.5,10.5,0,0,0-3.22-5.35A10.47,10.47,0,0,0,57.68,75Z" transform="translate(-2.24)"/><path class="cls-1" d="M68.44,89.25a10.47,10.47,0,0,1-3.26,5.33,9.19,9.19,0,0,1,2.36-11.51A10.49,10.49,0,0,1,68.44,89.25Z" transform="translate(-2.24)"/><path class="cls-1" d="M58.61,90.46a10.49,10.49,0,0,0,4.46,4.38A9.22,9.22,0,0,0,58,84.24,10.5,10.5,0,0,0,58.61,90.46Z" transform="translate(-2.24)"/><path class="cls-1" d="M73,103.47a10.52,10.52,0,0,1-1.79,6,9.2,9.2,0,0,1-.66-11.74A10.56,10.56,0,0,1,73,103.47Z" transform="translate(-2.24)"/><path class="cls-1" d="M63.83,107.15a10.53,10.53,0,0,0,5.43,3.1,10.5,10.5,0,0,0-2.19-5.85,10.53,10.53,0,0,0-5.43-3.1A10.52,10.52,0,0,0,63.83,107.15Z" transform="translate(-2.24)"/><path class="cls-1" d="M82,112.88a10.54,10.54,0,0,1,1,6.18,9.19,9.19,0,0,1-5.63-10.31A10.52,10.52,0,0,1,82,112.88Z" transform="translate(-2.24)"/><path class="cls-1" d="M75.27,120.15a10.51,10.51,0,0,0,6.24.47,10.55,10.55,0,0,0-4.5-4.34,10.48,10.48,0,0,0-6.23-.47A10.49,10.49,0,0,0,75.27,120.15Z" transform="translate(-2.24)"/><path class="cls-1" d="M93.61,119.17a10.47,10.47,0,0,1,3.17,5.38,9.18,9.18,0,0,1-9-7.5A10.52,10.52,0,0,1,93.61,119.17Z" transform="translate(-2.24)"/><path class="cls-1" d="M90.05,128.41a10.48,10.48,0,0,0,6-1.87A9.21,9.21,0,0,0,84.27,126,10.49,10.49,0,0,0,90.05,128.41Z" transform="translate(-2.24)"/><path class="cls-1" d="M104.32,122.37a10.5,10.5,0,0,1,4.36,4.48,9.22,9.22,0,0,1-10.57-5.15A10.51,10.51,0,0,1,104.32,122.37Z" transform="translate(-2.24)"/><path class="cls-1" d="M103.05,132.19a10.55,10.55,0,0,0,5.36-3.23,9.2,9.2,0,0,0-11.53,2.28A10.44,10.44,0,0,0,103.05,132.19Z" transform="translate(-2.24)"/></g></g></svg>